<svg width="20" height="20" viewBox="0 0 20 20" fill="none" xmlns="http://www.w3.org/2000/svg">
<path d="M8.15012 1.39999L4.43012 7.47999C4.02012 8.13999 4.50012 8.99999 5.28012 8.99999H12.7101C13.4901 8.99999 13.9701 8.13999 13.5601 7.47999L9.85012 1.39999C9.76172 1.25363 9.63703 1.13257 9.48811 1.04854C9.3392 0.964516 9.17111 0.920364 9.00012 0.920364C8.82913 0.920364 8.66104 0.964516 8.51213 1.04854C8.36321 1.13257 8.23852 1.25363 8.15012 1.39999Z" fill="black"/>
<path d="M14.5 20C16.9853 20 19 17.9853 19 15.5C19 13.0147 16.9853 11 14.5 11C12.0147 11 10 13.0147 10 15.5C10 17.9853 12.0147 20 14.5 20Z" fill="black"/>
<path d="M1 19.5H7C7.55 19.5 8 19.05 8 18.5V12.5C8 11.95 7.55 11.5 7 11.5H1C0.45 11.5 0 11.95 0 12.5V18.5C0 19.05 0.45 19.5 1 19.5Z" fill="black"/>
</svg>
