<svg width="24" height="24" viewBox="0 0 24 24" fill="black" xmlns="http://www.w3.org/2000/svg">
<path d="M14.75 7.45999L12 3.92999L13.97 3.53999L16.71 7.06999L14.75 7.45999ZM21.62 6.09999L20.84 2.17999L16.91 2.95999L19.65 6.49999L21.62 6.09999ZM4.15996 5.49999L3.17996 5.68999C2.09996 5.90999 1.39996 6.95999 1.60996 8.03999L1.99996 9.99999L6.89996 9.02999L4.15996 5.49999ZM11.81 8.04999L9.06996 4.49999L7.09996 4.90999L9.84996 8.43999L11.81 8.04999ZM1.99996 9.99999V20C1.99996 21.11 2.89996 22 3.99996 22H13.81C13.3 21.12 13 20.1 13 19C13 15.69 15.69 13 19 13C20.1 13 21.12 13.3 22 13.81V9.99999H1.99996ZM17 22L22 19L17 16V22Z" />
</svg>
