<svg width="40" height="40" viewBox="0 0 40 40" fill="none" xmlns="http://www.w3.org/2000/svg">
<g clip-path="url(#clip0_1204_10279)">
<path d="M25.7646 19.5356C26.2156 20.5155 26.4745 21.6036 26.4745 22.7493C26.4745 26.9378 23.2388 30.4408 19.1257 30.4408C15.0523 30.4408 11.8911 26.9378 11.8911 22.7493C11.8911 20.3919 12.9335 18.263 14.5878 16.8728C14.0648 14.501 16.0381 11.6901 17.8912 9.67114C10.5719 10.2474 5 15.8963 5 22.7485C5 30.0973 11.2065 35.9992 19.1257 35.9992C27.0448 35.9992 33.4037 30.0965 33.4037 22.7485C33.4037 20.5019 32.7885 18.3848 31.7055 16.5318C30.124 17.8814 28.1601 18.9272 25.7638 19.5348L25.7646 19.5356Z" fill="#A72C29"/>
<path d="M21.3492 8.66754C24.183 9.92662 33.6286 7.40846 35.5172 3C35.5172 8.99162 32.9982 18.1123 21.3492 18.4279C9.70021 18.7427 21.3492 8.66754 21.3492 8.66754Z" fill="#A72C29"/>
</g>
<defs>
<clipPath id="clip0_1204_10279">
<rect width="30.5174" height="33" fill="white" transform="translate(5 3)"/>
</clipPath>
</defs>
</svg>
