<svg width="95" height="95" viewBox="0 0 95 95" fill="none" xmlns="http://www.w3.org/2000/svg">
<path d="M47.2271 94.4314C46.8445 94.4314 46.4624 94.4271 46.0787 94.4179C33.9603 94.1328 22.522 89.2112 13.8711 80.5603C5.2197 71.9089 0.298629 60.4706 0.0135537 48.3522C-0.288865 35.5173 4.47829 23.3979 13.4359 14.2267C22.3968 5.05223 34.3933 0 47.2157 0H86.0234C90.6594 0 94.4309 3.77156 94.4309 8.40755V47.2152C94.4309 60.0376 89.3787 72.0341 80.2042 80.995C71.3073 89.6849 59.6344 94.4314 47.2271 94.4314ZM47.2157 5.7156C35.9455 5.7156 25.4015 10.157 17.5251 18.221C9.65192 26.2817 5.4625 36.9346 5.72807 48.2178C5.97846 58.8605 10.3055 68.9107 17.9126 76.5183C25.5202 84.1254 35.5705 88.453 46.2131 88.7034C57.4844 88.9673 68.1493 84.779 76.2105 76.9058C84.2739 69.0294 88.7153 58.4849 88.7153 47.2152V8.40755C88.7153 6.9231 87.5078 5.7156 86.0234 5.7156H47.2157Z" fill="black"/>
<path d="M47.1993 81.3598C28.3784 81.3598 13.0667 66.0427 13.0667 47.2153C13.0667 28.3884 28.3784 13.0713 47.1993 13.0713C66.0197 13.0713 81.3315 28.3884 81.3315 47.2153C81.3315 66.0427 66.0197 81.3598 47.1993 81.3598ZM47.1993 18.3457C31.2856 18.3457 18.3393 31.2966 18.3393 47.2153C18.3393 63.1345 31.2856 76.0854 47.1993 76.0854C63.1125 76.0854 76.0589 63.1345 76.0589 47.2153C76.0589 31.2966 63.1125 18.3457 47.1993 18.3457Z" fill="black"/>
<path d="M47.1992 68.0641C35.7069 68.0641 26.3574 58.7114 26.3574 47.2151C26.3574 35.7189 35.7069 26.3667 47.1992 26.3667C58.6914 26.3667 68.0404 35.7189 68.0404 47.2151C68.0404 58.7114 58.6914 68.0641 47.1992 68.0641ZM47.1992 32.0823C38.8574 32.0823 32.071 38.871 32.071 47.2151C32.071 55.5598 38.8574 62.3485 47.1992 62.3485C55.5404 62.3485 62.3267 55.5598 62.3267 47.2151C62.3267 38.871 55.5404 32.0823 47.1992 32.0823Z" fill="black"/>
</svg>
