<svg width="766" height="424" viewBox="0 0 766 424" fill="none" xmlns="http://www.w3.org/2000/svg">
<g clip-path="url(#clip0_1327_8972)">
<path d="M769 -13H-1V425.264H769V-13Z" fill="#FCF9F9"/>
<path d="M1136 -13C1067.31 42.1183 1073 80.1922 1024.37 119.486C978.593 154.94 915.501 171.901 867.63 185.686C821.112 200.865 765.431 215.277 734.6 237.238C720.282 249.237 723.571 260.532 714.739 271.466C695.1 294.305 644.43 303.638 609.422 312.725C545.719 329.073 568.829 342.377 543.504 359.124C530.874 365.6 508.397 367.066 492.075 364.614H308.511C292.408 367.066 269.802 365.6 256.598 359.123C229.799 342.358 251.637 329.056 186.547 312.725C150.735 303.65 99.1952 294.296 77.5633 271.465C67.7568 260.531 70.0429 249.236 54.6566 237.238C21.6719 215.221 -34.8462 200.929 -82.9576 185.683C-132.072 171.902 -196.722 154.921 -245.589 119.484C-297.707 80.1983 -295.459 42.0978 -369 -13H1136Z" fill="#B45309"/>
<path d="M390.948 492.823C590.507 492.823 752.281 467.936 752.281 437.235C752.281 406.535 590.507 381.648 390.948 381.648C191.389 381.648 29.615 406.535 29.615 437.235C29.615 467.936 191.389 492.823 390.948 492.823Z" fill="#FBF3F2"/>
<path d="M400.426 367.329H365.82V391.503H400.426V367.329Z" fill="#1C1C1B" stroke="#1C1C1B" stroke-width="0.75" stroke-linecap="round" stroke-linejoin="round"/>
<path d="M374.694 357.064C374.694 357.064 361.981 339.801 345.448 329.829C330.863 321.032 280.2 313 280.2 313L292.935 343.705L374.694 357.063V357.064Z" fill="white" stroke="#1C1C1B" stroke-width="0.75" stroke-linecap="round" stroke-linejoin="round"/>
<path d="M381.172 370.922C381.172 370.922 376.153 345.936 347.81 339.802C319.467 333.668 266.619 339.802 266.619 339.802L291.419 364.373L376.706 372.056C376.706 372.056 374.381 370.835 381.171 370.922H381.172Z" fill="white" stroke="#1C1C1B" stroke-width="0.75" stroke-linecap="round" stroke-linejoin="round"/>
<path d="M383.802 370.922H381.172C381.172 370.922 376.246 360.592 387.962 348.43C402.752 333.077 460.296 322.744 487.458 321.563L470.7 352.563L383.802 370.922V370.922Z" fill="white" stroke="#1C1C1B" stroke-width="0.75" stroke-linecap="round" stroke-linejoin="round"/>
<path d="M383.802 370.922C383.802 370.922 379.932 355.22 399.447 345.182C418.962 335.144 496.61 342.23 496.61 342.23L476.829 365.554L395.073 371.009L383.802 370.922V370.922Z" fill="white" stroke="#1C1C1B" stroke-width="0.75" stroke-linecap="round" stroke-linejoin="round"/>
<path d="M370.375 383.458C370.375 377.827 373.84 373.011 378.752 371.008C373.62 354.665 354.986 353.184 341.315 354.038C327.143 354.924 265.734 365.848 265.734 365.848L258.648 387.991H371.176C370.667 386.573 370.376 385.051 370.376 383.458H370.375Z" fill="white" stroke="#1C1C1B" stroke-width="0.75" stroke-linecap="round" stroke-linejoin="round"/>
<path d="M263.747 372.056L322.124 362.601" stroke="#1C1C1B" stroke-width="0.75" stroke-linecap="round" stroke-linejoin="round"/>
<path d="M261.309 379.675L292.936 375.297" stroke="#1C1C1B" stroke-width="0.75" stroke-linecap="round" stroke-linejoin="round"/>
<path d="M378.752 371.009C375.687 366.406 367.407 361.863 355.782 362.601" stroke="#1C1C1B" stroke-width="0.75" stroke-linecap="round" stroke-linejoin="round"/>
<path d="M396.339 383.458C396.339 377.827 392.874 373.011 387.962 371.008C393.094 354.665 411.728 353.184 425.399 354.038C439.57 354.924 500.98 365.848 500.98 365.848L508.066 387.991H395.538C396.047 386.573 396.338 385.051 396.338 383.458H396.339Z" fill="white" stroke="#1C1C1B" stroke-width="0.75" stroke-linecap="round" stroke-linejoin="round"/>
<path d="M502.967 372.056L444.59 362.601" stroke="#1C1C1B" stroke-width="0.75" stroke-linecap="round" stroke-linejoin="round"/>
<path d="M505.405 379.675L473.779 375.297" stroke="#1C1C1B" stroke-width="0.75" stroke-linecap="round" stroke-linejoin="round"/>
<path d="M387.963 371.009C391.028 366.406 399.308 361.863 410.933 362.601" stroke="#1C1C1B" stroke-width="0.75" stroke-linecap="round" stroke-linejoin="round"/>
<path d="M397.104 387.606V387.772C386.573 389.577 381.098 389.577 370.569 387.773V387.606H243.581V393.65H370.562V393.816C381.096 395.622 386.57 395.623 397.104 393.816V393.65H524.092V387.606H397.104V387.606Z" fill="#DCABA9" stroke="#1C1C1B" stroke-width="0.75" stroke-linecap="round" stroke-linejoin="round"/>
<path d="M370.569 387.774V393.817" stroke="#1C1C1B" stroke-width="0.75" stroke-miterlimit="10" stroke-linecap="round"/>
<path d="M397.104 387.773V393.817" stroke="#1C1C1B" stroke-width="0.75" stroke-miterlimit="10" stroke-linecap="round"/>
</g>
<defs>
<clipPath id="clip0_1327_8972">
<rect width="766" height="424" fill="white"/>
</clipPath>
</defs>
</svg>
