<?xml version="1.0" encoding="utf-8"?>
<!-- Generator: Adobe Illustrator 27.0.1, SVG Export Plug-In . SVG Version: 6.00 Build 0)  -->
<svg version="1.1" id="Layer_1" xmlns="http://www.w3.org/2000/svg" xmlns:xlink="http://www.w3.org/1999/xlink" x="0px" y="0px"
	 viewBox="0 0 5667.1 561.3" style="enable-background:new 0 0 5667.1 561.3;" xml:space="preserve">
<style type="text/css">
	.st0{fill:#FEE6E1;stroke:#6E5756;stroke-width:0.8745;stroke-miterlimit:10;}
	.st1{fill:#E4E1E5;stroke:#6E5756;stroke-miterlimit:10;}
	.st2{fill:#FEE6E1;stroke:#6E5756;stroke-miterlimit:10;}
	.st3{fill:#FD836D;stroke:#6E5756;stroke-miterlimit:10;}
	.st4{fill:#FDE3D2;stroke:#6E5756;stroke-miterlimit:10;}
	.st5{fill:#FDDBD0;stroke:#6E5756;stroke-miterlimit:10;}
	.st6{fill:#FEA493;stroke:#6E5756;stroke-miterlimit:10;}
	.st7{fill:#FEC5BA;stroke:#6E5756;stroke-miterlimit:10;}
	.st8{fill:#FD8F7B;stroke:#6E5756;stroke-miterlimit:10;}
	.st9{fill:#FDA08F;stroke:#6E5756;stroke-miterlimit:10;}
	.st10{fill:#FD8771;stroke:#6E5756;stroke-miterlimit:10;}
	.st11{fill:#FEAC9D;stroke:#6E5756;stroke-miterlimit:10;}
	.st12{fill:#FFEBE8;stroke:#6E5756;stroke-linecap:round;stroke-linejoin:round;stroke-miterlimit:10;}
	.st13{fill:none;stroke:#6E5756;stroke-linecap:round;stroke-linejoin:round;stroke-miterlimit:10;}
	.st14{fill:#FFFFFF;stroke:#6E5756;stroke-linecap:round;stroke-linejoin:round;stroke-miterlimit:10;}
	.st15{fill:#FFFFFF;}
	.st16{fill:#FFE2DD;}
	.st17{fill:#FEC0B4;stroke:#6E5756;stroke-miterlimit:10;}
	.st18{fill:#FEE6E1;}
	.st19{fill:#E5E8E4;stroke:#6E5756;stroke-miterlimit:10;}
	.st20{fill:#FFE2DD;stroke:#6E5756;stroke-width:0.8075;stroke-miterlimit:10;}
	.st21{fill:#FED7D0;stroke:#6E5756;stroke-miterlimit:10;}
</style>
<path class="st0" d="M5667.1,429.4c-297,6.3-403.5-7.8-403.5-7.8s-163.7-81.1-259.1-80.9c-95.4,0.2-204.7,49.1-204.7,49.1
	s-261-115.3-471.9-113.7c-56.1-1.9-110.5,36-145.7,67.6c-24.7,22.2-40,41.2-40,41.2s-23.1-28.4-70-54
	c-31.8-17.4-74.6-33.5-128.6-38.6c-152.2-14.4-295.9,97.3-295.9,97.3s-139.8-54.9-198.1-49c-898.9,91.8-1174.3,44.3-1174.3,44.3
	S2111.5,278.8,2016,279c-95.4,0.2-204.7,64.2-204.7,64.2S1629.2,154.4,1371,202.3c-20.9,3.9-42.4,3.9-63.4,0
	c-258.2-48-440.2,140.9-440.2,140.9s-109.3-64-204.7-64.2c-95.5-0.2-259.1,105.8-259.1,105.8S297,403.2,0,395l0,146h1339.3h2988.5
	h1339.3V429.4z"/>
<g>
	<path class="st1" d="M1339.3,423.5c62.7-96.1,161.9-45.3,161.9-45.3s11.8-56.5,127-56.8c115.2-0.3,137.9,80.6,137.9,80.6
		s54.3-18,124.6,0c70.3,18,93.3,99,93.3,99h-644.7V423.5z"/>
	<path class="st2" d="M1813.2,459c-9.7-7.9,18.1-34.9,38.6-32.5C1872.3,428.8,1832.9,475.1,1813.2,459z"/>
	<path class="st2" d="M1892.5,421.5c-11.6-5.7,1.4-14.4,11.7-10.3C1914.5,415.4,1910.5,430.3,1892.5,421.5z"/>
	<path class="st1" d="M4367.6,358.8L4507.5,546h-286.3l-421.9-59.2c-17.5-87.9,65.3-110.2,117.9-100.8c52.6,9.4,73.7,51.1,73.7,51.1
		s-3.5-92.5,70.3-104.9c3.5-0.6,7.2-1,10.9-1.3c46.9,25.6,70,54,70,54s15.3-19,40-41.2c34.1,9,59,19,59,19s6.3-21.1,35.4-31.6
		C4309.5,319,4346.6,330.7,4367.6,358.8z"/>
	<polygon class="st3" points="3907.1,443.2 3893,443.2 3895.3,373.6 3904.2,373.6 	"/>
	<polygon class="st4" points="3852.1,401.7 3870,328.3 3884.4,324.3 3871.5,318.7 3894.5,221.3 3933.7,362.9 3921.8,371.3 
		3937,374.2 3944.8,401.7 	"/>
	<polygon class="st5" points="3894.5,221.3 3893,282.8 3921.8,319.9 	"/>
	<polygon class="st6" points="3904.2,339.7 3925.8,348.9 3900.1,357 	"/>
	<polygon class="st6" points="3879.4,369.7 3890.8,382.5 3874.6,389.5 	"/>
	<polygon class="st3" points="4054.7,404.3 4035.1,404.3 4038.2,307.7 4050.6,307.7 	"/>
	<polygon class="st4" points="3978.4,346.7 4003.1,245 4023.2,239.5 4005.3,231.6 4037.2,96.5 4091.6,293 4075.1,304.6 
		4096.2,308.6 4107,346.7 	"/>
	<polygon class="st5" points="4037.2,96.5 4035.1,181.9 4075.1,233.3 	"/>
	<polygon class="st6" points="4050.6,260.8 4080.6,273.5 4044.9,284.7 	"/>
	<polygon class="st6" points="4015.4,315.9 4032.1,320.1 4009.5,329.9 	"/>
	<polygon class="st3" points="4231.6,437.1 4208.3,437.1 4212,322.5 4226.7,322.5 	"/>
	<polygon class="st4" points="4141.1,368.8 4170.4,248.1 4194.2,241.6 4173,232.2 4210.8,71.9 4275.3,305 4255.7,318.8 
		4280.8,323.6 4293.6,368.8 	"/>
	<polygon class="st5" points="4210.8,71.9 4208.3,173.3 4255.7,234.3 	"/>
	<polygon class="st6" points="4226.7,266.8 4262.3,282 4219.9,295.2 	"/>
	<polygon class="st6" points="4185,332.2 4204.7,337.2 4177.9,348.8 	"/>
	<path class="st1" d="M776,338.6L636.2,525.8h286.3l421.9-59.2c17.5-87.9-65.3-110.2-117.9-100.8c-52.6,9.4-73.7,51.1-73.7,51.1
		s3.5-92.5-70.3-104.9c-3.5-0.6-7.2-1-10.9-1.3c-46.9,25.6-70,54-70,54s-15.3-19-40-41.2c-34.1,9-59,19-59,19s-6.3-21.1-35.4-31.6
		C834.1,298.8,797.1,310.5,776,338.6z"/>
	<polygon class="st3" points="1236.5,423 1250.7,423 1248.4,353.4 1239.4,353.4 	"/>
	<polygon class="st4" points="1291.5,381.5 1273.7,308.2 1259.2,304.1 1272.1,298.5 1249.1,201.1 1209.9,342.7 1221.8,351.1 
		1206.6,354 1198.8,381.5 	"/>
	<polygon class="st5" points="1249.1,201.1 1250.7,262.6 1221.8,299.7 	"/>
	<polygon class="st6" points="1239.4,319.5 1217.8,328.7 1243.6,336.8 	"/>
	<polygon class="st3" points="1088.9,384.1 1108.6,384.1 1105.4,287.5 1093,287.5 	"/>
	<polygon class="st4" points="1165.2,326.5 1140.5,224.8 1120.5,219.3 1138.3,211.4 1106.4,76.3 1052,272.8 1068.5,284.4 
		1047.5,288.4 1036.6,326.5 	"/>
	<polygon class="st5" points="1106.4,76.3 1108.6,161.7 1068.5,213.1 	"/>
	<polygon class="st6" points="1093,240.6 1063,253.3 1098.7,264.5 	"/>
	<polygon class="st6" points="1128.2,295.7 1111.5,299.9 1134.1,309.7 	"/>
	<polygon class="st3" points="912.1,416.9 935.4,416.9 931.6,302.3 916.9,302.3 	"/>
	<polygon class="st4" points="1002.6,348.6 973.3,228 949.5,221.4 970.7,212 932.8,51.7 868.3,284.8 887.9,298.6 862.9,303.4 
		850,348.6 	"/>
	<polygon class="st5" points="932.8,51.7 935.4,153.1 887.9,214.1 	"/>
	<polygon class="st6" points="916.9,246.6 881.3,261.8 923.7,275 	"/>
	<polygon class="st6" points="958.7,312 938.9,317 965.7,328.6 	"/>
	<path class="st7" d="M4515.3,470c0,0-12.3-44.1-53.9-54.1c-41.6-10-70.3,31.1-70.3,31.1s-1.2-56.3-63.3-59.2
		c-62.1,2.9-63.3,59.2-63.3,59.2s-28.7-41-70.3-31.1c-41.6,10-53.9,54.1-53.9,54.1s-79.4-26.9-91.7,32.4l279.2,16.9l279.2-16.9
		C4594.7,443.1,4515.3,470,4515.3,470z"/>
	<g>
		<polygon class="st3" points="1754.1,434.8 1734.8,434.8 1737.9,369.8 1750.1,369.8 		"/>
		<polygon class="st4" points="1680.6,409.8 1704.8,310.1 1724.4,304.7 1706.9,297 1738.2,164.6 1791.5,357.1 1775.3,368.5 
			1796,372.4 1806.6,409.8 		"/>
		<polygon class="st5" points="1738.2,164.6 1728.3,250.3 1772.1,287.2 		"/>
		<polygon class="st6" points="1779.9,315.1 1743.6,315.1 1741.4,339.4 		"/>
	</g>
	<g>
		<polygon class="st3" points="1448.2,448.6 1424.9,448.6 1428.6,369.9 1443.4,369.9 		"/>
		<polygon class="st4" points="1360.3,416.3 1389.6,295.6 1413.4,289 1392.2,279.7 1430,119.4 1494.5,352.5 1475,366.3 1500,371.1 
			1512.8,416.3 		"/>
		<polygon class="st5" points="1430,119.4 1415.8,259.3 1487.7,327.9 		"/>
		<polygon class="st6" points="1424.9,345.9 1475.6,359.4 1441,325.6 		"/>
	</g>
	<g>
		<polygon class="st3" points="1591.8,412.1 1568.5,412.1 1572.2,297.5 1586.9,297.5 		"/>
		<polygon class="st4" points="1501.3,343.7 1530.6,223.1 1554.4,216.5 1533.2,207.2 1571,46.9 1635.5,280 1615.9,293.8 1641,298.6 
			1653.8,343.7 		"/>
		<polygon class="st5" points="1571,46.9 1568.5,148.2 1615.9,209.2 		"/>
		<polygon class="st6" points="1586.9,241.8 1622.5,256.9 1580.1,270.2 		"/>
		<polygon class="st6" points="1545.2,307.2 1564.9,312.2 1538.1,323.8 		"/>
	</g>
	<path class="st1" d="M4327.8,464.3c62.7-96.1,161.9-45.3,161.9-45.3s11.8-56.5,127-56.8c115.2-0.3,137.9,80.6,137.9,80.6
		s54.3-18,124.6,0c70.3,18,93.3,99,93.3,99h-644.7V464.3z"/>
	<path class="st2" d="M4801.7,499.7c-9.7-7.9,18.1-34.9,38.6-32.5C4860.8,469.6,4821.4,515.9,4801.7,499.7z"/>
	<g>
		<polygon class="st3" points="4742.5,475.5 4723.3,475.5 4726.4,410.6 4738.5,410.6 		"/>
		<polygon class="st4" points="4669,450.5 4693.3,350.8 4712.9,345.4 4695.4,337.7 4726.7,205.3 4779.9,397.8 4763.8,409.2 
			4784.4,413.2 4795,450.5 		"/>
		<polygon class="st5" points="4726.7,205.3 4716.8,291.1 4760.6,327.9 		"/>
		<polygon class="st6" points="4768.3,355.8 4732,355.8 4729.9,380.1 		"/>
	</g>
	<g>
		<polygon class="st3" points="4436.7,489.3 4413.4,489.3 4417.1,410.7 4431.8,410.7 		"/>
		<polygon class="st4" points="4348.7,457 4378.1,336.4 4401.8,329.8 4380.7,320.5 4418.5,160.2 4483,393.3 4463.4,407.1 
			4488.4,411.8 4501.3,457 		"/>
		<polygon class="st5" points="4418.5,160.2 4404.3,300 4476.2,368.7 		"/>
		<polygon class="st6" points="4413.4,386.7 4464,400.1 4429.5,366.3 		"/>
	</g>
	<g>
		<polygon class="st3" points="4580.2,452.8 4556.9,452.8 4560.7,338.2 4575.4,338.2 		"/>
		<polygon class="st4" points="4489.7,384.5 4519,263.9 4542.8,257.3 4521.6,247.9 4559.5,87.6 4624,320.7 4604.4,334.5 
			4629.4,339.3 4642.3,384.5 		"/>
		<polygon class="st5" points="4559.5,87.6 4556.9,189 4604.4,250 		"/>
		<polygon class="st6" points="4575.4,282.5 4611,297.7 4568.6,310.9 		"/>
		<polygon class="st6" points="4533.6,347.9 4553.4,352.9 4526.6,364.5 		"/>
	</g>
	<g>
		<polygon class="st3" points="1684,350.6 1660.7,350.6 1664.5,236 1679.2,236 		"/>
		<path class="st8" d="M1718,197.7c0,3-0.1,6-0.3,8.9c-2.7,36.6-21.9,65-45.3,65c-25.2,0-45.6-33.1-45.6-73.9
			c0-22,5.9-41.7,15.3-55.2c8.1-11.6,18.7-18.6,30.3-18.6C1697.6,123.8,1718,156.9,1718,197.7z"/>
		<path class="st9" d="M1718,197.7c0,3-0.1,6-0.3,8.9c-8.1,11.6-18.7,18.7-30.3,18.7c-25.2,0-45.6-33.1-45.6-73.9c0-3,0.1-6,0.3-8.9
			c8.1-11.6,18.7-18.6,30.3-18.6C1697.6,123.8,1718,156.9,1718,197.7z"/>
	</g>
	<g>
		<g>
			<g>
				<g>
					<g>
						<g>
							<path class="st4" d="M2037.3,428.5c43.5-12,35.8-65.7,23.4-73.6c-12.4-8-17.4-15.4-0.5-36.8c16.9-21.4,13.9-52.7-8.5-61.2
								c-10.4-3.9-18.4-14.7-9.9-37.3c11.8-31.3-7.6-45.3-22.9-38.8c-28.4,12.2-45.3,54.5-39.3,97.7c6.2,44.6,6,50.2-12.2,70.6
								C1949.8,369,1956.2,450.9,2037.3,428.5z"/>
						</g>
					</g>
					<g>
						<g>
							<path class="st10" d="M2012.9,478.1c0.2,0,0.5-0.1,0.6-0.4c0.1-0.1,5.6-12.5,4.4-26.8c-0.3-3.9-1.2-7.8-2.2-12.3
								c-2.6-12.3-5.9-27.5-1.2-53.3c5-27,16.5-90.4-7.3-140.6c-0.1-0.3-0.5-0.4-0.8-0.3c-0.3,0.1-0.4,0.5-0.3,0.8
								c23.6,49.9,12.1,113,7.2,139.9c-4.8,26-1.4,41.4,1.2,53.7c1,4.5,1.8,8.4,2.1,12.2c1.2,14-4.2,26.1-4.3,26.2
								c-0.1,0.3,0,0.7,0.3,0.8C2012.7,478.1,2012.8,478.1,2012.9,478.1z"/>
						</g>
					</g>
					<g>
						<g>
							<path class="st10" d="M2011.7,415.9c0.1,0,0.1,0,0.2,0c0.3-0.1,31.2-9.7,27.8-32.2c0-0.3-0.3-0.6-0.7-0.5
								c-0.3,0-0.6,0.4-0.5,0.7c3.2,21.4-26.7,30.8-27,30.8c-0.3,0.1-0.5,0.4-0.4,0.8C2011.2,415.7,2011.5,415.9,2011.7,415.9z"/>
						</g>
					</g>
					<g>
						<g>
							<path class="st10" d="M2017.9,358.2c0.3,0,0.5-0.2,0.6-0.5c0.1-0.3-0.1-0.7-0.4-0.7c-0.1,0-12.8-3.5-18.4-21.6
								c-0.1-0.3-0.4-0.5-0.8-0.4c-0.3,0.1-0.5,0.4-0.4,0.8c5.8,18.8,18.7,22.3,19.3,22.4C2017.8,358.2,2017.8,358.2,2017.9,358.2z"
								/>
						</g>
					</g>
					<g>
						<g>
							<path class="st10" d="M2020.1,296.3c0.1,0,0.2,0,0.2,0c0.1-0.1,3.4-1.5,8-10c0.2-0.3,0-0.7-0.3-0.8c-0.3-0.2-0.7,0-0.8,0.3
								c-4.3,8-7.3,9.4-7.3,9.4c-0.3,0.1-0.5,0.5-0.3,0.8C2019.7,296.2,2019.9,296.3,2020.1,296.3z"/>
						</g>
					</g>
					<g>
						<g>
							<path class="st10" d="M2000.1,347.1c2.4,0,3.7-0.7,3.8-0.7c0.3-0.2,0.4-0.5,0.2-0.8c-0.2-0.3-0.5-0.4-0.8-0.2
								c0,0-3.8,2-11.9-1.7c-0.3-0.1-0.7,0-0.8,0.3c-0.1,0.3,0,0.7,0.3,0.8C1994.8,346.6,1997.9,347.1,2000.1,347.1z"/>
						</g>
					</g>
					<g>
						<g>
							<path class="st10" d="M2038.4,396.7c2.8,0,11.1-0.6,14.5-7.1c0.2-0.3,0-0.7-0.3-0.8c-0.3-0.2-0.7,0-0.8,0.3
								c-3.7,7-14.2,6.4-14.3,6.4c-0.4,0-0.6,0.2-0.7,0.6c0,0.3,0.2,0.6,0.6,0.7C2037.5,396.7,2037.8,396.7,2038.4,396.7z"/>
						</g>
					</g>
					<g>
						<g>
							<path class="st11" d="M1984.9,258.6c10.5-2.6,6.7-11.9,2.8-12.7C1983.7,245.2,1982.6,259.1,1984.9,258.6z"/>
						</g>
					</g>
					<g>
						<g>
							<path class="st11" d="M2032.2,200.9c9.7-3.2,2.2-10.3-2.8-9.9C2024.4,191.4,2028.3,202.3,2032.2,200.9z"/>
						</g>
					</g>
				</g>
			</g>
		</g>
		<g>
			<g>
				<path class="st11" d="M2064.9,283.2c0.9-12.1-0.7-14.9-6.2-15.1C2053.3,267.9,2064.1,292.7,2064.9,283.2z"/>
			</g>
		</g>
	</g>
	<path class="st4" d="M1985.5,328.3c-20.2-36.6-45-75-32.6-99.2c9.9-19.4,43.7-3.1,45.5,27C2000.3,286.3,1985.5,328.3,1985.5,328.3z
		"/>
	<path class="st1" d="M3277.9,357.1c31.8-14.4,38.6-16.8,64.2-22.8c19.5-4.5,45.7,6.2,45.7,6.2s13-14.1,29.1-14.9
		c16.1-0.9,22.6,9.2,22.6,9.2s14.3-29.7,42.9-28.3c28.6,1.5,32.4,31.9,32.4,31.9s9.7-5.1,22,0c12.3,5.1,26.9,22.4,26.9,22.4
		s-17,17.2-74.7,16.3c-57.7-0.9-74.1-3.8-105.8-9.4C3343.2,360.7,3277.9,357.1,3277.9,357.1z"/>
	<path class="st1" d="M2275.1,384.9c0,0,9.4-23,31.1-26.6c21.7-3.7,32.8,22.6,32.8,22.6s12.9-9.2,25.8-6.9c12.9,2.3,17,14.8,17,14.8
		s26.4-12.7,44.5-7.9c18.2,4.8,38.1,15.9,38.1,15.9s-48.6,21.1-104.3,13.5C2304.5,402.6,2275.1,384.9,2275.1,384.9z"/>
	<g>
		<g>
			<g>
				<g>
					<g>
						<g>
							<g>
								<path class="st4" d="M3753.8,430.8c43.5-12,35.8-65.7,23.4-73.6c-12.4-8-17.4-15.4-0.5-36.8c16.9-21.4,13.9-52.7-8.5-61.2
									c-10.4-3.9-24.9-18.4-9.9-37.3c33.6-42.7,3.5-62.3-20-48.8c-26.8,15.5-48.1,64.4-42.1,107.7c6.2,44.6,6,50.2-12.2,70.6
									C3666.2,371.3,3672.7,453.2,3753.8,430.8z"/>
							</g>
						</g>
						<g>
							<g>
								<path class="st10" d="M3729.4,480.4c0.2,0,0.5-0.1,0.6-0.4c0.1-0.1,5.6-12.5,4.4-26.8c-0.3-3.9-1.2-7.8-2.2-12.3
									c-2.6-12.3-5.9-27.5-1.2-53.3c5-27,16.5-90.4-7.3-140.6c-0.1-0.3-0.5-0.4-0.8-0.3c-0.3,0.1-0.4,0.5-0.3,0.8
									c23.6,49.9,12.1,113,7.2,139.9c-4.8,26-1.4,41.4,1.2,53.7c1,4.5,1.8,8.4,2.1,12.2c1.2,14-4.2,26.1-4.3,26.2
									c-0.1,0.3,0,0.7,0.3,0.8C3729.2,480.4,3729.3,480.4,3729.4,480.4z"/>
							</g>
						</g>
						<g>
							<g>
								<path class="st10" d="M3728.2,418.2c0.1,0,0.1,0,0.2,0c0.3-0.1,31.2-9.7,27.8-32.2c0-0.3-0.3-0.6-0.7-0.5
									c-0.3,0-0.6,0.4-0.5,0.7c3.2,21.4-26.7,30.8-27,30.8c-0.3,0.1-0.5,0.4-0.4,0.8C3727.7,418,3727.9,418.2,3728.2,418.2z"/>
							</g>
						</g>
						<g>
							<g>
								<path class="st10" d="M3734.4,360.5c0.3,0,0.5-0.2,0.6-0.5c0.1-0.3-0.1-0.7-0.4-0.7c-0.1,0-12.8-3.5-18.4-21.6
									c-0.1-0.3-0.4-0.5-0.8-0.4c-0.3,0.1-0.5,0.4-0.4,0.8c5.8,18.8,18.7,22.3,19.3,22.4C3734.3,360.5,3734.3,360.5,3734.4,360.5z
									"/>
							</g>
						</g>
						<g>
							<g>
								<path class="st10" d="M3736.6,298.6c0.1,0,0.2,0,0.2,0c0.1-0.1,3.4-1.5,8-10c0.2-0.3,0-0.7-0.3-0.8c-0.3-0.2-0.7,0-0.8,0.3
									c-4.3,8-7.3,9.4-7.3,9.4c-0.3,0.1-0.5,0.5-0.3,0.8C3736.1,298.5,3736.4,298.6,3736.6,298.6z"/>
							</g>
						</g>
						<g>
							<g>
								<path class="st10" d="M3716.6,349.4c2.4,0,3.7-0.7,3.8-0.7c0.3-0.2,0.4-0.5,0.2-0.8c-0.2-0.3-0.5-0.4-0.8-0.2
									c0,0-3.8,2-11.9-1.7c-0.3-0.1-0.7,0-0.8,0.3c-0.1,0.3,0,0.7,0.3,0.8C3711.3,348.9,3714.4,349.4,3716.6,349.4z"/>
							</g>
						</g>
						<g>
							<g>
								<path class="st10" d="M3754.9,399c2.8,0,11.1-0.6,14.5-7.1c0.2-0.3,0-0.7-0.3-0.8c-0.3-0.2-0.7,0-0.8,0.3
									c-3.7,7-14.2,6.4-14.3,6.4c-0.4,0-0.6,0.2-0.7,0.6c0,0.3,0.2,0.6,0.6,0.7C3754,399,3754.3,399,3754.9,399z"/>
							</g>
						</g>
						<g>
							<g>
								<path class="st11" d="M3701.4,260.9c10.5-2.6,6.7-11.9,2.8-12.7C3700.2,247.5,3699.1,261.5,3701.4,260.9z"/>
							</g>
						</g>
					</g>
				</g>
			</g>
			<g>
				<g>
					<path class="st11" d="M3781.4,285.5c0.9-12.1-0.7-14.9-6.2-15.1C3769.8,270.2,3780.6,295,3781.4,285.5z"/>
				</g>
			</g>
		</g>
		<path class="st4" d="M3701.9,330.6c-20.2-36.6-45-75-32.6-99.2c9.9-19.4,43.7-3.1,45.5,27C3716.8,288.6,3701.9,330.6,3701.9,330.6
			z"/>
	</g>
	<g>
		<g>
			<path class="st11" d="M3681.1,240.4c9.7-3.2,2.2-10.3-2.8-9.9C3673.3,230.9,3677.2,241.7,3681.1,240.4z"/>
		</g>
	</g>
</g>
<g>
	<polygon class="st12" points="2365.4,455 3314.4,455 3314.4,198.7 2364.2,198.7 	"/>
	<polyline class="st12" points="2794.4,121.7 2411.4,121.7 2338.4,198.7 2673.7,198.7 	"/>
	<polyline class="st12" points="3006.1,198.7 3341.4,198.7 3268.4,121.7 2885.4,121.7 	"/>
	<line class="st12" x1="2629.4" y1="416.1" x2="2693.8" y2="416.1"/>
	<line class="st12" x1="2464.3" y1="416.1" x2="2581.8" y2="416.1"/>
	<polyline class="st12" points="3244.2,416.1 3314.4,416.1 3314.4,438.7 2365.4,438.7 	"/>
	<line class="st12" x1="3098.2" y1="416.1" x2="3119.9" y2="416.1"/>
	<line class="st12" x1="2986.2" y1="416.1" x2="3050.6" y2="416.1"/>
	<line class="st12" x1="2887.6" y1="416.1" x2="2940.1" y2="416.1"/>
	<line class="st12" x1="2739.9" y1="416.1" x2="2792.2" y2="416.1"/>
	<polygon class="st12" points="3013.4,203.4 2666.4,203.4 2839.9,92.7 	"/>
	<polygon class="st12" points="2693.8,195.4 2839.9,102.2 2986,195.4 	"/>
	
		<ellipse transform="matrix(0.8689 -0.495 0.495 0.8689 297.5947 1425.4352)" class="st12" cx="2839.9" cy="150.9" rx="34.3" ry="34.3"/>
	<path class="st13" d="M2842.7,150.9c0,1.6-1.3,2.8-2.8,2.8s-2.8-1.3-2.8-2.8c0-1.6,1.3-2.8,2.8-2.8S2842.7,149.3,2842.7,150.9z"/>
	<line class="st13" x1="2839.9" y1="126.6" x2="2839.9" y2="148"/>
	<line class="st13" x1="2849.6" y1="164.7" x2="2841.5" y2="153.2"/>
	
		<ellipse transform="matrix(0.8689 -0.495 0.495 0.8689 297.5947 1425.4352)" class="st13" cx="2839.9" cy="150.9" rx="34.3" ry="34.3"/>
	<g>
		<rect x="2693.6" y="221.2" class="st12" width="46.1" height="203.5"/>
		<rect x="2683.1" y="424.7" class="st12" width="67.1" height="14"/>
		<rect x="2683.1" y="203.4" class="st12" width="67.1" height="17.8"/>
		<g>
			<line class="st12" x1="2707.5" y1="234.7" x2="2707.5" y2="404.1"/>
			<line class="st12" x1="2725.8" y1="234.7" x2="2725.8" y2="404.1"/>
		</g>
		<rect x="2940.1" y="221.2" class="st12" width="46.1" height="203.5"/>
		<rect x="2929.6" y="424.7" class="st12" width="67.1" height="14"/>
		<rect x="2929.6" y="203.4" class="st12" width="67.1" height="17.8"/>
		<g>
			<line class="st12" x1="2954" y1="234.7" x2="2954" y2="404.1"/>
			<line class="st12" x1="2972.3" y1="234.7" x2="2972.3" y2="404.1"/>
		</g>
	</g>
	<rect x="2759.6" y="203.4" class="st12" width="160.7" height="52.7"/>
	<rect x="2784.2" y="323" class="st12" width="111.5" height="9.8"/>
	<rect x="2792.2" y="332.7" class="st14" width="95.3" height="106"/>
	<rect x="2831.5" y="269.7" class="st12" width="35.8" height="14"/>
	<rect x="2752.3" y="284" class="st12" width="35.8" height="14"/>
	<rect x="2739.7" y="390.1" class="st12" width="27.7" height="14"/>
	<polyline class="st12" points="2886.1,323 2886.1,311.7 2921.9,311.7 2921.9,325.7 2895.9,325.7 	"/>
	<line class="st12" x1="2764.4" y1="361.2" x2="2764.4" y2="371.5"/>
	<line class="st12" x1="2764.4" y1="314.7" x2="2764.4" y2="351.5"/>
	<line class="st12" x1="2915.4" y1="353.3" x2="2915.4" y2="343.1"/>
	<line class="st12" x1="2915.4" y1="399.8" x2="2915.4" y2="363.1"/>
	<g>
		<path class="st15" d="M2793,234.7c0,4.3-3.4,7.7-9.2,7.7c-4.9,0-7.5-3.1-7.5-3.1l2-3.2c0,0,1.9,2.2,5.1,2.2c3.1,0,4.6-1.5,4.6-3.6
			c0-4.3-10.7-2-10.7-10.4c0-3.9,3.2-7.2,8.2-7.2c4.8,0,7,2.7,7,2.7l-1.9,3.2c0,0-1.9-1.9-4.8-1.9c-2.2,0-3.6,1.4-3.6,3.1
			C2782.2,228.7,2793,226.6,2793,234.7z"/>
		<path class="st15" d="M2806.4,217.1c4.3,0,6.5,2.2,6.5,2.2l-2,3.2c0,0-1.5-1.4-4.1-1.4c-3.6,0-6.1,2.6-6.1,8.5
			c0,6,2.6,8.5,6.1,8.5c2.9,0,4.4-1.7,4.4-1.7l2,3.2c0,0-2.4,2.6-6.8,2.6c-6.1,0-10.7-4.6-10.7-12.6
			C2795.7,221.7,2800.3,217.1,2806.4,217.1z"/>
		<path class="st15" d="M2834.9,217.8v23.9h-4.8v-9.9h-8.4v9.9h-4.8v-23.9h4.8v10.1h8.4v-10.1H2834.9z"/>
		<path class="st15" d="M2849.9,242.3c-5.8,0-10.4-4.6-10.4-12.6c0-8,4.6-12.6,10.4-12.6s10.4,4.6,10.4,12.6
			C2860.3,237.7,2855.7,242.3,2849.9,242.3z M2849.9,221.2c-2.9,0-5.5,2.6-5.5,8.5c0,6,2.6,8.5,5.5,8.5s5.5-2.6,5.5-8.5
			C2855.3,223.8,2852.8,221.2,2849.9,221.2z"/>
		<path class="st15" d="M2873.7,242.3c-5.8,0-10.4-4.6-10.4-12.6c0-8,4.6-12.6,10.4-12.6s10.4,4.6,10.4,12.6
			C2884.1,237.7,2879.5,242.3,2873.7,242.3z M2873.7,221.2c-2.9,0-5.5,2.6-5.5,8.5c0,6,2.6,8.5,5.5,8.5s5.5-2.6,5.5-8.5
			C2879.2,223.8,2876.6,221.2,2873.7,221.2z"/>
		<path class="st15" d="M2888.7,217.8h4.8v19.9h10.1v3.9h-14.8V217.8z"/>
	</g>
	<line class="st12" x1="3230.6" y1="138.7" x2="3166.5" y2="138.7"/>
	<line class="st12" x1="3133.4" y1="177.1" x2="3069.4" y2="177.1"/>
	<line class="st12" x1="2492.3" y1="137.3" x2="2428.2" y2="137.3"/>
	<line class="st12" x1="2594.2" y1="176.7" x2="2556.2" y2="176.7"/>
	<g>
		<path class="st12" d="M2467,167.4c0,2.8-3.5,5.1-7.8,5.1c-4.3,0-7.8-2.3-7.8-5.1"/>
		<path class="st12" d="M2482.5,167.4c0,2.8-3.5,5.1-7.8,5.1c-4.3,0-7.8-2.3-7.8-5.1"/>
		<path class="st12" d="M2498,167.4c0,2.8-3.5,5.1-7.8,5.1c-4.3,0-7.8-2.3-7.8-5.1"/>
		<path class="st12" d="M2513.5,167.4c0,2.8-3.5,5.1-7.8,5.1c-4.3,0-7.8-2.3-7.8-5.1"/>
	</g>
	<g>
		<path class="st12" d="M2632.7,146.3c0,2.8-3.5,5.1-7.8,5.1s-7.8-2.3-7.8-5.1"/>
		<path class="st12" d="M2648.2,146.3c0,2.8-3.5,5.1-7.8,5.1s-7.8-2.3-7.8-5.1"/>
		<path class="st12" d="M2663.7,146.3c0,2.8-3.5,5.1-7.8,5.1s-7.8-2.3-7.8-5.1"/>
		<path class="st12" d="M2679.2,146.3c0,2.8-3.5,5.1-7.8,5.1s-7.8-2.3-7.8-5.1"/>
	</g>
	<g>
		<path class="st12" d="M3009.9,143.7c0,2.8-3.5,5.1-7.8,5.1s-7.8-2.3-7.8-5.1"/>
		<path class="st12" d="M3025.4,143.7c0,2.8-3.5,5.1-7.8,5.1s-7.8-2.3-7.8-5.1"/>
		<path class="st12" d="M3040.9,143.7c0,2.8-3.5,5.1-7.8,5.1s-7.8-2.3-7.8-5.1"/>
		<path class="st12" d="M3056.4,143.7c0,2.8-3.5,5.1-7.8,5.1s-7.8-2.3-7.8-5.1"/>
	</g>
	<g>
		<path class="st12" d="M3217.4,167.4c0,2.8-3.5,5.1-7.8,5.1s-7.8-2.3-7.8-5.1"/>
		<path class="st12" d="M3232.9,167.4c0,2.8-3.5,5.1-7.8,5.1s-7.8-2.3-7.8-5.1"/>
		<path class="st12" d="M3248.4,167.4c0,2.8-3.5,5.1-7.8,5.1s-7.8-2.3-7.8-5.1"/>
		<path class="st12" d="M3263.9,167.4c0,2.8-3.5,5.1-7.8,5.1s-7.8-2.3-7.8-5.1"/>
	</g>
	<g>
		<g>
			<g>
				<rect x="3016.4" y="228.1" class="st14" width="45.1" height="30.9"/>
				<line class="st12" x1="3039" y1="228.1" x2="3039" y2="258.9"/>
				<line class="st12" x1="3039" y1="239" x2="3061.5" y2="239"/>
			</g>
			<g>
				<rect x="3090.6" y="228.1" class="st14" width="45.1" height="30.9"/>
				<line class="st12" x1="3113.1" y1="228.1" x2="3113.1" y2="258.9"/>
				<line class="st12" x1="3113.1" y1="239" x2="3135.7" y2="239"/>
			</g>
			<g>
				<rect x="3164.7" y="228.1" class="st14" width="45.1" height="30.9"/>
				<line class="st12" x1="3187.3" y1="228.1" x2="3187.3" y2="258.9"/>
				<line class="st12" x1="3187.3" y1="239" x2="3209.8" y2="239"/>
			</g>
			<g>
				<rect x="3238.9" y="228.1" class="st14" width="45.1" height="30.9"/>
				<line class="st12" x1="3261.5" y1="228.1" x2="3261.5" y2="258.9"/>
				<line class="st12" x1="3261.5" y1="239" x2="3284" y2="239"/>
			</g>
		</g>
		<g>
			<g>
				<rect x="3016.4" y="289.8" class="st14" width="45.1" height="30.9"/>
				<line class="st12" x1="3039" y1="289.8" x2="3039" y2="320.7"/>
				<line class="st12" x1="3039" y1="300.8" x2="3061.5" y2="300.8"/>
			</g>
			<g>
				<rect x="3090.6" y="289.8" class="st14" width="45.1" height="30.9"/>
				<line class="st12" x1="3113.1" y1="289.8" x2="3113.1" y2="320.7"/>
				<line class="st12" x1="3113.1" y1="300.8" x2="3135.7" y2="300.8"/>
			</g>
			<g>
				<rect x="3164.7" y="289.8" class="st14" width="45.1" height="30.9"/>
				<line class="st12" x1="3187.3" y1="289.8" x2="3187.3" y2="320.7"/>
				<line class="st12" x1="3187.3" y1="300.8" x2="3209.8" y2="300.8"/>
			</g>
			<g>
				<rect x="3238.9" y="289.8" class="st14" width="45.1" height="30.9"/>
				<line class="st12" x1="3261.5" y1="289.8" x2="3261.5" y2="320.7"/>
				<line class="st12" x1="3261.5" y1="300.8" x2="3284" y2="300.8"/>
			</g>
		</g>
		<g>
			<g>
				<rect x="3016.4" y="351.5" class="st14" width="45.1" height="30.9"/>
				<line class="st12" x1="3039" y1="351.5" x2="3039" y2="382.4"/>
				<line class="st12" x1="3039" y1="362.5" x2="3061.5" y2="362.5"/>
			</g>
			<g>
				<rect x="3090.6" y="351.5" class="st14" width="45.1" height="30.9"/>
				<line class="st12" x1="3113.1" y1="351.5" x2="3113.1" y2="382.4"/>
				<line class="st12" x1="3113.1" y1="362.5" x2="3135.7" y2="362.5"/>
			</g>
			<g>
				<rect x="3164.7" y="351.5" class="st14" width="45.1" height="30.9"/>
				<line class="st12" x1="3187.3" y1="351.5" x2="3187.3" y2="382.4"/>
				<line class="st12" x1="3187.3" y1="362.5" x2="3209.8" y2="362.5"/>
			</g>
			<polyline class="st14" points="3244.6,382.4 3238.9,382.4 3238.9,351.5 3249.2,351.5 			"/>
		</g>
	</g>
	<g>
		<g>
			<g>
				<rect x="2395.8" y="230.2" class="st14" width="45.1" height="30.9"/>
				<line class="st12" x1="2418.4" y1="230.2" x2="2418.4" y2="261.1"/>
				<line class="st12" x1="2418.4" y1="241.2" x2="2440.9" y2="241.2"/>
			</g>
			<g>
				<rect x="2470" y="230.2" class="st14" width="45.1" height="30.9"/>
				<line class="st12" x1="2492.5" y1="230.2" x2="2492.5" y2="261.1"/>
				<line class="st12" x1="2492.5" y1="241.2" x2="2515.1" y2="241.2"/>
			</g>
			<g>
				<rect x="2544.2" y="230.2" class="st14" width="45.1" height="30.9"/>
				<line class="st12" x1="2566.7" y1="230.2" x2="2566.7" y2="261.1"/>
				<line class="st12" x1="2566.7" y1="241.2" x2="2589.2" y2="241.2"/>
			</g>
			<g>
				<rect x="2618.3" y="230.2" class="st14" width="45.1" height="30.9"/>
				<line class="st12" x1="2640.9" y1="230.2" x2="2640.9" y2="261.1"/>
				<line class="st12" x1="2640.9" y1="241.2" x2="2663.4" y2="241.2"/>
			</g>
		</g>
		<g>
			<g>
				<rect x="2395.8" y="292" class="st14" width="45.1" height="30.9"/>
				<line class="st12" x1="2418.4" y1="292" x2="2418.4" y2="322.8"/>
				<line class="st12" x1="2418.4" y1="302.9" x2="2440.9" y2="302.9"/>
			</g>
			<g>
				<rect x="2470" y="292" class="st14" width="45.1" height="30.9"/>
				<line class="st12" x1="2492.5" y1="292" x2="2492.5" y2="322.8"/>
				<line class="st12" x1="2492.5" y1="302.9" x2="2515.1" y2="302.9"/>
			</g>
			<g>
				<rect x="2544.2" y="292" class="st14" width="45.1" height="30.9"/>
				<line class="st12" x1="2566.7" y1="292" x2="2566.7" y2="322.8"/>
				<line class="st12" x1="2566.7" y1="302.9" x2="2589.2" y2="302.9"/>
			</g>
			<g>
				<rect x="2618.3" y="292" class="st14" width="45.1" height="30.9"/>
				<line class="st12" x1="2640.9" y1="292" x2="2640.9" y2="322.8"/>
				<line class="st12" x1="2640.9" y1="302.9" x2="2663.4" y2="302.9"/>
			</g>
		</g>
		<g>
			<g>
				<rect x="2474.5" y="353.7" class="st14" width="40.6" height="30.9"/>
				<line class="st12" x1="2492.5" y1="353.7" x2="2492.5" y2="384.6"/>
				<line class="st12" x1="2492.5" y1="364.7" x2="2515.1" y2="364.7"/>
			</g>
			<g>
				<rect x="2544.2" y="353.7" class="st14" width="45.1" height="30.9"/>
				<line class="st12" x1="2566.7" y1="353.7" x2="2566.7" y2="384.6"/>
				<line class="st12" x1="2566.7" y1="364.7" x2="2589.2" y2="364.7"/>
			</g>
			<g>
				<rect x="2618.3" y="353.7" class="st14" width="45.1" height="30.9"/>
				<line class="st12" x1="2640.9" y1="353.7" x2="2640.9" y2="384.6"/>
				<line class="st12" x1="2640.9" y1="364.7" x2="2663.4" y2="364.7"/>
			</g>
		</g>
	</g>
	<g>
		<line class="st12" x1="3139.6" y1="401.2" x2="3225.9" y2="401.2"/>
		<line class="st12" x1="3139.6" y1="408.9" x2="3225.9" y2="408.9"/>
		<line class="st12" x1="3132.7" y1="419.7" x2="3232.9" y2="419.7"/>
		<line class="st12" x1="3148.6" y1="395.1" x2="3148.6" y2="438.7"/>
		<line class="st12" x1="3217" y1="395.1" x2="3217" y2="438.7"/>
	</g>
	<g>
		<g>
			<path class="st12" d="M3088.7,412.2c-0.5,0-1,0-1.5,0.1c0,0,0-0.1,0-0.1c0-8.2-6.7-14.9-14.9-14.9s-14.9,6.7-14.9,14.9
				c0,0.5,0,1,0.1,1.5c-0.6-0.2-1.2-0.3-1.8-0.3c-3.6,0-6.5,2.9-6.5,6.5c0,0.7,0.1,1.4,0.3,2c-3.6,1-6.2,4.3-6.2,8.2
				c0,4.7,3.8,8.6,8.6,8.6h36.8c7.3,0,13.3-5.9,13.3-13.3C3101.9,418.1,3096,412.2,3088.7,412.2z"/>
			<path class="st12" d="M3050.1,434.1c-1.6-2.3-1.1-5.5,1.2-7.1"/>
			<path class="st12" d="M3063.2,412.9c0-5.8,4.7-10.4,10.4-10.4"/>
		</g>
		<g>
			<path class="st12" d="M2591.2,412.2c0.5,0,1,0,1.5,0.1c0,0,0-0.1,0-0.1c0-8.2,6.7-14.9,14.9-14.9c8.2,0,14.9,6.7,14.9,14.9
				c0,0.5,0,1-0.1,1.5c0.6-0.2,1.2-0.3,1.8-0.3c3.6,0,6.5,2.9,6.5,6.5c0,0.7-0.1,1.4-0.3,2c3.6,1,6.2,4.3,6.2,8.2
				c0,4.7-3.8,8.6-8.6,8.6h-36.8c-7.3,0-13.3-5.9-13.3-13.3C2577.9,418.1,2583.8,412.2,2591.2,412.2z"/>
			<path class="st12" d="M2628.4,433.7c1.6-2.3,1.1-5.5-1.2-7.1"/>
			<path class="st12" d="M2615.5,412c0-5.8-4.7-10.4-10.4-10.4"/>
		</g>
	</g>
	<line class="st12" x1="2839.9" y1="332.7" x2="2839.9" y2="438.7"/>
	<g>
		<line class="st12" x1="2829.2" y1="377.3" x2="2829.2" y2="394.1"/>
		<line class="st12" x1="2850.6" y1="377.3" x2="2850.6" y2="394.1"/>
	</g>
	<line class="st12" x1="2809.1" y1="340.7" x2="2801.2" y2="348.6"/>
	<line class="st12" x1="2817.3" y1="340.4" x2="2800.9" y2="356.8"/>
	<line class="st12" x1="2870.1" y1="432.2" x2="2878.1" y2="424.3"/>
	<line class="st12" x1="2861.9" y1="432.5" x2="2878.3" y2="416.1"/>
	<g>
		<path class="st12" d="M3363.6,381.7c0,23.2-9.9,30.6-22,30.6c-12.2,0-22-7.5-22-30.6c0-23.2,9.9-53.3,22-53.3
			C3353.8,328.4,3363.6,358.5,3363.6,381.7z"/>
		<path class="st12" d="M3350.6,348.8c1.8,4.8,3.3,10.4,4.4,16.1c1,5.7,1.6,11.5,1.6,16.8"/>
		<line class="st12" x1="3341.6" y1="379.1" x2="3341.6" y2="438.7"/>
		<line class="st12" x1="3341.6" y1="389.8" x2="3333.6" y2="384.1"/>
		<line class="st12" x1="3342.1" y1="403.4" x2="3350.1" y2="394"/>
	</g>
	<g>
		<path class="st12" d="M3288.7,381.7c0,23.2-9.9,30.6-22,30.6c-12.2,0-22-7.5-22-30.6c0-23.2,9.9-53.3,22-53.3
			C3278.8,328.4,3288.7,358.5,3288.7,381.7z"/>
		<path class="st12" d="M3275.7,348.8c1.8,4.8,3.3,10.4,4.4,16.1c1,5.7,1.6,11.5,1.6,16.8"/>
		<line class="st12" x1="3266.6" y1="379.1" x2="3266.6" y2="438.7"/>
		<line class="st12" x1="3266.6" y1="389.8" x2="3258.6" y2="384.1"/>
		<line class="st12" x1="3267.1" y1="403.4" x2="3275.1" y2="394"/>
	</g>
	<g>
		<g>
			<path class="st12" d="M2320.8,427h-17.3v-72.4h135v35.3h21c2.6,0,4.8,2.1,4.8,4.8V427h-25.4"/>
			<line class="st12" x1="2415.3" y1="427" x2="2344.3" y2="427"/>
			<circle class="st12" cx="2427.1" cy="427" r="11.8"/>
			<circle class="st12" cx="2332.6" cy="427" r="11.8"/>
			<path class="st12" d="M2332.6,430.5c-2,0-3.5-1.6-3.5-3.5s1.6-3.5,3.5-3.5s3.5,1.6,3.5,3.5S2334.5,430.5,2332.6,430.5z"/>
			<path class="st12" d="M2427.1,430.5c-2,0-3.5-1.6-3.5-3.5s1.6-3.5,3.5-3.5c2,0,3.5,1.6,3.5,3.5S2429,430.5,2427.1,430.5z"/>
			<rect x="2373" y="366.6" class="st12" width="25.1" height="60.4"/>
			<rect x="2407.2" y="366.6" class="st14" width="19.9" height="19.9"/>
			<rect x="2310.9" y="366.6" class="st12" width="53.3" height="19.9"/>
			<rect x="2310.9" y="366.6" class="st14" width="19.9" height="19.9"/>
			<rect x="2344.3" y="366.6" class="st14" width="19.9" height="19.9"/>
			<line class="st12" x1="2310.9" y1="396.8" x2="2364.2" y2="396.8"/>
			<line class="st12" x1="2310.9" y1="405.4" x2="2364.2" y2="405.4"/>
			<rect x="2455.1" y="396.8" class="st12" width="9.1" height="9.6"/>
		</g>
		<line class="st12" x1="2437.4" y1="421.4" x2="2464.3" y2="421.4"/>
		<line class="st12" x1="2303.5" y1="421.4" x2="2322.2" y2="421.4"/>
		<line class="st12" x1="2385.6" y1="366.6" x2="2385.6" y2="427"/>
	</g>
	<line class="st12" x1="2832" y1="97.8" x2="2832" y2="6.1"/>
	<path class="st12" d="M2832,10.4c26.9-26.9,56.6,26.5,83.1,0v47.2c-26.5,26.5-56.2-26.9-83.1,0V10.4z"/>
	<path class="st12" d="M2907.1,54c-2.8,2.2-5.7,3.2-9.1,3.2c-6.1,0-13.2-3.4-20.8-6.9c-8.8-4.2-18-8.5-27.8-8.5"/>
</g>
<path class="st16" d="M5667.1,525.8v35.5H0l0-47.6C1915.8,474.8,3744.3,487.2,5667.1,525.8z"/>
<path class="st17" d="M1277,408.8c51.5-29.9,116.9,34.1,116.9,34.1s17-22.9,51-21.3c38.1,1.9,56.1,31.1,56.1,31.1
	s31.9-21.1,61.3-22.6c34.5-1.8,42.6,22.3,42.6,22.3s-94.9,34.5-182.2,29.2c-87.3-5.3-288.5,4.4-288.5,4.4l126.1-67.6
	C1265.9,415.3,1271.4,412,1277,408.8z"/>
<path class="st18" d="M1879,469.3c-10.2,5.1-0.6-18,9.4-13.7C1898.4,459.9,1888.4,464.6,1879,469.3z"/>
<path class="st18" d="M1687.4,479.2c-22.3-11.7-20.5-23.1,10-16.8C1727.8,468.7,1687.4,479.2,1687.4,479.2z"/>
<path class="st19" d="M5667.1,486.2v75.9c-940.3-42-3769-80.7-5667.1-0.8v-75.1C1915.8,421.4,3744.3,421.8,5667.1,486.2z"/>
<g>
	<g>
		<g>
			<g>
				<g>
					<g>
						<g>
							<path class="st11" d="M3577.5,537.9c0,0,0.3-1.9-2-4.8c-2.3-2.9-9.9-2.9-9.9-2.9s5.2-12.6-2.3-17.6c-7-4.7-15.9,0.1-15.9,0.1
								s0.8-10-7.5-11.9c-8.3-1.8-13.2,4.8-13.2,4.8c-9,10.5-8,21.4,0.2,32.5L3577.5,537.9z"/>
						</g>
					</g>
					<g>
						<g>
							<path class="st11" d="M3540.4,537.9c-0.1,0-0.1,0-0.2-0.1c-0.1-0.1-11.1-11-6.7-22.2c0-0.1,0.2-0.2,0.3-0.1
								c0.1,0,0.2,0.2,0.1,0.3c-4.3,11,6.5,21.6,6.6,21.7c0.1,0.1,0.1,0.2,0,0.3C3540.6,537.9,3540.5,537.9,3540.4,537.9z"/>
						</g>
					</g>
					<g>
						<g>
							<path class="st11" d="M3547.1,537.7c-0.1,0-0.2-0.1-0.2-0.2c0-0.1-0.8-8.7,4.2-16.4c0.1-0.1,0.2-0.1,0.3-0.1
								c0.1,0.1,0.1,0.2,0.1,0.3c-5,7.5-4.2,16-4.2,16.1C3547.4,537.6,3547.3,537.7,3547.1,537.7
								C3547.2,537.7,3547.2,537.7,3547.1,537.7z"/>
						</g>
					</g>
					<g>
						<g>
							<path class="st11" d="M3547.5,531.6c-0.1,0-0.2-0.1-0.2-0.2c0-0.1,0.1-0.2,0.2-0.3c0,0,4.7-0.8,7.9-6
								c0.1-0.1,0.2-0.1,0.3-0.1c0.1,0.1,0.1,0.2,0.1,0.3C3552.4,530.8,3547.7,531.6,3547.5,531.6
								C3547.5,531.6,3547.5,531.6,3547.5,531.6z"/>
						</g>
					</g>
					<g>
						<g>
							<path class="st11" d="M3533.4,525.9C3533.4,525.9,3533.3,525.9,3533.4,525.9c-0.1,0-6.4-0.8-6.4-7.7c0-0.1,0.1-0.2,0.2-0.2
								c0,0,0,0,0,0c0.1,0,0.2,0.1,0.2,0.2c0,6.5,5.8,7.2,6,7.2c0.1,0,0.2,0.1,0.2,0.3C3533.6,525.8,3533.5,525.9,3533.4,525.9z"/>
						</g>
					</g>
				</g>
				<g>
					<g>
						<path class="st11" d="M3535.8,503.7c-0.2-1.9,2.4-1.1,2.7-0.1C3538.8,504.6,3535.9,504.6,3535.8,503.7z"/>
					</g>
				</g>
				<g>
					<g>
						<path class="st11" d="M3550.1,513.6c1.5-2,3.4-0.8,3,0.4C3552.7,515.1,3549.3,514.7,3550.1,513.6z"/>
					</g>
				</g>
				<g>
					<g>
						<path class="st11" d="M3563.3,530.2c-2.2,0.2-0.3-2.4,0.8-2.1C3565.3,528.3,3564.2,530.1,3563.3,530.2z"/>
					</g>
				</g>
				<g>
					<g>
						<path class="st11" d="M3522.6,522.6c-2,0.5-0.9,3.2,0.6,2.9C3524.7,525.3,3523.4,522.4,3522.6,522.6z"/>
					</g>
				</g>
			</g>
		</g>
	</g>
</g>
<g>
	<g>
		<g>
			<g>
				<g>
					<g>
						<g>
							<path class="st11" d="M2487.5,536c0,0-0.2-1.2,1.3-3.1s6.3-1.8,6.3-1.8s-3.3-8.1,1.5-11.3c4.5-3,10.2,0.1,10.2,0.1
								s-0.5-6.4,4.8-7.6c5.3-1.2,8.5,3.1,8.5,3.1c5.8,6.7,5.1,13.7-0.1,20.8L2487.5,536z"/>
						</g>
					</g>
					<g>
						<g>
							<path class="st11" d="M2511.2,536c0,0,0.1,0,0.1,0c0.1-0.1,7.1-7,4.3-14.2c0-0.1-0.1-0.1-0.2-0.1c-0.1,0-0.1,0.1-0.1,0.2
								c2.7,7-4.2,13.8-4.2,13.9c-0.1,0.1-0.1,0.1,0,0.2C2511.1,536,2511.1,536,2511.2,536z"/>
						</g>
					</g>
					<g>
						<g>
							<path class="st11" d="M2506.9,535.9c0.1,0,0.1-0.1,0.1-0.1c0-0.1,0.5-5.6-2.7-10.5c0-0.1-0.1-0.1-0.2,0c-0.1,0-0.1,0.1,0,0.2
								c3.2,4.8,2.7,10.2,2.7,10.3C2506.7,535.8,2506.8,535.9,2506.9,535.9C2506.9,535.9,2506.9,535.9,2506.9,535.9z"/>
						</g>
					</g>
					<g>
						<g>
							<path class="st11" d="M2506.6,532c0.1,0,0.1-0.1,0.1-0.1c0-0.1,0-0.2-0.1-0.2c0,0-3-0.5-5.1-3.9c0-0.1-0.1-0.1-0.2,0
								c-0.1,0-0.1,0.1,0,0.2C2503.5,531.5,2506.5,532,2506.6,532C2506.6,532,2506.6,532,2506.6,532z"/>
						</g>
					</g>
					<g>
						<g>
							<path class="st11" d="M2515.7,528.3C2515.7,528.3,2515.7,528.3,2515.7,528.3c0.1,0,4.1-0.5,4.1-4.9c0-0.1-0.1-0.1-0.1-0.1
								c0,0,0,0,0,0c-0.1,0-0.1,0.1-0.1,0.1c0,4.2-3.7,4.6-3.8,4.6c-0.1,0-0.1,0.1-0.1,0.2C2515.6,528.3,2515.6,528.3,2515.7,528.3z
								"/>
						</g>
					</g>
				</g>
				<g>
					<g>
						<path class="st11" d="M2514.1,514.1c0.1-1.2-1.6-0.7-1.7-0.1C2512.2,514.7,2514.1,514.7,2514.1,514.1z"/>
					</g>
				</g>
				<g>
					<g>
						<path class="st11" d="M2505,520.5c-1-1.3-2.2-0.5-1.9,0.2C2503.3,521.4,2505.5,521.1,2505,520.5z"/>
					</g>
				</g>
				<g>
					<g>
						<path class="st11" d="M2496.5,531.1c1.4,0.1,0.2-1.6-0.5-1.4C2495.2,529.9,2495.9,531,2496.5,531.1z"/>
					</g>
				</g>
				<g>
					<g>
						<path class="st11" d="M2522.6,526.2c1.3,0.4,0.6,2-0.4,1.9C2521.2,528,2522.1,526.1,2522.6,526.2z"/>
					</g>
				</g>
			</g>
		</g>
	</g>
</g>
<path class="st20" d="M2856.6,489c0,2.9-8.9,5.3-20,5.3s-20-2.4-20-5.3c0-2.9,8.9-5.3,20-5.3S2856.6,486.1,2856.6,489z"/>
<path class="st20" d="M1559.7,496.9c0,2.1-6.8,3.8-15.2,3.8c-8.4,0-15.2-1.7-15.2-3.8c0-2.1,6.8-3.8,15.2-3.8
	C1552.9,493.1,1559.7,494.8,1559.7,496.9z"/>
<path class="st21" d="M1697.4,471.3c0,1-4.5,1.8-10,1.8c-5.5,0-10-0.8-10-1.8c0-1,4.5-1.8,10-1.8
	C1692.9,469.5,1697.4,470.3,1697.4,471.3z"/>
<path class="st20" d="M3866.7,485.3c0,5.6-24.8,10.1-55.3,10.1c-30.6,0-55.3-4.5-55.3-10.1c0-5.6,24.8-10.1,55.3-10.1
	C3841.9,475.2,3866.7,479.7,3866.7,485.3z"/>
<ellipse class="st20" cx="3695" cy="489.9" rx="19.9" ry="7"/>
<ellipse class="st20" cx="2985" cy="485.3" rx="34" ry="7.6"/>
</svg>
