<svg width="500" height="500" viewBox="0 0 500 500" fill="none" xmlns="http://www.w3.org/2000/svg">
<path d="M441.2 404.6C440 404.6 439 405.1 438.2 405.8C437.4 403.3 435 401.5 432.2 401.5C430.1 401.5 428.2 402.5 427.1 404.1C425.8 401.8 423.3 400.2 420.5 400.2C417 400.2 414.1 402.5 413.2 405.7C412.4 405 411.4 404.5 410.3 404.5C407.9 404.5 406 406.4 406 408.8C406 411.2 407.9 413.1 410.3 413.1C411.7 413.1 413 412.4 413.8 411.3C415.1 413.7 417.6 415.4 420.5 415.4C423.4 415.4 425.8 413.8 427.1 411.5C428.2 413.1 430.1 414.1 432.2 414.1C434.5 414.1 436.5 412.9 437.6 411.1C438.4 412.3 439.7 413.1 441.2 413.1C443.6 413.1 445.5 411.2 445.5 408.8C445.5 406.5 443.6 404.6 441.2 404.6Z" fill="#E7E5E4"/>
<path d="M443 410.2C442.3 410.2 441.6 410.4 441.1 410.8C440.1 408.7 437.9 407.2 435.4 407.2C433.2 407.2 431.3 408.3 430.2 409.9C429.5 409.4 428.6 409.1 427.7 409.1C425.3 409.1 423.3 411.1 423.3 413.5C423.3 415.9 425.3 417.9 427.7 417.9C428.7 417.9 429.5 417.6 430.2 417.1C431.3 418.8 433.2 419.8 435.4 419.8C437.9 419.8 440.1 418.3 441.1 416.2C441.6 416.6 442.3 416.8 443 416.8C444.8 416.8 446.3 415.3 446.3 413.5C446.2 411.6 444.8 410.2 443 410.2Z" fill="#E7E5E4"/>
<path d="M350.2 416.2C349.6 416.2 349.1 416.4 348.7 416.8C348.3 415.6 347.1 414.7 345.7 414.7C344.7 414.7 343.7 415.2 343.2 416C342.6 414.8 341.3 414 339.9 414C338.2 414 336.7 415.2 336.3 416.8C335.9 416.4 335.4 416.2 334.8 416.2C333.6 416.2 332.7 417.2 332.7 418.3C332.7 419.5 333.7 420.4 334.8 420.4C335.5 420.4 336.2 420 336.5 419.5C337.1 420.7 338.4 421.6 339.9 421.6C341.3 421.6 342.6 420.8 343.2 419.6C343.8 420.4 344.7 420.9 345.7 420.9C346.8 420.9 347.8 420.3 348.4 419.4C348.8 420 349.4 420.4 350.2 420.4C351.4 420.4 352.3 419.4 352.3 418.3C352.3 417.1 351.4 416.2 350.2 416.2Z" fill="#E7E5E4"/>
<path d="M483.8 392.7C483.1 392.7 482.4 392.9 481.9 393.3C480.9 391.2 478.7 389.7 476.2 389.7C474 389.7 472.1 390.8 471 392.4C470.3 391.9 469.4 391.6 468.5 391.6C466.1 391.6 464.1 393.6 464.1 396C464.1 398.4 466.1 400.4 468.5 400.4C469.5 400.4 470.3 400.1 471 399.6C472.1 401.3 474 402.3 476.2 402.3C478.7 402.3 480.9 400.8 481.9 398.7C482.4 399.1 483.1 399.3 483.8 399.3C485.6 399.3 487.1 397.8 487.1 396C487.1 394.1 485.6 392.7 483.8 392.7Z" fill="#E7E5E4"/>
<path d="M303.8 396.6C303 396.6 302.3 396.9 301.7 397.3C300.6 394.9 298.1 393.2 295.3 393.2C292.9 393.2 290.7 394.4 289.5 396.3C288.7 395.7 287.7 395.4 286.6 395.4C283.9 395.4 281.7 397.6 281.7 400.3C281.7 403 283.9 405.2 286.6 405.2C287.7 405.2 288.7 404.8 289.5 404.3C290.8 406.2 292.9 407.4 295.3 407.4C298.1 407.4 300.6 405.7 301.7 403.3C302.3 403.7 303 404 303.8 404C305.8 404 307.5 402.4 307.5 400.3C307.5 398.2 305.9 396.6 303.8 396.6Z" fill="#E7E5E4"/>
<path d="M127.4 420.8C126.7 420.8 126.1 421 125.6 421.4C124.7 419.4 122.6 418 120.3 418C118.3 418 116.5 419 115.5 420.6C114.8 420.1 114 419.8 113.1 419.8C110.9 419.8 109 421.6 109 423.9C109 426.2 110.8 428 113.1 428C114 428 114.8 427.7 115.5 427.2C116.6 428.7 118.3 429.8 120.3 429.8C122.7 429.8 124.7 428.4 125.6 426.4C126.1 426.8 126.7 427 127.4 427C129.1 427 130.4 425.6 130.4 424C130.5 422.1 129.1 420.8 127.4 420.8Z" fill="#E7E5E4"/>
<path d="M500 453.1V493.5H250V465.8H259.1V436.2H264.1L267.8 450.9H270.1V435.3H277.5V478.7H283.1V454.5H286V443H289.9V450H295.5V466.9H297.9L299.9 468.9V436.1H306.1V439.8L313.4 445.7V466.5H319.7V437.1L325.5 425.5H329.1L334.7 435.7V470.7H338.7V466.5L340.8 464.4H341.7V446.2H343.1V441.2L346.7 437.8V436V429.2L353.7 421.9V447.9H355.3V459H357.1V420.4H368L373.9 430.7V439.7L376.6 442.4V461.2H379.4V469.6H383V437.5L387.5 435.9V428.4L395.9 424.5V418H404.2V439.8H406.9V465.7H408.9V432.7L414 437.1V444.3H417.9V465.4H422.7V439.4L428.7 432.3H436.1V422.6L447.5 426.8V458.9H449.3V473H451.2V462.4H453V439.7H460.4V461.8H462.5V477.5H466.5V451.3L478.7 444.6V442.9H480.3V431.7L486.6 438.1V424.8H488.2V426.5L492.5 427.6V425.6H494L497.7 453.1H500Z" fill="#D6DCE0"/>
<path d="M5 490.183V494H255V476.948H245.9V458.726H240.9L237.2 467.776H234.9V458.172H227.5V484.889H221.9V469.992H219V462.912H215.1V467.222H209.5V477.625H207.1L205.1 478.856V458.665H198.9V460.943L191.6 464.575V477.379H185.3V459.28L179.5 452.14H175.9L170.3 458.419V479.964H166.3V477.379L164.2 476.086H163.3V464.882H161.9V461.804L158.3 459.711V458.603V454.417L151.3 449.923V465.929H149.7V472.762H147.9V449H137L131.1 455.341V460.881L128.4 462.543V474.116H125.6V479.287H122V459.527L117.5 458.542V453.925L109.1 451.524V475.347H100.8V460.943H98.1V476.886H96.1V456.572L91 459.28V463.713H87.1V476.702H82.3V460.696L76.3 456.326L68.9 462.543V456.572L57.5 459.157V478.918H55.7V487.598H53.8V481.073H52V467.098H44.6V480.703H42.5V490.368H38.5V474.239L26.3 484.951V483.904H24.7V477.01C24.7 477.01 19.8506 478.984 18.4 480.949C16.6555 483.313 18.4 487.598 18.4 487.598C18.4 487.598 17.255 487.334 16.8 487.598C16.3166 487.878 16.8 488.644 16.8 488.644L12.5 489.321V488.09H11L7.3 490.183H5Z" fill="#D6DCE0"/>
<path d="M354.5 475.8C354.5 475.8 364.3 478.4 364.6 468C364.8 459.8 378.5 458.5 377.2 445.2C376.1 433 368.2 435.8 363.3 428.7C358.4 421.6 352.7 420.9 348.4 422.1C344.4 423.3 341.4 426.8 340.7 432C340.1 436.1 339 437.7 333.6 439.8C328.2 441.9 327.7 447.9 333.6 452.1C339.5 456.3 334.4 464.6 338.1 468.8C341.8 472.9 345.1 468.8 345.5 471.9C346 475.2 352.1 477.4 354.5 475.8Z" fill="#D4D4D4"/>
<path d="M353 494.7C353 494.7 353.5 485.8 353 480.8C352.5 475.8 352.7 464.8 353.2 461.6C353.7 458.4 349.1 454.5 347.3 447.1C347.3 447.1 346.9 445.3 347.3 445.7C347.7 446.1 348.5 449.3 348.8 449.8C349.1 450.3 351.4 454.6 351.9 455.1C352.4 455.6 353.6 458.8 354.1 458.3C354.6 457.8 355.4 456.4 355.6 454.7C355.8 453.1 356.7 449.6 357 448.5C357.3 447.4 358.2 444.6 359.2 443.8C359.2 443.8 359.9 443.3 359.2 444.7C358.5 446.1 358 448.3 357.7 449.3C357.4 450.3 357.3 453.7 356.7 455.2C356.1 456.8 356.8 458.8 355.6 460.7C354.5 462.4 354.4 467.6 354.5 469.7C354.6 471.9 354.5 479.5 355 481.4C355.4 483.3 356 494 356.6 494.8H353V494.7Z" fill="#7C5833"/>
<path d="M363.3 428.7C362.6 427.7 361.9 426.9 361.2 426.1C361.2 426.2 361.7 433.1 369.7 436.4C377.8 439.7 373.4 456.1 366.1 457.4C358.8 458.8 365.3 474.2 357.8 476C360.7 475.8 364.3 474.2 364.5 468C364.7 459.8 378.4 458.5 377.1 445.2C376.1 433 368.2 435.8 363.3 428.7Z" fill="#D4D4D4"/>
<path d="M360 425C356 421.4 351.8 421.2 348.4 422.2C344.4 423.4 341.4 426.9 340.7 432.1C340.1 436.2 339 437.8 333.6 439.9C328.2 442 327.7 448 333.6 452.2C339.5 456.4 334.4 464.7 338.1 468.9C340.6 471.6 342.8 470.7 344.2 470.7C337.3 468.9 341.5 463.4 343.1 456.9C344.7 450.4 335.1 445.7 340.9 442C347.2 438 343.4 432.4 346.1 427.2C349.7 420.4 359.7 424.9 360 425Z" fill="#D4D4D4"/>
<path d="M484.2 499.5C488 499.5 491.7 499.5 495.5 499.5C495.8 498.5 495.3 497.4 494.5 497.1C493.8 496.8 493.1 497 492.5 497.5C492.6 496 491.7 494.7 490.5 494.4C489 494 487.2 495.2 487 497.2C486.3 496.8 485.4 496.9 484.8 497.4C484.2 498 484 498.8 484.2 499.5Z" fill="#D4D4D4"/>
<path d="M484.8 498C485.4 497.5 486.3 497.4 487 497.8C487.2 495.8 489 494.7 490.5 495C491.7 495.3 492.6 496.6 492.5 498.1C493.1 497.6 493.9 497.4 494.5 497.7C495.1 497.9 495.5 498.5 495.6 499.2C495.7 498.3 495.3 497.4 494.5 497.1C493.8 496.8 493.1 497 492.5 497.5C492.6 496 491.7 494.7 490.5 494.4C489 494 487.2 495.2 487 497.2C486.3 496.8 485.4 496.9 484.8 497.4C484.3 497.8 484.1 498.5 484.2 499.1C484.2 498.7 484.4 498.3 484.8 498Z" fill="#292524"/>
<path d="M494.5 497.1C494.3 497 494.1 497 493.9 497C494.2 497.5 494.4 498.1 493.7 498.3C492.7 498.6 486.8 498.6 484.1 498.6C484.1 498.9 484.1 499.2 484.2 499.5C488 499.5 491.7 499.5 495.5 499.5C495.9 498.5 495.4 497.5 494.5 497.1Z" fill="#A8A29E"/>
<path d="M417.8 457.2C417.8 457.2 421.6 460.9 424.6 456.1C427.6 451.3 421.5 443.8 426.6 439.3C431.7 434.8 441.9 426.9 435.4 422C423.4 413 435.5 400.8 418.4 405.8C405.6 409.5 403.5 400.6 396.7 415.5C389.9 430.5 403.4 430.2 401.1 436.3C398.7 442.4 395.7 445 400.9 449.5C406 454 405.2 465.2 417.8 457.2Z" fill="#D4D4D4"/>
<path d="M398.5 412.1C404 402.3 406.9 409.4 418.4 406C435.5 401 423.3 413.2 435.4 422.2C441.9 427.1 431.7 435 426.6 439.5C421.5 444 427.5 451.5 424.6 456.3C422.8 459.2 420.7 459 419.3 458.3C419.1 458 418.9 457.7 418.8 457.3C412.9 442.9 435.9 430.3 429.7 426.7C423.5 423.1 427.8 414.1 424.9 409.3C422 404.5 412.9 412.2 407.3 410C403.1 408.3 399.9 410.7 398.5 412.1Z" fill="#D4D4D4"/>
<path d="M412.2 443.7C412.1 443.3 412.1 443 412.2 443.3C412.2 443.5 412.2 443.6 412.2 443.7Z" fill="#273D5D"/>
<path d="M423.4 467.7C422.7 470.4 423 471.1 422.8 473.5C422.6 475.9 422.6 478.4 422.5 479.6C422.4 480.8 423 482 422.3 484.1C421.6 486.1 420.9 491.4 421 495.5L421.3 497.9L416.9 497.7C416.9 497.7 416 496.4 416.8 490.2C416.9 489.1 418.3 488.3 418.3 486.8C418.4 485.3 418.4 484.1 418.3 483.6C418.2 483.1 416.2 481.2 416.4 478.3C416.6 475.3 416.1 470 416.1 467.4C416.1 464.8 416.5 463.2 415.8 461.2C415.1 459.2 415.6 456.2 415.6 456.2C415.6 456.2 415.4 455.3 415 454.6C414.6 454.5 414.3 454.5 414.3 454.4C414.2 454.3 412.4 453.9 412.2 453.5C412 453.1 411.5 453 411.2 452.7C410.9 452.4 410.4 452.3 410 452.1C409.7 452 408.6 450.8 409 450.8C409.4 450.8 409.8 451 410.5 451.4C411.2 451.8 412 452.1 412.3 452.5C412.5 452.8 413.5 452.7 414 452.6C413.6 451.7 413.1 450.4 412.5 450C411.6 449.3 409.7 446.5 409.3 446.2C408.9 445.9 409.3 445.5 409.3 445.5C409.3 445.5 410.6 447.1 410.7 447.2C410.8 447.4 411.3 447.6 411.5 448.1C411.6 448.3 411.9 448.6 412.3 448.9C412.3 448.8 411.9 448 412.1 447.7C412.2 447.3 411.9 446.2 411.9 445.6C411.9 445.1 412 444.2 412 443.7C412 443.9 412.1 444.2 412.2 444.3C412.5 444.8 412.1 445.3 412.4 446.1C412.7 446.8 412.6 447.3 412.7 448C412.8 448.7 412.4 448.9 412.8 449.4C413 449.6 413.1 449.7 413.2 449.9C413.5 450.5 413.8 450.8 414.2 451.6C414.6 452.4 415.6 453.2 415.6 453.2C415.6 453.2 416.6 453.5 416.2 452C415.8 450.5 415.8 444.7 416 442.8C416.2 440.9 416.7 440.8 416.2 438.7C415.7 436.7 415.6 435 415.3 433.9C415 432.8 415.1 431.5 413.8 430.9C412.5 430.2 409.4 427.7 408.4 427.2C407.5 426.6 406.1 425.7 405.2 425.1C404.3 424.5 405.4 424.3 406.3 425.1C407.2 425.9 407.6 425.4 408.3 426C409 426.6 409.1 426.3 410.6 427.5C412.1 428.7 413.5 429 413.8 429.6C414.1 430.2 415.5 431.7 415.5 430.7C415.6 429.7 416.3 429.3 415.3 428.2C414.4 427.1 413.8 424.6 413.6 424.3C413.3 423.9 412.6 423.3 411.8 422.1C411 420.9 411.4 420.5 410.3 419.9C409.2 419.4 408 416.9 408 416.8C408.1 416.9 411.5 419.4 411.7 420.1C411.9 420.9 413.3 421.6 413.9 422.7C414.4 423.8 415.4 424.9 415.6 425.8C415.9 426.7 416.7 427.9 416.8 425.9C416.9 423.9 417.4 424.1 416.8 421.5C416.1 418.9 415.6 419 416.1 417.1C416.6 415.2 417.5 417.4 417.7 419.6C417.7 419.6 418.2 423.9 417.9 426.5C417.6 429.2 418 437.9 417.9 440.6C417.9 443.4 418.6 446.8 418.5 449.4L417.8 463.4C417.6 467.4 419.1 472.3 419 475.4C418.9 478.6 419.6 480.8 420.4 477.2C421.2 473.7 421.7 471.2 421.5 469.1C421.3 467 421.4 463.3 422 461.6C422.6 459.9 422 455.3 422.5 451.9C423 448.6 423.7 445.4 423.9 443.8C424.1 442.1 424.7 444.7 424.3 446.3C423.9 447.9 424.3 449 424.1 452.5C423.9 456.1 424.2 457.1 423.7 460.5C423.3 464.5 424.2 464.9 423.4 467.7Z" fill="#7C5833"/>
<path d="M395 425C395.6 426.3 396.4 427.6 397.5 428.3C400.6 430.4 405.7 433.1 401.9 439.2C398.1 445.3 403.9 448.1 405.7 453.9C406.9 457.7 409.1 459.5 411.2 459.9C405.2 460.6 404.8 453 400.8 449.5C395.7 445.1 398.7 442.4 401 436.3C402.8 432 396.2 430.9 395 425Z" fill="#E6E6E6"/>
<path d="M402.4 426.4C402.4 426.4 406 431.2 410.3 426C414.5 420.8 422.2 429.5 426.8 419.2C431.4 408.9 422.3 401.7 417.2 405.7C412.1 409.6 413.5 393.7 403.5 398.5C396.3 402 403.5 408.2 400.2 414.5C396.8 420.8 399.3 424.4 402.4 426.4Z" fill="#D4D4D4"/>
<path d="M400.3 414C403.1 407.8 396.4 401.8 403.4 398.5C413.4 393.7 412.1 409.6 417.1 405.7C421.8 402 430 408 427.5 417.1C426.3 413.9 423.6 412.4 421.6 414.1C417.6 417.5 412.6 406.6 409.1 407.8C405.6 409 403.3 402.5 403.3 408.3C403.2 411.9 401.5 413.4 400.3 414Z" fill="#D4D4D4"/>
<path d="M412.3 450.2C412.3 450.2 419.6 448.5 416.1 444.4C412.4 440.2 418 438.9 416.7 436C414.9 431.9 409.2 431.8 407.6 436.3C406.3 440.2 405.2 440.7 401.3 440.3C396.3 439.8 394.7 448.1 400.7 447.9C404.3 447.7 407 455.5 412.3 450.2Z" fill="#D4D4D4"/>
<path d="M401.3 440.3C405.3 440.7 406.3 440.2 407.6 436.3C409.2 431.7 414.9 431.8 416.7 436C417.2 437.2 416.6 438.1 415.9 439.1C414.7 437.6 411.4 435.5 410.5 439.5C409.3 444.5 403.8 440.8 400.2 442.8C397.3 444.4 399.7 446.9 400.8 447.8C394.7 448.1 396.4 439.8 401.3 440.3Z" fill="#D4D4D4"/>
<path d="M413.4 448C413.4 448 413.7 453.4 419.5 451.7C425.3 450 426.6 460.3 435.3 454.9C443.9 449.5 440.7 439.5 434.9 439.9C429.1 440.3 438.1 429 428.2 427.6C421.1 426.6 423.4 434.9 417.7 437.9C412.1 440.9 412.1 444.9 413.4 448Z" fill="#D4D4D4"/>
<path d="M418 437.6C423.2 434.4 421.2 426.5 428.1 427.5C438 428.9 429 440.2 434.8 439.8C440.2 439.4 443.4 448 436.9 453.6C437.6 450.6 436.4 448.1 433.9 448.4C429.2 448.9 430.9 438.3 427.7 437.4C424.5 436.6 426 430.5 423.1 434.8C421.3 437.5 419.3 437.8 418 437.6Z" fill="#D4D4D4"/>
<path d="M356.5 457.9H291.5V496.4H356.5V457.9Z" fill="#A8A29E"/>
<path d="M356.5 474.7H291.5V479.5H356.5V474.7Z" fill="#A8A29E"/>
<path d="M292.5 457.9H291.5V496.4H292.5V457.9Z" fill="#A8A29E"/>
<path d="M305.3 457.9H304.3V496.4H305.3V457.9Z" fill="#A8A29E"/>
<path d="M318.1 457.9H317.1V496.4H318.1V457.9Z" fill="#A8A29E"/>
<path d="M330.9 457.9H329.9V496.4H330.9V457.9Z" fill="#A8A29E"/>
<path d="M343.7 457.9H342.7V496.4H343.7V457.9Z" fill="#A8A29E"/>
<path d="M356.5 457.9H355.5V496.4H356.5V457.9Z" fill="#A8A29E"/>
<path d="M356.5 455.3H289.8V457.9H356.5V455.3Z" fill="#A8A29E"/>
<path d="M302 460.3H294.8V471.7H302V460.3Z" fill="white"/>
<path d="M294.5 460.1V472H302.3V460.1H294.5ZM301.8 471.5H295V463H301.8V471.5ZM301.8 462.4H295V460.5H301.8V462.4Z" fill="white"/>
<path d="M314.7 460.3H307.5V471.7H314.7V460.3Z" fill="white"/>
<path d="M307.2 460.1V472H315V460.1H307.2ZM314.5 471.5H307.8V463H314.5V471.5ZM314.5 462.4H307.8V460.5H314.5V462.4Z" fill="white"/>
<path d="M327.4 460.3H320.2V471.7H327.4V460.3Z" fill="white"/>
<path d="M319.9 460.1V472H327.7V460.1H319.9ZM327.2 471.5H320.4V463H327.2V471.5ZM327.2 462.4H320.4V460.5H327.2V462.4Z" fill="white"/>
<path d="M340.4 460.3H333.2V471.7H340.4V460.3Z" fill="white"/>
<path d="M332.9 460.1V472H340.7V460.1H332.9ZM340.2 471.5H333.4V463H340.2V471.5ZM340.2 462.4H333.4V460.5H340.2V462.4Z" fill="white"/>
<path d="M353.2 460.3H346V471.7H353.2V460.3Z" fill="white"/>
<path d="M345.8 460.1V472H353.6V460.1H345.8ZM353 471.5H346.2V463H353V471.5ZM353 462.4H346.2V460.5H353V462.4Z" fill="white"/>
<path d="M302 482H294.8V493.4H302V482Z" fill="white"/>
<path d="M294.5 481.7V493.6H302.3V481.7H294.5ZM301.8 493.1H295V484.6H301.8V493.1ZM301.8 484.1H295V482.2H301.8V484.1Z" fill="white"/>
<path d="M314.7 482H307.5V493.4H314.7V482Z" fill="white"/>
<path d="M307.2 481.7V493.6H315V481.7H307.2ZM314.5 493.1H307.8V484.6H314.5V493.1ZM314.5 484.1H307.8V482.2H314.5V484.1Z" fill="white"/>
<path d="M327.4 482H320.2V493.4H327.4V482Z" fill="white"/>
<path d="M319.9 481.7V493.6H327.7V481.7H319.9ZM327.2 493.1H320.4V484.6H327.2V493.1ZM327.2 484.1H320.4V482.2H327.2V484.1Z" fill="white"/>
<path d="M340.4 482H333.2V493.4H340.4V482Z" fill="white"/>
<path d="M332.9 481.7V493.6H340.7V481.7H332.9ZM340.2 493.1H333.4V484.6H340.2V493.1ZM340.2 484.1H333.4V482.2H340.2V484.1Z" fill="white"/>
<path d="M353.2 482H346V493.4H353.2V482Z" fill="white"/>
<path d="M345.8 481.7V493.6H353.6V481.7H345.8ZM353 493.1H346.2V484.6H353V493.1ZM353 484.1H346.2V482.2H353V484.1Z" fill="white"/>
<path d="M458.5 457.9H393.5V496.4H458.5V457.9Z" fill="#A8A29E"/>
<path d="M458.5 474.7H393.5V479.5H458.5V474.7Z" fill="#A8A29E"/>
<path d="M394.5 457.9H393.5V496.4H394.5V457.9Z" fill="#A8A29E"/>
<path d="M407.3 457.9H406.3V496.4H407.3V457.9Z" fill="#A8A29E"/>
<path d="M420.1 457.9H419.1V496.4H420.1V457.9Z" fill="#A8A29E"/>
<path d="M432.9 457.9H431.9V496.4H432.9V457.9Z" fill="#A8A29E"/>
<path d="M445.7 457.9H444.7V496.4H445.7V457.9Z" fill="#A8A29E"/>
<path d="M458.5 457.9H457.5V496.4H458.5V457.9Z" fill="#A8A29E"/>
<path d="M460.2 455.3H393.5V457.9H460.2V455.3Z" fill="#A8A29E"/>
<path d="M404 460.3H396.8V471.7H404V460.3Z" fill="white"/>
<path d="M396.6 460.1V472H404.4V460.1H396.6ZM403.8 471.5H397V463H403.8V471.5ZM403.8 462.4H397V460.5H403.8V462.4Z" fill="white"/>
<path d="M416.7 460.3H409.5V471.7H416.7V460.3Z" fill="white"/>
<path d="M409.3 460.1V472H417.1V460.1H409.3ZM416.5 471.5H409.7V463H416.5V471.5ZM416.5 462.4H409.7V460.5H416.5V462.4Z" fill="white"/>
<path d="M429.4 460.3H422.2V471.7H429.4V460.3Z" fill="white"/>
<path d="M422 460.1V472H429.8V460.1H422ZM429.2 471.5H422.4V463H429.2V471.5ZM429.2 462.4H422.4V460.5H429.2V462.4Z" fill="white"/>
<path d="M442.4 460.3H435.2V471.7H442.4V460.3Z" fill="white"/>
<path d="M434.9 460.1V472H442.7V460.1H434.9ZM442.2 471.5H435.4V463H442.2V471.5ZM442.2 462.4H435.4V460.5H442.2V462.4Z" fill="white"/>
<path d="M455.3 460.3H448.1V471.7H455.3V460.3Z" fill="white"/>
<path d="M447.8 460.1V472H455.6V460.1H447.8ZM455.1 471.5H448.3V463H455.1V471.5ZM455.1 462.4H448.3V460.5H455.1V462.4Z" fill="white"/>
<path d="M404 482H396.8V493.4H404V482Z" fill="white"/>
<path d="M396.6 481.7V493.6H404.4V481.7H396.6ZM403.8 493.1H397V484.6H403.8V493.1ZM403.8 484.1H397V482.2H403.8V484.1Z" fill="white"/>
<path d="M416.7 482H409.5V493.4H416.7V482Z" fill="white"/>
<path d="M409.3 481.7V493.6H417.1V481.7H409.3ZM416.5 493.1H409.7V484.6H416.5V493.1ZM416.5 484.1H409.7V482.2H416.5V484.1Z" fill="white"/>
<path d="M429.4 482H422.2V493.4H429.4V482Z" fill="white"/>
<path d="M422 481.7V493.6H429.8V481.7H422ZM429.2 493.1H422.4V484.6H429.2V493.1ZM429.2 484.1H422.4V482.2H429.2V484.1Z" fill="white"/>
<path d="M442.4 482H435.2V493.4H442.4V482Z" fill="white"/>
<path d="M434.9 481.7V493.6H442.7V481.7H434.9ZM442.2 493.1H435.4V484.6H442.2V493.1ZM442.2 484.1H435.4V482.2H442.2V484.1Z" fill="white"/>
<path d="M455.3 482H448.1V493.4H455.3V482Z" fill="white"/>
<path d="M447.8 481.7V493.6H455.6V481.7H447.8ZM455.1 493.1H448.3V484.6H455.1V493.1ZM455.1 484.1H448.3V482.2H455.1V484.1Z" fill="white"/>
<path d="M393.5 443.5H356.5V496.4H393.5V443.5Z" fill="#A8A29E"/>
<path d="M394.7 440.9H355.3V443.5H394.7V440.9Z" fill="#A8A29E"/>
<path d="M384.4 479.6H365.6V496.4H384.4V479.6Z" fill="#A8A29E"/>
<path d="M360.6 443.5H359.6V496.4H360.6V443.5Z" fill="#A8A29E"/>
<path d="M362.7 443.5H361.7V496.4H362.7V443.5Z" fill="#A8A29E"/>
<path d="M388.3 443.5H387.3V496.4H388.3V443.5Z" fill="#A8A29E"/>
<path d="M390.4 443.5H389.4V496.4H390.4V443.5Z" fill="#A8A29E"/>
<path d="M375.3 479.6H374.8V496.4H375.3V479.6Z" fill="white"/>
<path d="M373 481.2H367.5V489.9H373V481.2Z" fill="white"/>
<path d="M367.8 489.6H372.8V481.4H367.8V489.6ZM373.2 490.1H367.2V480.9H373.2V490.1Z" fill="white"/>
<path d="M373 491.6H367.5V494.8H373V491.6Z" fill="white"/>
<path d="M373.2 495H367.2V491.3H373.2V495ZM367.8 494.5H372.8V491.8H367.8V494.5Z" fill="white"/>
<path d="M382.5 481.2H377V489.9H382.5V481.2Z" fill="white"/>
<path d="M377.2 489.6H382.2V481.4H377.2V489.6ZM382.8 490.1H376.8V480.9H382.8V490.1Z" fill="white"/>
<path d="M382.5 491.6H377V494.8H382.5V491.6Z" fill="white"/>
<path d="M382.8 495H376.8V491.3H382.8V495ZM377.2 494.5H382.2V491.8H377.2V494.5Z" fill="white"/>
<path d="M376.1 488H375.7V489.5H376.1V488Z" fill="white"/>
<path d="M374.3 488H373.9V489.5H374.3V488Z" fill="white"/>
<path d="M372.9 460.3H365.7V471.7H372.9V460.3Z" fill="white"/>
<path d="M365.4 460.1V472H373.2V460.1H365.4ZM372.7 471.5H365.9V463H372.7V471.5ZM372.7 462.4H365.9V460.5H372.7V462.4Z" fill="white"/>
<path d="M384.3 460.3H377.1V471.7H384.3V460.3Z" fill="white"/>
<path d="M376.8 460.1V472H384.6V460.1H376.8ZM384.1 471.5H377.3V463H384.1V471.5ZM384.1 462.4H377.3V460.5H384.1V462.4Z" fill="white"/>
<path d="M390.1 447.1H359.9V455.3H390.1V447.1Z" fill="#A8A29E"/>
<path d="M412.1 496.7C415.2 496.7 418.4 496.7 421.5 496.7C421.8 495.9 421.4 495 420.7 494.7C420.2 494.5 419.5 494.6 419 495.1C419.1 493.8 418.3 492.8 417.3 492.5C416.1 492.2 414.6 493.2 414.4 494.8C413.8 494.5 413.1 494.5 412.5 495C412 495.4 411.8 496.1 412.1 496.7Z" fill="#D4D4D4"/>
<path d="M412.5 495.4C413 495 413.8 494.9 414.4 495.2C414.6 493.6 416.1 492.6 417.3 492.9C418.3 493.1 419.1 494.2 419 495.5C419.5 495.1 420.1 494.9 420.7 495.1C421.2 495.3 421.5 495.8 421.6 496.4C421.7 495.7 421.3 494.9 420.7 494.7C420.2 494.5 419.5 494.6 419 495.1C419.1 493.8 418.3 492.8 417.3 492.5C416.1 492.2 414.6 493.2 414.4 494.8C413.8 494.5 413.1 494.5 412.5 495C412.1 495.4 411.9 495.9 412 496.4C412.1 496 412.2 495.7 412.5 495.4Z" fill="#D4D4D4"/>
<path d="M420.6 494.7C420.4 494.6 420.3 494.6 420.1 494.6C420.4 495 420.5 495.5 419.9 495.7C419.1 496 414.2 496 412 496C412 496.2 412 496.5 412.1 496.7C415.2 496.7 418.4 496.7 421.5 496.7C421.7 495.8 421.3 495 420.6 494.7Z" fill="#A8A29E"/>
<path d="M287.1 463.9C287.1 463.9 277.8 471.5 272.6 462C267.5 452.5 258 457.8 260 446.6C262 435.4 273.1 444 275.6 435.2C278 426.5 282 422.9 289.9 424.9C298.7 427.1 292.7 437.6 300.2 440.6C307.7 443.6 312.6 446.6 310.8 451.8C309.1 457.1 299.1 453.6 298.8 458.1C298.5 462.6 292.6 471.6 287.1 463.9Z" fill="#D4D4D4"/>
<path d="M305.3 442.9C303.8 442.1 302.1 441.4 300.2 440.6C292.7 437.6 298.6 427.1 289.9 424.9C282 422.9 278 426.5 275.6 435.3C273.7 442.1 266.6 438.4 262.6 441.7C276.8 446.9 273.6 438.5 279.4 440.3C285.1 442.1 282.9 437.6 287.7 434.5C292.4 431.4 291 437.3 296.6 442.8C300.2 446.3 303.5 444.5 305.3 442.9Z" fill="#D4D4D4"/>
<path d="M310.9 451.9C312.3 447.7 309.4 444.9 304.4 442.5C306.8 445.3 309.7 449.7 306.4 451.9C301.4 455.2 296.1 450.9 294.4 456.4C292.8 462 289.6 462.5 287.2 460.3C284.7 458.1 279.8 467.2 276.3 460.4C274.3 456.5 269.6 455.9 266 456C268.3 457 270.8 458.5 272.7 462C277.8 471.5 287.2 463.9 287.2 463.9C292.8 471.6 298.7 462.7 299 458.2C299.2 453.7 309.1 457.1 310.9 451.9Z" fill="#D4D4D4"/>
<path d="M285.1 495.4C285.1 495.4 285.7 487.3 285.3 482.7C285 478.1 285.3 468 285.8 465.1C286.3 462.2 282.1 458.6 280.7 451.8C280.7 451.8 280.4 450.1 280.7 450.5C281 450.9 281.7 453.8 282 454.3C282.3 454.8 284.3 458.7 284.8 459.2C285.3 459.7 286.3 462.6 286.8 462.2C287.2 461.8 288 460.5 288.2 459C288.4 457.5 289.3 454.3 289.6 453.3C289.9 452.3 290.8 449.8 291.7 449C291.7 449 292.4 448.5 291.7 449.8C291 451.1 290.5 453.1 290.3 454C290 454.9 289.8 458 289.3 459.4C288.7 460.8 289.4 462.7 288.2 464.4C287.2 465.9 287 470.7 287 472.6C287.1 474.6 286.9 481.6 287.2 483.3C287.5 485 287.9 494.9 288.4 495.6L285.1 495.4Z" fill="#7C5833"/>
<path d="M289.1 450.9C289.1 450.9 289.4 456.1 283.7 455.1C278 454.1 277.8 464.1 268.9 459.8C260.1 455.5 262.1 445.6 267.7 445.4C273.3 445.2 263.4 435.3 272.8 432.9C279.5 431.2 278.2 439.3 284 441.7C289.7 444.1 290.1 447.9 289.1 450.9Z" fill="#D4D4D4"/>
<path d="M283.6 441.5C278.3 439 279.4 431.3 272.8 433C263.5 435.4 273.3 445.3 267.7 445.5C262.5 445.7 260.4 454.3 267.2 458.9C266.2 456.1 267.1 453.6 269.5 453.6C274.1 453.6 271.3 443.6 274.3 442.4C277.3 441.2 275.2 435.6 278.4 439.4C280.5 441.7 282.4 441.8 283.6 441.5Z" fill="#D4D4D4"/>
<path d="M287 455C288.6 454.9 290.1 455.4 291.4 456.3C292.5 457.1 294.5 457.6 297.6 456.1C303.5 453.2 298.4 446.3 302.3 444.9C306.2 443.5 303 435.1 294.9 437.8C286.8 440.5 291.9 444.3 284.4 442.6C277.5 441 276 455.5 287 455Z" fill="#D4D4D4"/>
<path d="M294.8 437.8C286.7 440.5 291.8 444.3 284.3 442.6C283.6 442.4 283 442.4 282.4 442.6C282.6 443.4 283.3 444.4 285.5 444.7C289.2 445.2 289.4 447.9 291.3 444.2C293.2 440.5 293.6 443.4 296.6 441.2C299.6 439 300.3 443.2 297.4 445.1C294.7 446.8 300.2 452.4 298 455.7C303 452.7 298.3 446.2 302.1 444.8C306.2 443.5 302.9 435.1 294.8 437.8Z" fill="#D4D4D4"/>
<path d="M277.3 496.7C288.4 496.7 299.4 496.7 310.5 496.7C310.6 495.5 310 494.4 309 493.9C307.9 493.3 306.5 493.4 305.6 494.3C306.3 492.2 305 490.1 303.3 489.6C301.9 489.2 300.2 490 299.4 491.4C298.2 490.1 296.4 489.9 295.5 490.7C294.7 491.3 294.8 492.4 294.8 492.7C294.2 492.6 293.7 493 293.6 493.5C293.5 493.9 293.7 494.3 294 494.5C293.2 493.8 292.1 493.6 291.3 494C290.5 494.3 290.1 495.1 290 495.3C290 495.3 290 494.5 289.3 494C288.8 493.7 288.1 493.7 287.6 494.1C286.8 492.9 285.3 492.4 284.1 492.9C282.8 493.5 282.4 495 282.4 495.1C281.5 494.2 280.1 493.9 279 494.4C277.5 495 277.3 496.6 277.3 496.7Z" fill="#D4D4D4"/>
<path d="M309.1 493.9C308.3 493.4 307.3 493.4 306.4 493.8C306.4 493.8 309.1 494 308.4 495.4C308.4 495.4 308.1 496 304.7 496C302.4 496 286.2 496 277.5 496C277.3 496.4 277.3 496.7 277.3 496.8C288.4 496.8 299.4 496.8 310.5 496.8C310.6 495.5 310 494.4 309.1 493.9Z" fill="#A8A29E"/>
<path d="M282.6 495.6C284 493 285.9 493.2 287.3 494.7C288.5 494.2 289.2 494.5 289.9 495.8C291.2 494.1 293 494.2 294.5 495.1C294.2 493.8 294.9 493.2 295.8 493.5C296.2 491.4 298.4 491.4 299.7 492.5C302.4 490.6 304.7 491.5 305.6 494.2C306.3 492.1 305 490 303.3 489.5C301.9 489.1 300.2 489.9 299.4 491.3C298.2 490 296.4 489.8 295.5 490.6C294.7 491.2 294.8 492.3 294.8 492.6C294.2 492.5 293.7 492.9 293.6 493.4C293.5 493.8 293.7 494.2 294 494.4C293.2 493.7 292.1 493.5 291.3 493.9C290.5 494.2 290.1 495 290 495.2C290 495.2 290 494.4 289.3 493.9C288.8 493.6 288.1 493.6 287.6 494C286.8 492.8 285.3 492.3 284.1 492.8C282.8 493.4 282.4 494.9 282.4 495C281.5 494.1 280.1 493.8 279 494.3C278.6 494.5 278.4 494.7 278.2 494.9C279.5 494.3 281 494.6 282.6 495.6Z" fill="#D4D4D4"/>
<path d="M337.5 499.5C341.3 499.5 345 499.5 348.8 499.5C349.1 498.5 348.6 497.4 347.8 497.1C347.1 496.8 346.4 497 345.8 497.5C345.9 496 345 494.7 343.8 494.4C342.3 494 340.5 495.2 340.3 497.2C339.6 496.8 338.7 496.9 338.1 497.4C337.5 498 337.3 498.8 337.5 499.5Z" fill="#D4D4D4"/>
<path d="M338.1 498C338.7 497.5 339.6 497.4 340.3 497.8C340.5 495.8 342.3 494.7 343.8 495C345 495.3 345.9 496.6 345.8 498.1C346.4 497.6 347.2 497.4 347.8 497.7C348.4 497.9 348.8 498.5 348.9 499.2C349 498.3 348.6 497.4 347.8 497.1C347.1 496.8 346.4 497 345.8 497.5C345.9 496 345 494.7 343.8 494.4C342.3 494 340.5 495.2 340.3 497.2C339.6 496.8 338.7 496.9 338.1 497.4C337.6 497.8 337.4 498.5 337.5 499.1C337.5 498.7 337.7 498.3 338.1 498Z" fill="#292524"/>
<path d="M347.8 497.1C347.6 497 347.4 497 347.2 497C347.5 497.5 347.7 498.1 347 498.3C346 498.6 340.1 498.6 337.4 498.6C337.4 498.9 337.4 499.2 337.5 499.5C341.3 499.5 345 499.5 348.8 499.5C349.2 498.5 348.7 497.5 347.8 497.1Z" fill="#A8A29E"/>
<path d="M457.3 488.4C457.3 488.4 460.9 489.4 461 485.6C461.1 482.6 466.1 482.1 465.6 477.3C465.2 472.9 462.3 473.9 460.5 471.3C458.7 468.7 456.6 468.4 455.1 468.9C453.7 469.3 452.6 470.6 452.3 472.5C452.1 474 451.7 474.6 449.7 475.3C447.7 476.1 447.5 478.3 449.7 479.8C451.9 481.3 450 484.4 451.4 485.9C452.8 487.4 454 485.9 454.1 487C454.2 488.2 456.4 489 457.3 488.4Z" fill="#D4D4D4"/>
<path d="M456.8 495.3C456.8 495.3 457 492.1 456.8 490.2C456.6 488.4 456.7 484.3 456.9 483.2C457.1 482 455.4 480.6 454.7 477.9C454.7 477.9 454.6 477.2 454.7 477.4C454.8 477.6 455.1 478.7 455.3 478.9C455.4 479.1 456.3 480.6 456.4 480.8C456.6 481 457 482.1 457.2 482C457.4 481.8 457.7 481.3 457.8 480.7C457.9 480.1 458.2 478.8 458.3 478.4C458.4 478 458.7 477 459.1 476.7C459.1 476.7 459.4 476.5 459.1 477C458.8 477.5 458.7 478.3 458.6 478.7C458.5 479.1 458.4 480.3 458.2 480.9C458 481.5 458.3 482.2 457.8 482.9C457.4 483.5 457.3 485.4 457.4 486.2C457.5 487 457.4 489.8 457.6 490.5C457.8 491.2 458 495.1 458.2 495.4H456.8V495.3Z" fill="#7C5833"/>
<path d="M460.5 471.2C460.2 470.8 460 470.5 459.7 470.3C459.7 470.3 459.9 472.9 462.8 474.1C465.8 475.3 464.2 481.3 461.5 481.8C458.8 482.3 461.2 487.9 458.5 488.6C459.5 488.5 460.9 488 461 485.7C461.1 482.7 466.1 482.2 465.6 477.4C465.2 472.8 462.3 473.8 460.5 471.2Z" fill="#D4D4D4"/>
<path d="M459.3 469.8C457.8 468.5 456.3 468.4 455.1 468.8C453.7 469.2 452.6 470.5 452.3 472.4C452.1 473.9 451.7 474.5 449.7 475.2C447.7 476 447.5 478.2 449.7 479.7C451.9 481.2 450 484.3 451.4 485.8C452.3 486.8 453.1 486.5 453.6 486.5C451.1 485.9 452.6 483.8 453.2 481.5C453.8 479.1 450.3 477.4 452.4 476.1C454.7 474.6 453.3 472.6 454.3 470.7C455.6 468.2 459.2 469.8 459.3 469.8Z" fill="#D4D4D4"/>
<path d="M452.2 496.7C458.1 496.7 464.1 496.7 470 496.7C470.5 495.1 469.7 493.5 468.4 492.9C467.4 492.5 466.1 492.7 465.2 493.6C465.4 491.2 463.9 489.2 462 488.7C459.7 488.1 456.8 490 456.5 493.1C455.4 492.5 454 492.6 453 493.4C452.2 494.2 451.8 495.5 452.2 496.7Z" fill="#D4D4D4"/>
<path d="M453.1 494.2C454.1 493.4 455.5 493.2 456.6 493.9C456.9 490.8 459.8 489 462.1 489.5C464 490 465.4 492 465.3 494.4C466.2 493.6 467.4 493.3 468.5 493.7C469.4 494.1 470.1 495 470.2 496.1C470.4 494.7 469.7 493.3 468.5 492.9C467.5 492.5 466.2 492.7 465.3 493.6C465.5 491.2 464 489.2 462.1 488.7C459.8 488.1 456.9 490 456.6 493.1C455.5 492.5 454.1 492.6 453.1 493.4C452.3 494.1 452 495.1 452.1 496.1C452.2 495.4 452.5 494.7 453.1 494.2Z" fill="#D4D4D4"/>
<path d="M468.4 492.9C468.1 492.8 467.8 492.7 467.4 492.7C467.9 493.5 468.2 494.4 467.1 494.8C465.5 495.3 456.3 495.3 452.1 495.3C452 495.8 452 496.2 452.2 496.7C458.1 496.7 464.1 496.7 470 496.7C470.5 495.1 469.7 493.4 468.4 492.9Z" fill="#A8A29E"/>
<path d="M351.1 432.8V437C351.1 437 353.2 435.3 355.5 436C356.9 436.5 358.9 437 361.3 435.2C361.3 435.2 358.3 436 357 433.9C355.6 432 353.2 431.4 351.1 432.8Z" fill="#EE554C"/>
<path d="M351.6 432.5C351.5 434.1 351.6 435.4 352 436.4C352.8 436 354.1 435.6 355.4 436C355.6 436.1 355.8 436.1 356 436.2C355.9 435.4 356.1 434.3 356.6 433.5C355.3 432 353.4 431.6 351.6 432.5Z" fill="#F06C55"/>
<path d="M355.4 436.1C355.3 434.9 355.8 433.6 356.1 433C355 432 353.5 431.8 352 432.4C351.8 434.1 352.2 435.4 352.6 436.3C352.9 436.2 353.3 436.1 353.7 436C353.5 434 353.9 432.9 354.1 434.4C354.2 435.1 354.3 435.6 354.5 436C354.8 435.9 355.1 436 355.4 436.1Z" fill="#FD7259"/>
<path d="M358.6 435.2C358.7 435.5 358.7 436.1 358.4 436.5C359.3 436.4 360.2 436 361.2 435.3C361.2 435.3 359.9 435.6 358.6 435.2Z" fill="#F06C55"/>
<path d="M351.1 432.7V497C351 497 351 497 350.9 497C350.8 497 350.8 497 350.7 497V432.7C350.7 432.6 350.8 432.5 350.9 432.5C350.9 432.5 350.9 432.5 351 432.5C351.1 432.6 351.1 432.7 351.1 432.7Z" fill="white"/>
<path d="M351.1 432.7V497C351 497 351 497 350.9 497C350.8 497 350.8 497 350.7 497V495.7C350.9 495.9 350.9 495.3 350.9 495.3V432.6C350.9 432.6 350.9 432.6 351 432.6C351.1 432.6 351.1 432.7 351.1 432.7Z" fill="#A8A29E"/>
<path d="M351.1 432.8H350.7V437H351.1V432.8Z" fill="#F06C55"/>
<path d="M350.7 436.6C351 435.7 351 433.4 350.9 432.8H350.7V436.6Z" fill="#FD7259"/>
<path d="M374.8 454.6C377.175 454.6 379.1 452.675 379.1 450.3C379.1 447.925 377.175 446 374.8 446C372.425 446 370.5 447.925 370.5 450.3C370.5 452.675 372.425 454.6 374.8 454.6Z" fill="white"/>
</svg>
