<svg width="495" height="111" viewBox="0 0 495 111" fill="none" xmlns="http://www.w3.org/2000/svg">
<g clip-path="url(#clip0_1344_9305)">
<path d="M436.2 15.6C435 15.6 434 16.0999 433.2 16.7999C432.4 14.2999 430 12.5 427.2 12.5C425.1 12.5 423.2 13.5 422.1 15.1C420.8 12.8 418.3 11.2 415.5 11.2C412 11.2 409.1 13.5 408.2 16.7C407.4 16 406.4 15.5 405.3 15.5C402.9 15.5 401 17.3999 401 19.7999C401 22.1999 402.9 24.0999 405.3 24.0999C406.7 24.0999 408 23.3999 408.8 22.2999C410.1 24.6999 412.6 26.4 415.5 26.4C418.4 26.4 420.8 24.8 422.1 22.5C423.2 24.1 425.1 25.0999 427.2 25.0999C429.5 25.0999 431.5 23.8999 432.6 22.0999C433.4 23.2999 434.7 24.0999 436.2 24.0999C438.6 24.0999 440.5 22.1999 440.5 19.7999C440.5 17.4999 438.6 15.6 436.2 15.6Z" fill="#E7E5E4"/>
<path d="M438 21.2C437.3 21.2 436.6 21.3999 436.1 21.7999C435.1 19.6999 432.9 18.2 430.4 18.2C428.2 18.2 426.3 19.3 425.2 20.9C424.5 20.4 423.6 20.0999 422.7 20.0999C420.3 20.0999 418.3 22.1 418.3 24.5C418.3 26.9 420.3 28.9 422.7 28.9C423.7 28.9 424.5 28.5999 425.2 28.0999C426.3 29.7999 428.2 30.7999 430.4 30.7999C432.9 30.7999 435.1 29.3 436.1 27.2C436.6 27.6 437.3 27.7999 438 27.7999C439.8 27.7999 441.3 26.3 441.3 24.5C441.2 22.6 439.8 21.2 438 21.2Z" fill="#E7E5E4"/>
<path d="M345.2 27.2C344.6 27.2 344.1 27.4 343.7 27.8C343.3 26.6 342.1 25.7 340.7 25.7C339.7 25.7 338.7 26.2 338.2 27C337.6 25.8 336.3 25 334.9 25C333.2 25 331.7 26.2 331.3 27.8C330.9 27.4 330.4 27.2 329.8 27.2C328.6 27.2 327.7 28.2 327.7 29.3C327.7 30.5 328.7 31.4 329.8 31.4C330.5 31.4 331.2 31 331.5 30.5C332.1 31.7 333.4 32.6 334.9 32.6C336.3 32.6 337.6 31.8 338.2 30.6C338.8 31.4 339.7 31.9 340.7 31.9C341.8 31.9 342.8 31.3 343.4 30.4C343.8 31 344.4 31.4 345.2 31.4C346.4 31.4 347.3 30.4 347.3 29.3C347.3 28.1 346.4 27.2 345.2 27.2Z" fill="#E7E5E4"/>
<path d="M478.8 3.69995C478.1 3.69995 477.4 3.89995 476.9 4.29995C475.9 2.19995 473.7 0.699951 471.2 0.699951C469 0.699951 467.1 1.79995 466 3.39995C465.3 2.89995 464.4 2.59995 463.5 2.59995C461.1 2.59995 459.1 4.59995 459.1 6.99995C459.1 9.39995 461.1 11.4 463.5 11.4C464.5 11.4 465.3 11.1 466 10.6C467.1 12.3 469 13.3 471.2 13.3C473.7 13.3 475.9 11.8 476.9 9.69995C477.4 10.1 478.1 10.3 478.8 10.3C480.6 10.3 482.1 8.79995 482.1 6.99995C482.1 5.09995 480.6 3.69995 478.8 3.69995Z" fill="#E7E5E4"/>
<path d="M298.8 7.59995C298 7.59995 297.3 7.89995 296.7 8.29995C295.6 5.89995 293.1 4.19995 290.3 4.19995C287.9 4.19995 285.7 5.39995 284.5 7.29995C283.7 6.69995 282.7 6.39995 281.6 6.39995C278.9 6.39995 276.7 8.59995 276.7 11.2999C276.7 13.9999 278.9 16.2 281.6 16.2C282.7 16.2 283.7 15.7999 284.5 15.2999C285.8 17.1999 287.9 18.4 290.3 18.4C293.1 18.4 295.6 16.6999 296.7 14.2999C297.3 14.6999 298 15 298.8 15C300.8 15 302.5 13.3999 302.5 11.2999C302.5 9.19995 300.9 7.59995 298.8 7.59995Z" fill="#E7E5E4"/>
<path d="M122.4 31.8C121.7 31.8 121.1 32 120.6 32.4C119.7 30.4 117.6 29 115.3 29C113.3 29 111.5 30 110.5 31.6C109.8 31.1 109 30.8 108.1 30.8C105.9 30.8 104 32.6 104 34.9C104 37.2 105.8 39 108.1 39C109 39 109.8 38.7 110.5 38.2C111.6 39.7 113.3 40.8 115.3 40.8C117.7 40.8 119.7 39.4 120.6 37.4C121.1 37.8 121.7 38 122.4 38C124.1 38 125.4 36.6 125.4 35C125.5 33.1 124.1 31.8 122.4 31.8Z" fill="#E7E5E4"/>
<path d="M495 64.1V104.5H245V76.8H254.1V47.2H259.1L262.8 61.9H265.1V46.3H272.5V89.7H278.1V65.5H281V54H284.9V61H290.5V77.9H292.9L294.9 79.9V47.1H301.1V50.8L308.4 56.7V77.5H314.7V48.1L320.5 36.5H324.1L329.7 46.7V81.7H333.7V77.5L335.8 75.4H336.7V57.2H338.1V52.2L341.7 48.8V47V40.2L348.7 32.9V58.9H350.3V70H352.1V31.4H363L368.9 41.7V50.7L371.6 53.4V72.2H374.4V80.6H378V48.5L382.5 46.9V39.4L390.9 35.5V29H399.2V50.8H401.9V76.7H403.9V43.7L409 48.1V55.3H412.9V76.4H417.7V50.4L423.7 43.3H431.1V33.6L442.5 37.8V69.9H444.3V84H446.2V73.4H448V50.7H455.4V72.8H457.5V88.5H461.5V62.3L473.7 55.6V53.9H475.3V42.7L481.6 49.1V35.8H483.2V37.5L487.5 38.6V36.6H489L492.7 64.1H495Z" fill="#D6DCE0"/>
<path d="M0 101.183V105H250V87.948H240.9V69.7264H235.9L232.2 78.7757H229.9V69.1724H222.5V95.8892H216.9V80.9918H214V73.9124H210.1V78.2216H204.5V88.6252H202.1L200.1 89.8564V69.6648H193.9V71.9425L186.6 75.5746V88.3789H180.3V70.2804L174.5 63.1395H170.9L165.3 69.4186V90.9644H161.3V88.3789L159.2 87.0862H158.3V75.8824H156.9V72.8044L153.3 70.7114V69.6033V65.4172L146.3 60.9234V76.9289H144.7V83.762H142.9V60H132L126.1 66.3406V71.881L123.4 73.5431V85.1163H120.6V90.2873H117V70.5267L112.5 69.5417V64.9248L104.1 62.5239V86.3475H95.8V71.9425H93.1V87.8865H91.1V67.5718L86 70.2804V74.7127H82.1V87.7018H77.3V71.6963L71.3 67.3256L63.9 73.5431V67.5718L52.5 70.1573V89.9179H50.7V98.5978H48.8V92.0725H47V78.0985H39.6V91.7032H37.5V101.368H33.5V85.2394L21.3 95.9508V94.9042H19.7V88.0096C19.7 88.0096 14.8506 89.9838 13.4 91.9494C11.6555 94.3133 13.4 98.5978 13.4 98.5978C13.4 98.5978 12.255 98.3342 11.8 98.5978C11.3166 98.8779 11.8 99.6443 11.8 99.6443L7.5 100.321V99.0903H6L2.3 101.183H0Z" fill="#D6DCE0"/>
<path d="M349.5 86.8C349.5 86.8 359.3 89.4 359.6 79C359.8 70.8 373.5 69.5 372.2 56.2C371.1 44 363.2 46.8 358.3 39.7C353.4 32.6 347.7 31.9 343.4 33.1C339.4 34.3 336.4 37.8 335.7 43C335.1 47.1 334 48.7 328.6 50.8C323.2 52.9 322.7 58.9 328.6 63.1C334.5 67.3 329.4 75.6 333.1 79.8C336.8 83.9 340.1 79.8 340.5 82.9C341 86.2 347.1 88.4 349.5 86.8Z" fill="#57534E"/>
<path d="M348 105.7C348 105.7 348.5 96.7999 348 91.7999C347.5 86.7999 347.7 75.7999 348.2 72.5999C348.7 69.3999 344.1 65.4999 342.3 58.0999C342.3 58.0999 341.9 56.2999 342.3 56.6999C342.7 57.0999 343.5 60.2999 343.8 60.7999C344.1 61.2999 346.4 65.5999 346.9 66.0999C347.4 66.5999 348.6 69.7999 349.1 69.2999C349.6 68.7999 350.4 67.3999 350.6 65.6999C350.8 64.0999 351.7 60.5999 352 59.4999C352.3 58.3999 353.2 55.5999 354.2 54.7999C354.2 54.7999 354.9 54.2999 354.2 55.6999C353.5 57.0999 353 59.2999 352.7 60.2999C352.4 61.2999 352.3 64.6999 351.7 66.1999C351.1 67.7999 351.8 69.7999 350.6 71.6999C349.5 73.3999 349.4 78.5999 349.5 80.6999C349.6 82.8999 349.5 90.4999 350 92.3999C350.4 94.2999 351 105 351.6 105.8H348V105.7Z" fill="#7C5833"/>
<path d="M358.3 39.7C357.6 38.7 356.9 37.9 356.2 37.1C356.2 37.2 356.7 44.1 364.7 47.4C372.8 50.7 368.4 67.1 361.1 68.4C353.8 69.8 360.3 85.2 352.8 87C355.7 86.8 359.3 85.2 359.5 79C359.7 70.8 373.4 69.5 372.1 56.2C371.1 44 363.2 46.8 358.3 39.7Z" fill="#A8A29E"/>
<path d="M355 36C351 32.4 346.8 32.2 343.4 33.2C339.4 34.4 336.4 37.9 335.7 43.0999C335.1 47.1999 334 48.8 328.6 50.9C323.2 53 322.7 58.9999 328.6 63.1999C334.5 67.3999 329.4 75.7 333.1 79.9C335.6 82.6 337.8 81.6999 339.2 81.6999C332.3 79.8999 336.5 74.4 338.1 67.9C339.7 61.4 330.1 56.7 335.9 53C342.2 49 338.4 43.4 341.1 38.2C344.7 31.4 354.7 35.9 355 36Z" fill="#78716C"/>
<path d="M479.2 110.5C483 110.5 486.7 110.5 490.5 110.5C490.8 109.5 490.3 108.4 489.5 108.1C488.8 107.8 488.1 108 487.5 108.5C487.6 107 486.7 105.7 485.5 105.4C484 105 482.2 106.2 482 108.2C481.3 107.8 480.4 107.9 479.8 108.4C479.2 109 479 109.8 479.2 110.5Z" fill="#57534E"/>
<path d="M479.8 109C480.4 108.5 481.3 108.4 482 108.8C482.2 106.8 484 105.7 485.5 106C486.7 106.3 487.6 107.6 487.5 109.1C488.1 108.6 488.9 108.4 489.5 108.7C490.1 108.9 490.5 109.5 490.6 110.2C490.7 109.3 490.3 108.4 489.5 108.1C488.8 107.8 488.1 108 487.5 108.5C487.6 107 486.7 105.7 485.5 105.4C484 105 482.2 106.2 482 108.2C481.3 107.8 480.4 107.9 479.8 108.4C479.3 108.8 479.1 109.5 479.2 110.1C479.2 109.7 479.4 109.3 479.8 109Z" fill="#292524"/>
<path d="M489.5 108.1C489.3 108 489.1 108 488.9 108C489.2 108.5 489.4 109.1 488.7 109.3C487.7 109.6 481.8 109.6 479.1 109.6C479.1 109.9 479.1 110.2 479.2 110.5C483 110.5 486.7 110.5 490.5 110.5C490.9 109.5 490.4 108.5 489.5 108.1Z" fill="#A8A29E"/>
<path d="M412.8 68.1999C412.8 68.1999 416.6 71.8999 419.6 67.0999C422.6 62.2999 416.5 54.7999 421.6 50.2999C426.7 45.7999 436.9 37.8999 430.4 32.9999C418.4 23.9999 430.5 11.7999 413.4 16.7999C400.6 20.4999 398.5 11.5999 391.7 26.4999C384.9 41.4999 398.4 41.1999 396.1 47.2999C393.7 53.3999 390.7 55.9999 395.9 60.4999C401 64.9999 400.2 76.1999 412.8 68.1999Z" fill="#44403C"/>
<path d="M393.5 23.1C399 13.3 401.9 20.4 413.4 17C430.5 12 418.3 24.2 430.4 33.2C436.9 38.1 426.7 46 421.6 50.5C416.5 55 422.5 62.5 419.6 67.3C417.8 70.2 415.7 70 414.3 69.3C414.1 69 413.9 68.7 413.8 68.3C407.9 53.9 430.9 41.3 424.7 37.7C418.5 34.1 422.8 25.1 419.9 20.3C417 15.5 407.9 23.2 402.3 21C398.1 19.3 394.9 21.7 393.5 23.1Z" fill="#57534E"/>
<path d="M407.2 54.7C407.1 54.3 407.1 54 407.2 54.3C407.2 54.5 407.2 54.6 407.2 54.7Z" fill="#273D5D"/>
<path d="M418.4 78.7C417.7 81.4 418 82.1 417.8 84.5C417.6 86.9 417.6 89.4 417.5 90.6C417.4 91.8 418 93 417.3 95.1C416.6 97.1 415.9 102.4 416 106.5L416.3 108.9L411.9 108.7C411.9 108.7 411 107.4 411.8 101.2C411.9 100.1 413.3 99.3 413.3 97.8C413.4 96.3 413.4 95.1 413.3 94.6C413.2 94.1 411.2 92.2 411.4 89.3C411.6 86.3 411.1 81 411.1 78.4C411.1 75.8 411.5 74.2 410.8 72.2C410.1 70.2 410.6 67.2 410.6 67.2C410.6 67.2 410.4 66.3 410 65.6C409.6 65.5 409.3 65.5 409.3 65.4C409.2 65.3 407.4 64.9 407.2 64.5C407 64.1 406.5 64 406.2 63.7C405.9 63.4 405.4 63.3 405 63.1C404.7 63 403.6 61.8 404 61.8C404.4 61.8 404.8 62 405.5 62.4C406.2 62.8 407 63.1 407.3 63.5C407.5 63.8 408.5 63.7 409 63.6C408.6 62.7 408.1 61.4 407.5 61C406.6 60.3 404.7 57.5 404.3 57.2C403.9 56.9 404.3 56.5 404.3 56.5C404.3 56.5 405.6 58.1 405.7 58.2C405.8 58.4 406.3 58.6 406.5 59.1C406.6 59.3 406.9 59.6 407.3 59.9C407.3 59.8 406.9 59 407.1 58.7C407.2 58.3 406.9 57.2 406.9 56.6C406.9 56.1 407 55.2 407 54.7C407 54.9 407.1 55.2 407.2 55.3C407.5 55.8 407.1 56.3 407.4 57.1C407.7 57.8 407.6 58.3 407.7 59C407.8 59.7 407.4 59.9 407.8 60.4C408 60.6 408.1 60.7 408.2 60.9C408.5 61.5 408.8 61.8 409.2 62.6C409.6 63.4 410.6 64.2 410.6 64.2C410.6 64.2 411.6 64.5 411.2 63C410.8 61.5 410.8 55.7 411 53.8C411.2 51.9 411.7 51.8 411.2 49.7C410.7 47.7 410.6 46 410.3 44.9C410 43.8 410.1 42.5 408.8 41.9C407.5 41.2 404.4 38.7 403.4 38.2C402.5 37.6 401.1 36.7 400.2 36.1C399.3 35.5 400.4 35.3 401.3 36.1C402.2 36.9 402.6 36.4 403.3 37C404 37.6 404.1 37.3 405.6 38.5C407.1 39.7 408.5 40 408.8 40.6C409.1 41.2 410.5 42.7 410.5 41.7C410.6 40.7 411.3 40.3 410.3 39.2C409.4 38.1 408.8 35.6 408.6 35.3C408.3 34.9 407.6 34.3 406.8 33.1C406 31.9 406.4 31.5 405.3 30.9C404.2 30.4 403 27.9 403 27.8C403.1 27.9 406.5 30.4 406.7 31.1C406.9 31.9 408.3 32.6 408.9 33.7C409.4 34.8 410.4 35.9 410.6 36.8C410.9 37.7 411.7 38.9 411.8 36.9C411.9 34.9 412.4 35.1 411.8 32.5C411.1 29.9 410.6 30 411.1 28.1C411.6 26.2 412.5 28.4 412.7 30.6C412.7 30.6 413.2 34.9 412.9 37.5C412.6 40.2 413 48.9 412.9 51.6C412.9 54.4 413.6 57.8 413.5 60.4L412.8 74.4C412.6 78.4 414.1 83.3 414 86.4C413.9 89.6 414.6 91.8 415.4 88.2C416.2 84.7 416.7 82.2 416.5 80.1C416.3 78 416.4 74.3 417 72.6C417.6 70.9 417 66.3 417.5 62.9C418 59.6 418.7 56.4 418.9 54.8C419.1 53.1 419.7 55.7 419.3 57.3C418.9 58.9 419.3 60 419.1 63.5C418.9 67.1 419.2 68.1 418.7 71.5C418.3 75.5 419.2 75.9 418.4 78.7Z" fill="#7C5833"/>
<path d="M390 36C390.6 37.3 391.4 38.6 392.5 39.3C395.6 41.4 400.7 44.1 396.9 50.2C393.1 56.3 398.9 59.1 400.7 64.9C401.9 68.7 404.1 70.5 406.2 70.9C400.2 71.6 399.8 64 395.8 60.5C390.7 56.1 393.7 53.4 396 47.3C397.8 43 391.2 41.9 390 36Z" fill="#E6E6E6"/>
<path d="M397.4 37.4C397.4 37.4 401 42.2 405.3 37C409.5 31.8 417.2 40.5 421.8 30.2C426.4 19.9 417.3 12.7 412.2 16.7C407.1 20.6 408.5 4.70001 398.5 9.50001C391.3 13 398.5 19.2 395.2 25.5C391.8 31.8 394.3 35.4 397.4 37.4Z" fill="#A8A29E"/>
<path d="M395.3 25C398.1 18.8 391.4 12.8 398.4 9.50001C408.4 4.70001 407.1 20.6 412.1 16.7C416.8 13 425 19 422.5 28.1C421.3 24.9 418.6 23.4 416.6 25.1C412.6 28.5 407.6 17.6 404.1 18.8C400.6 20 398.3 13.5 398.3 19.3C398.2 22.9 396.5 24.4 395.3 25Z" fill="#57534E"/>
<path d="M407.3 61.2C407.3 61.2 414.6 59.5 411.1 55.4C407.4 51.2 413 49.9 411.7 47C409.9 42.9 404.2 42.8 402.6 47.3C401.3 51.2 400.2 51.7 396.3 51.3C391.3 50.8 389.7 59.1 395.7 58.9C399.3 58.7 402 66.5 407.3 61.2Z" fill="#A8A29E"/>
<path d="M396.3 51.3C400.3 51.7 401.3 51.2 402.6 47.3C404.2 42.7 409.9 42.8 411.7 47C412.2 48.2 411.6 49.1 410.9 50.1C409.7 48.6 406.4 46.5 405.5 50.5C404.3 55.5 398.8 51.8 395.2 53.8C392.3 55.4 394.7 57.9 395.8 58.8C389.7 59.1 391.4 50.8 396.3 51.3Z" fill="#57534E"/>
<path d="M408.4 59C408.4 59 408.7 64.4 414.5 62.7C420.3 61 421.6 71.3 430.3 65.9C438.9 60.5 435.7 50.5 429.9 50.9C424.1 51.3 433.1 40 423.2 38.6C416.1 37.6 418.4 45.9 412.7 48.9C407.1 51.9 407.1 55.9 408.4 59Z" fill="#57534E"/>
<path d="M413 48.5999C418.2 45.3999 416.2 37.4999 423.1 38.4999C433 39.8999 424 51.1999 429.8 50.7999C435.2 50.3999 438.4 58.9999 431.9 64.5999C432.6 61.5999 431.4 59.0999 428.9 59.3999C424.2 59.8999 425.9 49.2999 422.7 48.3999C419.5 47.5999 421 41.4999 418.1 45.7999C416.3 48.4999 414.3 48.7999 413 48.5999Z" fill="#78716C"/>
<path d="M351.5 68.9H286.5V107.4H351.5V68.9Z" fill="#292524"/>
<path d="M351.5 85.7H286.5V90.5H351.5V85.7Z" fill="#292524"/>
<path d="M287.5 68.9H286.5V107.4H287.5V68.9Z" fill="#292524"/>
<path d="M300.3 68.9H299.3V107.4H300.3V68.9Z" fill="#292524"/>
<path d="M313.1 68.9H312.1V107.4H313.1V68.9Z" fill="#292524"/>
<path d="M325.9 68.9H324.9V107.4H325.9V68.9Z" fill="#292524"/>
<path d="M338.7 68.9H337.7V107.4H338.7V68.9Z" fill="#292524"/>
<path d="M351.5 68.9H350.5V107.4H351.5V68.9Z" fill="#292524"/>
<path d="M351.5 66.3H284.8V68.9H351.5V66.3Z" fill="#292524"/>
<path d="M297 71.3H289.8V82.7H297V71.3Z" fill="white"/>
<path d="M289.5 71.1V83H297.3V71.1H289.5ZM296.8 82.5H290V74H296.8V82.5ZM296.8 73.4H290V71.5H296.8V73.4Z" fill="white"/>
<path d="M309.7 71.3H302.5V82.7H309.7V71.3Z" fill="white"/>
<path d="M302.2 71.1V83H310V71.1H302.2ZM309.5 82.5H302.8V74H309.5V82.5ZM309.5 73.4H302.8V71.5H309.5V73.4Z" fill="white"/>
<path d="M322.4 71.3H315.2V82.7H322.4V71.3Z" fill="white"/>
<path d="M314.9 71.1V83H322.7V71.1H314.9ZM322.2 82.5H315.4V74H322.2V82.5ZM322.2 73.4H315.4V71.5H322.2V73.4Z" fill="white"/>
<path d="M335.4 71.3H328.2V82.7H335.4V71.3Z" fill="white"/>
<path d="M327.9 71.1V83H335.7V71.1H327.9ZM335.2 82.5H328.4V74H335.2V82.5ZM335.2 73.4H328.4V71.5H335.2V73.4Z" fill="white"/>
<path d="M348.2 71.3H341V82.7H348.2V71.3Z" fill="white"/>
<path d="M340.8 71.1V83H348.6V71.1H340.8ZM348 82.5H341.2V74H348V82.5ZM348 73.4H341.2V71.5H348V73.4Z" fill="white"/>
<path d="M297 93H289.8V104.4H297V93Z" fill="white"/>
<path d="M289.5 92.7V104.6H297.3V92.7H289.5ZM296.8 104.1H290V95.6H296.8V104.1ZM296.8 95.1H290V93.2H296.8V95.1Z" fill="white"/>
<path d="M309.7 93H302.5V104.4H309.7V93Z" fill="white"/>
<path d="M302.2 92.7V104.6H310V92.7H302.2ZM309.5 104.1H302.8V95.6H309.5V104.1ZM309.5 95.1H302.8V93.2H309.5V95.1Z" fill="white"/>
<path d="M322.4 93H315.2V104.4H322.4V93Z" fill="white"/>
<path d="M314.9 92.7V104.6H322.7V92.7H314.9ZM322.2 104.1H315.4V95.6H322.2V104.1ZM322.2 95.1H315.4V93.2H322.2V95.1Z" fill="white"/>
<path d="M335.4 93H328.2V104.4H335.4V93Z" fill="white"/>
<path d="M327.9 92.7V104.6H335.7V92.7H327.9ZM335.2 104.1H328.4V95.6H335.2V104.1ZM335.2 95.1H328.4V93.2H335.2V95.1Z" fill="white"/>
<path d="M348.2 93H341V104.4H348.2V93Z" fill="white"/>
<path d="M340.8 92.7V104.6H348.6V92.7H340.8ZM348 104.1H341.2V95.6H348V104.1ZM348 95.1H341.2V93.2H348V95.1Z" fill="white"/>
<path d="M453.5 68.9H388.5V107.4H453.5V68.9Z" fill="#292524"/>
<path d="M453.5 85.7H388.5V90.5H453.5V85.7Z" fill="#292524"/>
<path d="M389.5 68.9H388.5V107.4H389.5V68.9Z" fill="#292524"/>
<path d="M402.3 68.9H401.3V107.4H402.3V68.9Z" fill="#292524"/>
<path d="M415.1 68.9H414.1V107.4H415.1V68.9Z" fill="#292524"/>
<path d="M427.9 68.9H426.9V107.4H427.9V68.9Z" fill="#292524"/>
<path d="M440.7 68.9H439.7V107.4H440.7V68.9Z" fill="#292524"/>
<path d="M453.5 68.9H452.5V107.4H453.5V68.9Z" fill="#292524"/>
<path d="M455.2 66.3H388.5V68.9H455.2V66.3Z" fill="#292524"/>
<path d="M399 71.3H391.8V82.7H399V71.3Z" fill="white"/>
<path d="M391.6 71.1V83H399.4V71.1H391.6ZM398.8 82.5H392V74H398.8V82.5ZM398.8 73.4H392V71.5H398.8V73.4Z" fill="white"/>
<path d="M411.7 71.3H404.5V82.7H411.7V71.3Z" fill="white"/>
<path d="M404.3 71.1V83H412.1V71.1H404.3ZM411.5 82.5H404.7V74H411.5V82.5ZM411.5 73.4H404.7V71.5H411.5V73.4Z" fill="white"/>
<path d="M424.4 71.3H417.2V82.7H424.4V71.3Z" fill="white"/>
<path d="M417 71.1V83H424.8V71.1H417ZM424.2 82.5H417.4V74H424.2V82.5ZM424.2 73.4H417.4V71.5H424.2V73.4Z" fill="white"/>
<path d="M437.4 71.3H430.2V82.7H437.4V71.3Z" fill="white"/>
<path d="M429.9 71.1V83H437.7V71.1H429.9ZM437.2 82.5H430.4V74H437.2V82.5ZM437.2 73.4H430.4V71.5H437.2V73.4Z" fill="white"/>
<path d="M450.3 71.3H443.1V82.7H450.3V71.3Z" fill="white"/>
<path d="M442.8 71.1V83H450.6V71.1H442.8ZM450.1 82.5H443.3V74H450.1V82.5ZM450.1 73.4H443.3V71.5H450.1V73.4Z" fill="white"/>
<path d="M399 93H391.8V104.4H399V93Z" fill="white"/>
<path d="M391.6 92.7V104.6H399.4V92.7H391.6ZM398.8 104.1H392V95.6H398.8V104.1ZM398.8 95.1H392V93.2H398.8V95.1Z" fill="white"/>
<path d="M411.7 93H404.5V104.4H411.7V93Z" fill="white"/>
<path d="M404.3 92.7V104.6H412.1V92.7H404.3ZM411.5 104.1H404.7V95.6H411.5V104.1ZM411.5 95.1H404.7V93.2H411.5V95.1Z" fill="white"/>
<path d="M424.4 93H417.2V104.4H424.4V93Z" fill="white"/>
<path d="M417 92.7V104.6H424.8V92.7H417ZM424.2 104.1H417.4V95.6H424.2V104.1ZM424.2 95.1H417.4V93.2H424.2V95.1Z" fill="white"/>
<path d="M437.4 93H430.2V104.4H437.4V93Z" fill="white"/>
<path d="M429.9 92.7V104.6H437.7V92.7H429.9ZM437.2 104.1H430.4V95.6H437.2V104.1ZM437.2 95.1H430.4V93.2H437.2V95.1Z" fill="white"/>
<path d="M450.3 93H443.1V104.4H450.3V93Z" fill="white"/>
<path d="M442.8 92.7V104.6H450.6V92.7H442.8ZM450.1 104.1H443.3V95.6H450.1V104.1ZM450.1 95.1H443.3V93.2H450.1V95.1Z" fill="white"/>
<path d="M388.5 54.5H351.5V107.4H388.5V54.5Z" fill="#292524"/>
<path d="M389.7 51.9H350.3V54.5H389.7V51.9Z" fill="#292524"/>
<path d="M379.4 90.6H360.6V107.4H379.4V90.6Z" fill="#292524"/>
<path d="M355.6 54.5H354.6V107.4H355.6V54.5Z" fill="#292524"/>
<path d="M357.7 54.5H356.7V107.4H357.7V54.5Z" fill="#292524"/>
<path d="M383.3 54.5H382.3V107.4H383.3V54.5Z" fill="#292524"/>
<path d="M385.4 54.5H384.4V107.4H385.4V54.5Z" fill="#292524"/>
<path d="M370.3 90.6H369.8V107.4H370.3V90.6Z" fill="white"/>
<path d="M368 92.2H362.5V100.9H368V92.2Z" fill="white"/>
<path d="M362.8 100.6H367.8V92.4H362.8V100.6ZM368.2 101.1H362.2V91.9H368.2V101.1Z" fill="white"/>
<path d="M368 102.6H362.5V105.8H368V102.6Z" fill="white"/>
<path d="M368.2 106H362.2V102.3H368.2V106ZM362.8 105.5H367.8V102.8H362.8V105.5Z" fill="white"/>
<path d="M377.5 92.2H372V100.9H377.5V92.2Z" fill="white"/>
<path d="M372.2 100.6H377.2V92.4H372.2V100.6ZM377.8 101.1H371.8V91.9H377.8V101.1Z" fill="white"/>
<path d="M377.5 102.6H372V105.8H377.5V102.6Z" fill="white"/>
<path d="M377.8 106H371.8V102.3H377.8V106ZM372.2 105.5H377.2V102.8H372.2V105.5Z" fill="white"/>
<path d="M371.1 99H370.7V100.5H371.1V99Z" fill="white"/>
<path d="M369.3 99H368.9V100.5H369.3V99Z" fill="white"/>
<path d="M367.9 71.3H360.7V82.7H367.9V71.3Z" fill="white"/>
<path d="M360.4 71.1V83H368.2V71.1H360.4ZM367.7 82.5H360.9V74H367.7V82.5ZM367.7 73.4H360.9V71.5H367.7V73.4Z" fill="white"/>
<path d="M379.3 71.3H372.1V82.7H379.3V71.3Z" fill="white"/>
<path d="M371.8 71.1V83H379.6V71.1H371.8ZM379.1 82.5H372.3V74H379.1V82.5ZM379.1 73.4H372.3V71.5H379.1V73.4Z" fill="white"/>
<path d="M385.1 58.1H354.9V66.3H385.1V58.1Z" fill="#292524"/>
<path d="M407.1 107.7C410.2 107.7 413.4 107.7 416.5 107.7C416.8 106.9 416.4 106 415.7 105.7C415.2 105.5 414.5 105.6 414 106.1C414.1 104.8 413.3 103.8 412.3 103.5C411.1 103.2 409.6 104.2 409.4 105.8C408.8 105.5 408.1 105.5 407.5 106C407 106.4 406.8 107.1 407.1 107.7Z" fill="#44403C"/>
<path d="M407.5 106.4C408 106 408.8 105.9 409.4 106.2C409.6 104.6 411.1 103.6 412.3 103.9C413.3 104.1 414.1 105.2 414 106.5C414.5 106.1 415.1 105.9 415.7 106.1C416.2 106.3 416.5 106.8 416.6 107.4C416.7 106.7 416.3 105.9 415.7 105.7C415.2 105.5 414.5 105.6 414 106.1C414.1 104.8 413.3 103.8 412.3 103.5C411.1 103.2 409.6 104.2 409.4 105.8C408.8 105.5 408.1 105.5 407.5 106C407.1 106.4 406.9 106.9 407 107.4C407.1 107 407.2 106.7 407.5 106.4Z" fill="#57534E"/>
<path d="M415.6 105.7C415.4 105.6 415.3 105.6 415.1 105.6C415.4 106 415.5 106.5 414.9 106.7C414.1 107 409.2 107 407 107C407 107.2 407 107.5 407.1 107.7C410.2 107.7 413.4 107.7 416.5 107.7C416.7 106.8 416.3 106 415.6 105.7Z" fill="#A8A29E"/>
<path d="M282.1 74.9C282.1 74.9 272.8 82.5 267.6 73C262.5 63.5 253 68.8 255 57.6C257 46.4 268.1 55 270.6 46.2C273 37.5 277 33.9 284.9 35.9C293.7 38.1 287.7 48.6 295.2 51.6C302.7 54.6 307.6 57.6 305.8 62.8C304.1 68.1 294.1 64.6 293.8 69.1C293.5 73.6 287.6 82.6 282.1 74.9Z" fill="#44403C"/>
<path d="M300.3 53.9C298.8 53.1 297.1 52.3999 295.2 51.5999C287.7 48.5999 293.6 38.1 284.9 35.9C277 33.9 273 37.5 270.6 46.3C268.7 53.1 261.6 49.3999 257.6 52.6999C271.8 57.8999 268.6 49.5 274.4 51.3C280.1 53.1 277.9 48.6 282.7 45.5C287.4 42.4 286 48.3 291.6 53.8C295.2 57.3 298.5 55.5 300.3 53.9Z" fill="#57534E"/>
<path d="M305.9 62.9C307.3 58.7 304.4 55.9 299.4 53.5C301.8 56.3 304.7 60.7 301.4 62.9C296.4 66.2 291.1 61.9 289.4 67.4C287.8 73 284.6 73.5 282.2 71.3C279.7 69.1 274.8 78.2 271.3 71.4C269.3 67.5 264.6 66.9 261 67C263.3 68 265.8 69.5 267.7 73C272.8 82.5 282.2 74.9 282.2 74.9C287.8 82.6 293.7 73.7 294 69.2C294.2 64.7 304.1 68.1 305.9 62.9Z" fill="#A8A29E"/>
<path d="M280.1 106.4C280.1 106.4 280.7 98.3 280.3 93.7C280 89.1 280.3 79 280.8 76.1C281.3 73.2 277.1 69.6 275.7 62.8C275.7 62.8 275.4 61.1 275.7 61.5C276 61.9 276.7 64.8 277 65.3C277.3 65.8 279.3 69.7 279.8 70.2C280.3 70.7 281.3 73.6 281.8 73.2C282.2 72.8 283 71.5 283.2 70C283.4 68.5 284.3 65.3 284.6 64.3C284.9 63.3 285.8 60.8 286.7 60C286.7 60 287.4 59.5 286.7 60.8C286 62.1 285.5 64.1 285.3 65C285 65.9 284.8 69 284.3 70.4C283.7 71.8 284.4 73.7 283.2 75.4C282.2 76.9 282 81.7 282 83.6C282.1 85.6 281.9 92.6 282.2 94.3C282.5 96 282.9 105.9 283.4 106.6L280.1 106.4Z" fill="#7C5833"/>
<path d="M284.1 61.9C284.1 61.9 284.4 67.1 278.7 66.1C273 65.1 272.8 75.1 263.9 70.8C255.1 66.5 257.1 56.6 262.7 56.4C268.3 56.2 258.4 46.3 267.8 43.9C274.5 42.2 273.2 50.3 279 52.7C284.7 55.1 285.1 58.9 284.1 61.9Z" fill="#A8A29E"/>
<path d="M278.6 52.5C273.3 50 274.4 42.3 267.8 44C258.5 46.4 268.3 56.3 262.7 56.5C257.5 56.7 255.4 65.3 262.2 69.9C261.2 67.1 262.1 64.6 264.5 64.6C269.1 64.6 266.3 54.6 269.3 53.4C272.3 52.2 270.2 46.6 273.4 50.4C275.5 52.7 277.4 52.8 278.6 52.5Z" fill="#57534E"/>
<path d="M282 66C283.6 65.9 285.1 66.4 286.4 67.3C287.5 68.1 289.5 68.6 292.6 67.1C298.5 64.2 293.4 57.3 297.3 55.9C301.2 54.5 298 46.1 289.9 48.8C281.8 51.5 286.9 55.3 279.4 53.6C272.5 52 271 66.5 282 66Z" fill="#57534E"/>
<path d="M289.8 48.8C281.7 51.5 286.8 55.3 279.3 53.6C278.6 53.4 278 53.4 277.4 53.6C277.6 54.4 278.3 55.4 280.5 55.7C284.2 56.2 284.4 58.9 286.3 55.2C288.2 51.5 288.6 54.4 291.6 52.2C294.6 50 295.3 54.2 292.4 56.1C289.7 57.8 295.2 63.4 293 66.7C298 63.7 293.3 57.2 297.1 55.8C301.2 54.5 297.9 46.1 289.8 48.8Z" fill="#78716C"/>
<path d="M272.3 107.7C283.4 107.7 294.4 107.7 305.5 107.7C305.6 106.5 305 105.4 304 104.9C302.9 104.3 301.5 104.4 300.6 105.3C301.3 103.2 300 101.1 298.3 100.6C296.9 100.2 295.2 101 294.4 102.4C293.2 101.1 291.4 100.9 290.5 101.7C289.7 102.3 289.8 103.4 289.8 103.7C289.2 103.6 288.7 104 288.6 104.5C288.5 104.9 288.7 105.3 289 105.5C288.2 104.8 287.1 104.6 286.3 105C285.5 105.3 285.1 106.1 285 106.3C285 106.3 285 105.5 284.3 105C283.8 104.7 283.1 104.7 282.6 105.1C281.8 103.9 280.3 103.4 279.1 103.9C277.8 104.5 277.4 106 277.4 106.1C276.5 105.2 275.1 104.9 274 105.4C272.5 106 272.3 107.6 272.3 107.7Z" fill="#44403C"/>
<path d="M304.1 104.9C303.3 104.4 302.3 104.4 301.4 104.8C301.4 104.8 304.1 105 303.4 106.4C303.4 106.4 303.1 107 299.7 107C297.4 107 281.2 107 272.5 107C272.3 107.4 272.3 107.7 272.3 107.8C283.4 107.8 294.4 107.8 305.5 107.8C305.6 106.5 305 105.4 304.1 104.9Z" fill="#A8A29E"/>
<path d="M277.6 106.6C279 104 280.9 104.2 282.3 105.7C283.5 105.2 284.2 105.5 284.9 106.8C286.2 105.1 288 105.2 289.5 106.1C289.2 104.8 289.9 104.2 290.8 104.5C291.2 102.4 293.4 102.4 294.7 103.5C297.4 101.6 299.7 102.5 300.6 105.2C301.3 103.1 300 101 298.3 100.5C296.9 100.1 295.2 100.9 294.4 102.3C293.2 101 291.4 100.8 290.5 101.6C289.7 102.2 289.8 103.3 289.8 103.6C289.2 103.5 288.7 103.9 288.6 104.4C288.5 104.8 288.7 105.2 289 105.4C288.2 104.7 287.1 104.5 286.3 104.9C285.5 105.2 285.1 106 285 106.2C285 106.2 285 105.4 284.3 104.9C283.8 104.6 283.1 104.6 282.6 105C281.8 103.8 280.3 103.3 279.1 103.8C277.8 104.4 277.4 105.9 277.4 106C276.5 105.1 275.1 104.8 274 105.3C273.6 105.5 273.4 105.7 273.2 105.9C274.5 105.3 276 105.6 277.6 106.6Z" fill="#57534E"/>
<path d="M332.5 110.5C336.3 110.5 340 110.5 343.8 110.5C344.1 109.5 343.6 108.4 342.8 108.1C342.1 107.8 341.4 108 340.8 108.5C340.9 107 340 105.7 338.8 105.4C337.3 105 335.5 106.2 335.3 108.2C334.6 107.8 333.7 107.9 333.1 108.4C332.5 109 332.3 109.8 332.5 110.5Z" fill="#57534E"/>
<path d="M333.1 109C333.7 108.5 334.6 108.4 335.3 108.8C335.5 106.8 337.3 105.7 338.8 106C340 106.3 340.9 107.6 340.8 109.1C341.4 108.6 342.2 108.4 342.8 108.7C343.4 108.9 343.8 109.5 343.9 110.2C344 109.3 343.6 108.4 342.8 108.1C342.1 107.8 341.4 108 340.8 108.5C340.9 107 340 105.7 338.8 105.4C337.3 105 335.5 106.2 335.3 108.2C334.6 107.8 333.7 107.9 333.1 108.4C332.6 108.8 332.4 109.5 332.5 110.1C332.5 109.7 332.7 109.3 333.1 109Z" fill="#292524"/>
<path d="M342.8 108.1C342.6 108 342.4 108 342.2 108C342.5 108.5 342.7 109.1 342 109.3C341 109.6 335.1 109.6 332.4 109.6C332.4 109.9 332.4 110.2 332.5 110.5C336.3 110.5 340 110.5 343.8 110.5C344.2 109.5 343.7 108.5 342.8 108.1Z" fill="#A8A29E"/>
<path d="M452.3 99.4C452.3 99.4 455.9 100.4 456 96.5999C456.1 93.5999 461.1 93.1 460.6 88.3C460.2 83.9 457.3 84.9 455.5 82.3C453.7 79.7 451.6 79.4 450.1 79.9C448.7 80.3 447.6 81.5999 447.3 83.4999C447.1 84.9999 446.7 85.6 444.7 86.3C442.7 87.1 442.5 89.3 444.7 90.8C446.9 92.3 445 95.4 446.4 96.9C447.8 98.4 449 96.9 449.1 98C449.2 99.2 451.4 100 452.3 99.4Z" fill="#57534E"/>
<path d="M451.8 106.3C451.8 106.3 452 103.1 451.8 101.2C451.6 99.4 451.7 95.3 451.9 94.2C452.1 93 450.4 91.6 449.7 88.9C449.7 88.9 449.6 88.2 449.7 88.4C449.8 88.6 450.1 89.7 450.3 89.9C450.4 90.1 451.3 91.6 451.4 91.8C451.6 92 452 93.1 452.2 93C452.4 92.8 452.7 92.3 452.8 91.7C452.9 91.1 453.2 89.8 453.3 89.4C453.4 89 453.7 88 454.1 87.7C454.1 87.7 454.4 87.5 454.1 88C453.8 88.5 453.7 89.3 453.6 89.7C453.5 90.1 453.4 91.3 453.2 91.9C453 92.5 453.3 93.2 452.8 93.9C452.4 94.5 452.3 96.4 452.4 97.2C452.5 98 452.4 100.8 452.6 101.5C452.8 102.2 453 106.1 453.2 106.4H451.8V106.3Z" fill="#7C5833"/>
<path d="M455.5 82.2C455.2 81.8 455 81.5 454.7 81.3C454.7 81.3 454.9 83.9 457.8 85.1C460.8 86.3 459.2 92.3 456.5 92.8C453.8 93.3 456.2 98.9 453.5 99.6C454.5 99.5 455.9 99 456 96.7C456.1 93.7 461.1 93.2 460.6 88.4C460.2 83.8 457.3 84.8 455.5 82.2Z" fill="#A8A29E"/>
<path d="M454.3 80.8001C452.8 79.5001 451.3 79.4001 450.1 79.8001C448.7 80.2001 447.6 81.5001 447.3 83.4001C447.1 84.9001 446.7 85.5001 444.7 86.2001C442.7 87.0001 442.5 89.2001 444.7 90.7001C446.9 92.2001 445 95.3001 446.4 96.8001C447.3 97.8001 448.1 97.5001 448.6 97.5001C446.1 96.9001 447.6 94.8001 448.2 92.5001C448.8 90.1001 445.3 88.4001 447.4 87.1001C449.7 85.6001 448.3 83.6001 449.3 81.7001C450.6 79.2001 454.2 80.8001 454.3 80.8001Z" fill="#78716C"/>
<path d="M447.2 107.7C453.1 107.7 459.1 107.7 465 107.7C465.5 106.1 464.7 104.5 463.4 103.9C462.4 103.5 461.1 103.7 460.2 104.6C460.4 102.2 458.9 100.2 457 99.7C454.7 99.1 451.8 101 451.5 104.1C450.4 103.5 449 103.6 448 104.4C447.2 105.2 446.8 106.5 447.2 107.7Z" fill="#44403C"/>
<path d="M448.1 105.2C449.1 104.4 450.5 104.2 451.6 104.9C451.9 101.8 454.8 100 457.1 100.5C459 101 460.4 103 460.3 105.4C461.2 104.6 462.4 104.3 463.5 104.7C464.4 105.1 465.1 106 465.2 107.1C465.4 105.7 464.7 104.3 463.5 103.9C462.5 103.5 461.2 103.7 460.3 104.6C460.5 102.2 459 100.2 457.1 99.7C454.8 99.1 451.9 101 451.6 104.1C450.5 103.5 449.1 103.6 448.1 104.4C447.3 105.1 447 106.1 447.1 107.1C447.2 106.4 447.5 105.7 448.1 105.2Z" fill="#57534E"/>
<path d="M463.4 103.9C463.1 103.8 462.8 103.7 462.4 103.7C462.9 104.5 463.2 105.4 462.1 105.8C460.5 106.3 451.3 106.3 447.1 106.3C447 106.8 447 107.2 447.2 107.7C453.1 107.7 459.1 107.7 465 107.7C465.5 106.1 464.7 104.4 463.4 103.9Z" fill="#A8A29E"/>
<path d="M346.1 43.8V48C346.1 48 348.2 46.3 350.5 47C351.9 47.5 353.9 48 356.3 46.2C356.3 46.2 353.3 47 352 44.9C350.6 43 348.2 42.4 346.1 43.8Z" fill="#EE554C"/>
<path d="M346.6 43.5C346.5 45.1 346.6 46.4 347 47.4C347.8 47 349.1 46.6 350.4 47C350.6 47.1 350.8 47.1 351 47.2C350.9 46.4 351.1 45.3 351.6 44.5C350.3 43 348.4 42.6 346.6 43.5Z" fill="#F06C55"/>
<path d="M350.4 47.1C350.3 45.9 350.8 44.6 351.1 44C350 43 348.5 42.8 347 43.4C346.8 45.1 347.2 46.4 347.6 47.3C347.9 47.2 348.3 47.1 348.7 47C348.5 45 348.9 43.9 349.1 45.4C349.2 46.1 349.3 46.6 349.5 47C349.8 46.9 350.1 47 350.4 47.1Z" fill="#FD7259"/>
<path d="M353.6 46.2C353.7 46.5 353.7 47.1 353.4 47.5C354.3 47.4 355.2 46.9999 356.2 46.2999C356.2 46.2999 354.9 46.6 353.6 46.2Z" fill="#F06C55"/>
<path d="M346.1 43.7V108C346 108 346 108 345.9 108C345.8 108 345.8 108 345.7 108V43.7C345.7 43.6 345.8 43.5 345.9 43.5C345.9 43.5 345.9 43.5 346 43.5C346.1 43.6 346.1 43.7 346.1 43.7Z" fill="white"/>
<path d="M346.1 43.7V108C346 108 346 108 345.9 108C345.8 108 345.8 108 345.7 108V106.7C345.9 106.9 345.9 106.3 345.9 106.3V43.6C345.9 43.6 345.9 43.6 346 43.6C346.1 43.6 346.1 43.7 346.1 43.7Z" fill="#A8A29E"/>
<path d="M346.1 43.8H345.7V48H346.1V43.8Z" fill="#F06C55"/>
<path d="M345.7 47.6C346 46.7 346 44.4 345.9 43.8H345.7V47.6Z" fill="#FD7259"/>
<path d="M369.8 65.6C372.175 65.6 374.1 63.6748 374.1 61.3C374.1 58.9252 372.175 57 369.8 57C367.425 57 365.5 58.9252 365.5 61.3C365.5 63.6748 367.425 65.6 369.8 65.6Z" fill="white"/>
</g>
<defs>
<clipPath id="clip0_1344_9305">
<rect width="495" height="111" fill="white"/>
</clipPath>
</defs>
</svg>
