<svg width="20" height="20" viewBox="0 0 20 20" fill="black" xmlns="http://www.w3.org/2000/svg">
<path d="M9.5625 2.11719C9.8125 1.96094 10.1562 1.96094 10.4062 2.11719L14.7188 4.99219H17.75C18.9688 4.99219 20 6.02344 20 7.24219V15.7422C20 16.9922 18.9688 17.9922 17.75 17.9922H12H8H2.25C1 17.9922 0 16.9922 0 15.7422V7.24219C0 6.02344 1 4.99219 2.25 4.99219H5.25L9.5625 2.11719ZM17.75 16.4922C18.1562 16.4922 18.5 16.1797 18.5 15.7422V7.24219C18.5 6.83594 18.1562 6.49219 17.75 6.49219H14.5C14.3438 6.49219 14.1875 6.46094 14.0625 6.36719L10 3.64844L5.90625 6.36719C5.78125 6.46094 5.625 6.49219 5.5 6.49219H2.25C1.8125 6.49219 1.5 6.83594 1.5 7.24219V15.7422C1.5 16.1797 1.8125 16.4922 2.25 16.4922H8V13.9922C8 12.8984 8.875 11.9922 10 11.9922C11.0938 11.9922 12 12.8984 12 13.9922V16.4922H17.75ZM3.5 7.99219H4.5C4.75 7.99219 5 8.24219 5 8.49219V10.4922C5 10.7734 4.75 10.9922 4.5 10.9922H3.5C3.21875 10.9922 3 10.7734 3 10.4922V8.49219C3 8.24219 3.21875 7.99219 3.5 7.99219ZM15 8.49219C15 8.24219 15.2188 7.99219 15.5 7.99219H16.5C16.75 7.99219 17 8.24219 17 8.49219V10.4922C17 10.7734 16.75 10.9922 16.5 10.9922H15.5C15.2188 10.9922 15 10.7734 15 10.4922V8.49219ZM3.5 11.9922H4.5C4.75 11.9922 5 12.2422 5 12.4922V14.4922C5 14.7734 4.75 14.9922 4.5 14.9922H3.5C3.21875 14.9922 3 14.7734 3 14.4922V12.4922C3 12.2422 3.21875 11.9922 3.5 11.9922ZM15 12.4922C15 12.2422 15.2188 11.9922 15.5 11.9922H16.5C16.75 11.9922 17 12.2422 17 12.4922V14.4922C17 14.7734 16.75 14.9922 16.5 14.9922H15.5C15.2188 14.9922 15 14.7734 15 14.4922V12.4922ZM7.5 7.99219C7.5 7.11719 7.96875 6.30469 8.75 5.83594C9.5 5.39844 10.4688 5.39844 11.25 5.83594C12 6.30469 12.5 7.11719 12.5 7.99219C12.5 8.89844 12 9.71094 11.25 10.1797C10.4688 10.6172 9.5 10.6172 8.75 10.1797C7.96875 9.71094 7.5 8.89844 7.5 7.99219ZM10 6.49219C9.71875 6.49219 9.5 6.74219 9.5 6.99219V7.99219C9.5 8.27344 9.71875 8.49219 10 8.49219H10.75C11 8.49219 11.25 8.27344 11.25 7.99219C11.25 7.74219 11 7.49219 10.75 7.49219H10.5V6.99219C10.5 6.74219 10.25 6.49219 10 6.49219Z" />
</svg>
