<svg width="20" height="20" viewBox="0 0 20 20" fill="none" xmlns="http://www.w3.org/2000/svg">
<path d="M10.4297 0.117188L19.2969 5.03906C19.7266 5.27344 20 5.70312 20 6.17188C20 6.91406 19.375 7.5 18.6328 7.5H1.32812C0.585938 7.5 0 6.91406 0 6.17188C0 5.70312 0.234375 5.27344 0.664062 5.03906L9.53125 0.117188C9.80469 -0.0390625 10.1562 -0.0390625 10.4297 0.117188ZM8.90625 5.625C8.78906 5.46875 8.75 5.23438 8.75 5C8.75 4.33594 9.29688 3.75 10 3.75C10.6641 3.75 11.25 4.33594 11.25 5C11.25 5.23438 11.1719 5.46875 11.0547 5.625H16.5234L10 2.03125L3.4375 5.625H8.90625ZM2.5 8.75H4.375V15H6.875V8.75H8.75V15H11.25V8.75H13.125V15H15.625V8.75H17.5V15H17.8125C18.3203 15 18.75 15.4297 18.75 15.9375C18.75 16.4844 18.3203 16.875 17.8125 16.875H2.5C1.95312 16.875 1.5625 16.4844 1.5625 15.9375C1.5625 15.4297 1.95312 15 2.5 15V8.75ZM1.25 18.125H19.0625C19.5703 18.125 20 18.5547 20 19.0625C20 19.6094 19.5703 20 19.0625 20H1.25C0.703125 20 0.3125 19.6094 0.3125 19.0625C0.3125 18.5547 0.703125 18.125 1.25 18.125Z" fill="black"/>
</svg>
