<svg width="109" height="24" viewBox="0 0 109 24" fill="none" xmlns="http://www.w3.org/2000/svg">
<g clip-path="url(#clip0_561_4963)">
<path d="M27.1702 11.6237L32.5228 6.52134C32.6267 6.4225 32.7646 6.36721 32.9081 6.36721H36.8478C37.3543 6.36721 37.5995 6.98763 37.2293 7.3333L31.6812 12.5211C31.4679 12.721 31.4445 13.0511 31.6276 13.2789L38.5377 21.867C38.8314 22.2322 38.5717 22.7756 38.1026 22.7756H34.0853C33.915 22.7756 33.7536 22.698 33.648 22.5645L28.5909 16.1928C28.3871 15.9359 28.0068 15.9091 27.7689 16.1347L26.4002 17.4342C26.289 17.5397 26.2265 17.686 26.2265 17.8391V22.2172C26.2265 22.5254 25.9763 22.7756 25.6681 22.7756H22.3621C22.0539 22.7756 21.8037 22.5254 21.8037 22.2172V6.92508C21.8037 6.61683 22.0539 6.36665 22.3621 6.36665H25.6681C25.9763 6.36665 26.2265 6.61683 26.2265 6.92508V11.2194C26.2265 11.7103 26.8145 11.9627 27.1702 11.6237Z" fill="#A72C29"/>
<path d="M55.2579 6.36665C55.5662 6.36665 55.8164 6.61683 55.8164 6.92508V16.7948C55.8164 20.9411 52.5998 23.2782 48.1022 23.2782C43.8056 23.2782 40.4126 20.9406 40.4126 16.7948V6.92508C40.4126 6.61683 40.6628 6.36665 40.971 6.36665H44.2769C44.5852 6.36665 44.8354 6.61683 44.8354 6.92508V16.7948C44.8354 18.6292 46.3431 19.6093 48.1022 19.6093C50.0372 19.6093 51.4193 18.6292 51.4193 16.7948V6.92508C51.4193 6.61683 51.6694 6.36665 51.9777 6.36665H55.2579Z" fill="#A72C29"/>
<path d="M58.4163 6.36665H72.5273C72.8356 6.36665 73.0858 6.61683 73.0858 6.92508V9.50168C73.0858 9.80994 72.8356 10.0601 72.5273 10.0601H68.2414C67.9331 10.0601 67.6829 10.3103 67.6829 10.6185V22.2172C67.6829 22.5254 67.4328 22.7756 67.1245 22.7756H63.8443C63.536 22.7756 63.2859 22.5254 63.2859 22.2172V10.6191C63.2859 10.3109 63.0357 10.0607 62.7274 10.0607H58.4163C58.1081 10.0607 57.8579 9.8105 57.8579 9.50224V6.92564C57.8579 6.61739 58.1081 6.36721 58.4163 6.36721V6.36665Z" fill="#A72C29"/>
<path d="M84.8758 16.1922H80.2129C79.9047 16.1922 79.6545 16.4424 79.6545 16.7507V18.5237C79.6545 18.832 79.9047 19.0821 80.2129 19.0821H89.2734C89.5817 19.0821 89.8319 19.3323 89.8319 19.6406V22.2172C89.8319 22.5254 89.5817 22.7756 89.2734 22.7756H75.8153C75.507 22.7756 75.2568 22.5254 75.2568 22.2172V6.92508C75.2568 6.61683 75.507 6.36665 75.8153 6.36665H88.72C89.0283 6.36665 89.2785 6.61683 89.2785 6.92508V9.50168C89.2785 9.80994 89.0283 10.0601 88.72 10.0601H80.2129C79.9047 10.0601 79.6545 10.3103 79.6545 10.6185V12.0906C79.6545 12.3988 79.9047 12.649 80.2129 12.649H84.8758C85.1841 12.649 85.4342 12.8992 85.4342 13.2074V15.6338C85.4342 15.9421 85.1841 16.1922 84.8758 16.1922Z" fill="#A72C29"/>
<path d="M92.8452 22.2172V6.92508C92.8452 6.61683 93.0954 6.36665 93.4036 6.36665H101.992C104.329 6.36665 106.012 7.02002 107.144 8.25136C107.998 9.18115 108.501 10.3617 108.501 11.6941C108.501 13.1259 107.898 14.4075 106.893 15.3624C105.812 16.3927 104.279 16.9958 101.993 16.9958H97.8018C97.4936 16.9958 97.2434 17.246 97.2434 17.5543V22.2172C97.2434 22.5254 96.9932 22.7756 96.685 22.7756H93.4042C93.0959 22.7756 92.8458 22.5254 92.8458 22.2172H92.8452ZM97.2429 10.4935V12.8696C97.2429 13.1778 97.493 13.428 97.8013 13.428H102.243C102.796 13.428 103.249 13.2767 103.55 12.9757C103.877 12.649 104.103 12.1715 104.103 11.6941C104.103 11.2166 103.902 10.7392 103.575 10.4125C103.224 10.0601 102.746 9.93503 102.243 9.93503H97.8013C97.493 9.93503 97.2429 10.1852 97.2429 10.4935Z" fill="#A72C29"/>
<path d="M9.82245 5.86443C15.0488 5.86443 19.2454 9.76004 19.2454 14.5335C19.2454 19.3835 15.0488 23.2785 9.82245 23.2785C4.59609 23.2785 0.5 19.3835 0.5 14.5335C0.5 9.75948 4.59609 5.86443 9.82245 5.86443ZM9.82245 19.6096C12.5364 19.6096 14.6724 17.2977 14.6724 14.5335C14.6724 11.8201 12.537 9.55845 9.82245 9.55845C7.13416 9.55845 5.04786 11.8201 5.04786 14.5335C5.04786 17.2977 7.1336 19.6096 9.82245 19.6096Z" fill="#A72C29"/>
<path d="M11.2894 5.24069C13.1596 6.07164 19.3934 4.40975 20.6398 1.50032C20.6398 5.45457 18.9773 11.4739 11.2894 11.6822C3.60149 11.8899 11.2894 5.24069 11.2894 5.24069Z" fill="#A72C29" stroke="white" stroke-width="0.542044" stroke-miterlimit="10"/>
</g>
<defs>
<clipPath id="clip0_561_4963">
<rect width="108" height="23.1391" fill="white" transform="translate(0.5 0.140137)"/>
</clipPath>
</defs>
</svg>
