<svg width="379" height="95" viewBox="0 0 379 95" fill="none" xmlns="http://www.w3.org/2000/svg">
<g clip-path="url(#clip0_3150_6666)">
<path d="M47.2271 94.4314C46.8445 94.4314 46.4624 94.4271 46.0787 94.4179C33.9603 94.1328 22.522 89.2112 13.8711 80.5603C5.2197 71.9089 0.298629 60.4706 0.0135537 48.3522C-0.288865 35.5173 4.47829 23.3979 13.4359 14.2267C22.3968 5.05223 34.3933 0 47.2157 0H86.0234C90.6594 0 94.4309 3.77156 94.4309 8.40755V47.2152C94.4309 60.0376 89.3787 72.0341 80.2042 80.995C71.3073 89.6849 59.6344 94.4314 47.2271 94.4314ZM47.2157 5.7156C35.9455 5.7156 25.4015 10.157 17.5251 18.221C9.65192 26.2817 5.4625 36.9346 5.72807 48.2178C5.97846 58.8605 10.3055 68.9107 17.9126 76.5183C25.5202 84.1254 35.5705 88.453 46.2131 88.7034C57.4844 88.9673 68.1493 84.779 76.2105 76.9058C84.2739 69.0294 88.7153 58.4849 88.7153 47.2152V8.40755C88.7153 6.9231 87.5078 5.7156 86.0234 5.7156H47.2157Z" fill="white"/>
<path d="M47.1993 81.3598C28.3784 81.3598 13.0667 66.0427 13.0667 47.2153C13.0667 28.3884 28.3784 13.0713 47.1993 13.0713C66.0197 13.0713 81.3315 28.3884 81.3315 47.2153C81.3315 66.0427 66.0197 81.3598 47.1993 81.3598ZM47.1993 18.3457C31.2856 18.3457 18.3393 31.2966 18.3393 47.2153C18.3393 63.1345 31.2856 76.0854 47.1993 76.0854C63.1125 76.0854 76.0589 63.1345 76.0589 47.2153C76.0589 31.2966 63.1125 18.3457 47.1993 18.3457Z" fill="white"/>
<path d="M47.1992 68.0641C35.7069 68.0641 26.3574 58.7114 26.3574 47.2151C26.3574 35.7189 35.7069 26.3667 47.1992 26.3667C58.6914 26.3667 68.0404 35.7189 68.0404 47.2151C68.0404 58.7114 58.6914 68.0641 47.1992 68.0641ZM47.1992 32.0823C38.8574 32.0823 32.071 38.871 32.071 47.2151C32.071 55.5598 38.8574 62.3485 47.1992 62.3485C55.5404 62.3485 62.3267 55.5598 62.3267 47.2151C62.3267 38.871 55.5404 32.0823 47.1992 32.0823Z" fill="white"/>
<path d="M115.431 50.4526C115.431 41.7377 119.788 29.996 133.043 29.996C141.456 29.996 146.237 35.201 146.176 43.5533C146.176 52.1473 141.94 64.0099 128.624 64.0099C120.212 64.0099 115.431 58.8655 115.431 50.4526ZM137.461 42.9479C137.461 38.4089 135.767 36.4112 132.498 36.4112C125.72 36.4112 124.206 45.8529 124.206 51.0579C124.206 55.5969 125.901 57.5339 129.169 57.5339C135.948 57.5339 137.401 48.153 137.461 42.9479Z" fill="white"/>
<path d="M175.166 37.1373L158.28 56.3836H172.684L170.929 63.0412H146.841L147.628 56.8676L164.574 37.5611H151.683L152.652 30.9642H175.952L175.166 37.1373Z" fill="white"/>
<path d="M177.162 50.4523C177.162 41.7375 181.52 29.9957 194.774 29.9957C203.187 29.9957 207.968 35.2008 207.907 43.5531C207.907 52.1471 203.671 64.0097 190.356 64.0097C181.943 64.0097 177.162 58.8653 177.162 50.4523ZM199.192 42.9477C199.192 38.4087 197.498 36.411 194.23 36.411C187.451 36.411 185.938 45.8526 185.938 51.0577C185.938 55.5967 187.632 57.5337 190.901 57.5337C197.679 57.5337 199.132 48.1527 199.192 42.9477Z" fill="white"/>
<path d="M241.618 39.982L238.41 63.0412H229.937L232.963 41.5554C233.448 37.9849 232.358 37.0771 230.724 37.0771C227.879 37.0771 225.277 40.466 222.917 45.0055L220.375 63.0412H211.902L216.38 30.9642H223.704L223.461 36.7741C226.245 32.659 230.058 29.9957 234.416 29.9957C239.621 29.9957 242.526 33.6876 241.618 39.982Z" fill="white"/>
<path d="M255.053 51.3C255.295 55.8996 257.655 57.5337 261.045 57.5337C263.889 57.5337 266.371 56.5652 269.336 54.568L272.483 59.7731C268.973 62.3149 264.797 64.0097 260.016 64.0097C250.998 64.0097 246.459 58.6837 246.459 50.5737C246.459 41.7976 251.058 29.9957 264.253 29.9957C271.818 29.9957 275.691 33.9299 275.691 38.6504C275.691 47.6682 265.342 50.2708 255.053 51.3ZM267.097 39.0135C267.097 37.6218 266.31 35.927 263.647 35.927C258.624 35.927 256.324 41.0107 255.476 45.8526C263.768 45.1871 267.097 42.5846 267.097 39.0135Z" fill="white"/>
<path fill-rule="evenodd" clip-rule="evenodd" d="M283.667 68.4785H372.269L378.186 25.9526H289.584L283.667 68.4785ZM304.228 36.5912H314.665L315.932 32.0278H298.734L294.635 61.2692H311.918L312.595 56.7053H301.439L302.579 48.6343H311.665L312.214 44.1555H303.171L304.228 36.5912ZM341.371 43.0985C341.371 52.6062 337.23 61.2691 324.933 61.2691H316.608L320.707 32.0277H328.229C335.074 32.0277 341.371 34.0557 341.371 43.0985ZM326.201 36.5911L323.412 56.7051H325.863C333.131 56.7051 335.033 49.0992 335.033 43.0985C335.033 37.6474 332.201 36.5911 328.651 36.5911H326.201ZM354.259 61.9454C361.484 61.9454 365.795 57.5929 366.598 51.719L369.345 32.0277H363.217L360.47 51.254C359.921 55.1838 358.146 57.1702 354.682 57.1702C351.428 57.1702 350.245 55.3529 350.794 51.4231L353.54 32.0277H347.371L344.624 51.5499C343.779 57.6352 346.906 61.9454 354.259 61.9454Z" fill="white"/>
</g>
<defs>
<clipPath id="clip0_3150_6666">
<rect width="378.186" height="94.4314" fill="white"/>
</clipPath>
</defs>
</svg>
