<svg width="68" height="14" viewBox="0 0 68 14" fill="none" xmlns="http://www.w3.org/2000/svg">
<path d="M11.2246 6.90259V7.47388C11.2246 8.44653 11.0898 9.31958 10.8203 10.093C10.5566 10.8665 10.1787 11.5256 9.68652 12.0706C9.2002 12.6155 8.62012 13.0344 7.94629 13.3274C7.27832 13.6145 6.53711 13.7581 5.72266 13.7581C4.9082 13.7581 4.16406 13.6145 3.49023 13.3274C2.81641 13.0344 2.23047 12.6155 1.73242 12.0706C1.24023 11.5256 0.859375 10.8665 0.589844 10.093C0.320312 9.31958 0.185547 8.44653 0.185547 7.47388V6.90259C0.185547 5.92993 0.320312 5.05688 0.589844 4.28345C0.859375 3.50415 1.2373 2.84204 1.72363 2.29712C2.21582 1.7522 2.79883 1.33618 3.47266 1.04907C4.14648 0.756104 4.89062 0.609619 5.70508 0.609619C6.51953 0.609619 7.26367 0.756104 7.9375 1.04907C8.61133 1.33618 9.19141 1.7522 9.67773 2.29712C10.1699 2.84204 10.5508 3.50415 10.8203 4.28345C11.0898 5.05688 11.2246 5.92993 11.2246 6.90259ZM8.33301 7.47388V6.88501C8.33301 6.23462 8.27441 5.6604 8.15723 5.16235C8.04004 4.65845 7.87012 4.23657 7.64746 3.89673C7.4248 3.55688 7.14941 3.302 6.82129 3.13208C6.49316 2.9563 6.12109 2.86841 5.70508 2.86841C5.27148 2.86841 4.89355 2.9563 4.57129 3.13208C4.24902 3.302 3.97656 3.55688 3.75391 3.89673C3.53711 4.23657 3.37012 4.65845 3.25293 5.16235C3.1416 5.6604 3.08594 6.23462 3.08594 6.88501V7.47388C3.08594 8.11841 3.1416 8.69263 3.25293 9.19653C3.37012 9.69458 3.54004 10.1165 3.7627 10.4622C3.98535 10.8079 4.25781 11.0686 4.58008 11.2444C4.9082 11.4202 5.28906 11.5081 5.72266 11.5081C6.13867 11.5081 6.50781 11.4202 6.83008 11.2444C7.1582 11.0686 7.43359 10.8079 7.65625 10.4622C7.87891 10.1165 8.0459 9.69458 8.15723 9.19653C8.27441 8.69263 8.33301 8.11841 8.33301 7.47388ZM15.8477 0.7854V13.5823H12.9824V0.7854H15.8477ZM23.4941 0.7854L18.4844 7.18384L15.5664 10.3479L15.0479 7.68481L16.9727 4.92505L19.9785 0.7854H23.4941ZM20.1719 13.5823L16.6387 7.73755L18.8184 6.04126L23.5645 13.5823H20.1719ZM31.4658 0.7854H34.3311V9.18774C34.3311 10.1838 34.1201 11.0217 33.6982 11.7014C33.2822 12.3811 32.7021 12.8938 31.958 13.2395C31.2139 13.5852 30.3525 13.7581 29.374 13.7581C28.3896 13.7581 27.5225 13.5852 26.7725 13.2395C26.0283 12.8938 25.4424 12.3811 25.0146 11.7014C24.5928 11.0217 24.3818 10.1838 24.3818 9.18774V0.7854H27.2559V9.18774C27.2559 9.73853 27.3379 10.1897 27.502 10.5413C27.6719 10.887 27.915 11.1418 28.2314 11.3059C28.5479 11.4641 28.9287 11.5432 29.374 11.5432C29.8193 11.5432 30.1973 11.4641 30.5078 11.3059C30.8242 11.1418 31.0615 10.887 31.2197 10.5413C31.3838 10.1897 31.4658 9.73853 31.4658 9.18774V0.7854ZM42.3379 0.7854V13.5823H39.4814V0.7854H42.3379ZM46.2314 0.7854V3.00903H35.667V0.7854H46.2314ZM56.3477 11.3674V13.5823H49.5361V11.3674H56.3477ZM50.5117 0.7854V13.5823H47.6465V0.7854H50.5117ZM55.4688 5.93579V8.08032H49.5361V5.93579H55.4688ZM56.3564 0.7854V3.00903H49.5361V0.7854H56.3564ZM62.7988 9.13501H59.582V6.91138H62.7988C63.2734 6.91138 63.6543 6.83228 63.9414 6.67407C64.2344 6.51587 64.4482 6.29907 64.583 6.02368C64.7236 5.74243 64.7939 5.42603 64.7939 5.07446C64.7939 4.71118 64.7236 4.37427 64.583 4.06372C64.4482 3.74731 64.2344 3.49243 63.9414 3.29907C63.6543 3.10571 63.2734 3.00903 62.7988 3.00903H60.6191V13.5823H57.7539V0.7854H62.7988C63.8184 0.7854 64.6914 0.969971 65.418 1.33911C66.1504 1.70825 66.71 2.21509 67.0967 2.85962C67.4893 3.49829 67.6855 4.23071 67.6855 5.05688C67.6855 5.88306 67.4893 6.60083 67.0967 7.21021C66.71 7.81958 66.1504 8.29419 65.418 8.63403C64.6914 8.96802 63.8184 9.13501 62.7988 9.13501Z" fill="#A72C29"/>
</svg>
