<?xml version="1.0" encoding="UTF-8"?>
<svg xmlns="http://www.w3.org/2000/svg" width="84.293" height="23.511" viewBox="0 0 84.293 23.511">
  <g>
    <g>
      <path d="M23.84,9.786l3.594-3.426c.07-.066,.162-.104,.259-.104h2.646c.34,0,.505,.417,.256,.649l-3.726,3.484c-.143,.134-.159,.356-.036,.509l4.64,5.767c.197,.245,.023,.61-.292,.61h-2.698c-.114,0-.223-.052-.294-.142l-3.396-4.279c-.137-.172-.392-.19-.552-.039l-.919,.873c-.075,.071-.117,.169-.117,.272v2.94c0,.207-.168,.375-.375,.375h-2.22c-.207,0-.375-.168-.375-.375V6.631c0-.207,.168-.375,.375-.375h2.22c.207,0,.375,.168,.375,.375v2.884c0,.33,.395,.499,.634,.271Z" style="fill: #fff;"/>
      <path d="M42.701,6.256c.207,0,.375,.168,.375,.375v6.628c0,2.784-2.16,4.354-5.18,4.354-2.885,0-5.164-1.57-5.164-4.354V6.631c0-.207,.168-.375,.375-.375h2.22c.207,0,.375,.168,.375,.375v6.628c0,1.232,1.013,1.89,2.194,1.89,1.299,0,2.228-.658,2.228-1.89V6.631c0-.207,.168-.375,.375-.375h2.203Z" style="fill: #fff;"/>
      <path d="M44.822,6.256h9.476c.207,0,.375,.168,.375,.375v1.73c0,.207-.168,.375-.375,.375h-2.878c-.207,0-.375,.168-.375,.375v7.789c0,.207-.168,.375-.375,.375h-2.203c-.207,0-.375-.168-.375-.375v-7.789c0-.207-.168-.375-.375-.375h-2.895c-.207,0-.375-.168-.375-.375v-1.73c0-.207,.168-.375,.375-.375Z" style="fill: #fff;"/>
      <path d="M62.59,12.854h-3.131c-.207,0-.375,.168-.375,.375v1.191c0,.207,.168,.375,.375,.375h6.084c.207,0,.375,.168,.375,.375v1.73c0,.207-.168,.375-.375,.375h-9.037c-.207,0-.375-.168-.375-.375V6.631c0-.207,.168-.375,.375-.375h8.666c.207,0,.375,.168,.375,.375v1.73c0,.207-.168,.375-.375,.375h-5.713c-.207,0-.375,.168-.375,.375v.988c0,.207,.168,.375,.375,.375h3.131c.207,0,.375,.168,.375,.375v1.629c0,.207-.168,.375-.375,.375Z" style="fill: #fff;"/>
      <path d="M67.942,16.9V6.631c0-.207,.168-.375,.375-.375h5.767c1.569,0,2.7,.439,3.459,1.266,.573,.624,.911,1.417,.911,2.312,0,.962-.405,1.822-1.08,2.464-.725,.692-1.755,1.097-3.29,1.097h-2.814c-.207,0-.375,.168-.375,.375v3.131c0,.207-.168,.375-.375,.375h-2.203c-.207,0-.375-.168-.375-.375Zm2.953-7.873v1.596c0,.207,.168,.375,.375,.375h2.983c.371,0,.675-.101,.878-.304,.219-.219,.371-.54,.371-.861s-.135-.641-.354-.861c-.236-.237-.557-.321-.895-.321h-2.983c-.207,0-.375,.168-.375,.375Z" style="fill: #fff;"/>
      <rect width="84.293" height="23.511" style="fill: none;"/>
      <path d="M14.846,9.811c.378,.548,.601,1.214,.601,1.929,0,1.856-1.434,3.409-3.257,3.409-1.805,0-3.206-1.552-3.206-3.409,0-1.275,.687-2.4,1.718-2.961-.009-.939,1.031-2.141,1.74-2.849-.084-.003-.167-.012-.252-.012-3.51,0-6.26,2.616-6.26,5.822,0,3.257,2.751,5.873,6.26,5.873s6.328-2.616,6.328-5.873c0-1.188-.389-2.294-1.054-3.217-.657,.576-1.511,1.038-2.618,1.288Z" style="fill: #fff;"/>
      <path d="M16.881,5.235c-1.393,.547-2.899,.738-3.666,.48-.773,.689-2.443,2.424-2.101,3.304,.169,.437,.878,.653,2.058,.619,4.963-.134,5.91-3.981,6.068-5.95-.646,.783-1.704,1.29-2.358,1.547Z" style="fill: #fff;"/>
    </g>
  </g>
</svg>
