<svg width="108" height="24" viewBox="0 0 108 24" fill="none" xmlns="http://www.w3.org/2000/svg">
<path d="M26.6702 11.6238L32.0228 6.52138C32.1267 6.42254 32.2646 6.36726 32.4081 6.36726H36.3478C36.8543 6.36726 37.0995 6.98767 36.7293 7.33334L31.1812 12.5212C30.9679 12.7211 30.9445 13.0511 31.1276 13.279L38.0377 21.8671C38.3314 22.2323 38.0717 22.7756 37.6026 22.7756H33.5853C33.415 22.7756 33.2536 22.698 33.148 22.5645L28.0909 16.1929C27.8871 15.936 27.5068 15.9092 27.2689 16.1348L25.9002 17.4342C25.789 17.5398 25.7265 17.6861 25.7265 17.8391V22.2172C25.7265 22.5255 25.4763 22.7756 25.1681 22.7756H21.8621C21.5539 22.7756 21.3037 22.5255 21.3037 22.2172V6.92513C21.3037 6.61688 21.5539 6.3667 21.8621 6.3667H25.1681C25.4763 6.3667 25.7265 6.61688 25.7265 6.92513V11.2195C25.7265 11.7103 26.3145 11.9627 26.6702 11.6238V11.6238Z" fill="black"/>
<path d="M54.7579 6.3667C55.0662 6.3667 55.3164 6.61688 55.3164 6.92513V16.7948C55.3164 20.9412 52.0998 23.2782 47.6022 23.2782C43.3056 23.2782 39.9126 20.9406 39.9126 16.7948V6.92513C39.9126 6.61688 40.1628 6.3667 40.471 6.3667H43.7769C44.0852 6.3667 44.3354 6.61688 44.3354 6.92513V16.7948C44.3354 18.6293 45.8431 19.6093 47.6022 19.6093C49.5372 19.6093 50.9193 18.6293 50.9193 16.7948V6.92513C50.9193 6.61688 51.1694 6.3667 51.4777 6.3667H54.7579V6.3667Z" fill="black"/>
<path d="M57.9163 6.3667H72.0273C72.3356 6.3667 72.5858 6.61688 72.5858 6.92513V9.50173C72.5858 9.80998 72.3356 10.0602 72.0273 10.0602H67.7414C67.4331 10.0602 67.1829 10.3103 67.1829 10.6186V22.2172C67.1829 22.5255 66.9328 22.7756 66.6245 22.7756H63.3443C63.036 22.7756 62.7859 22.5255 62.7859 22.2172V10.6192C62.7859 10.3109 62.5357 10.0607 62.2274 10.0607H57.9163C57.6081 10.0607 57.3579 9.81054 57.3579 9.50229V6.92569C57.3579 6.61743 57.6081 6.36726 57.9163 6.36726V6.3667Z" fill="black"/>
<path d="M84.3758 16.1923H79.7129C79.4047 16.1923 79.1545 16.4425 79.1545 16.7507V18.5237C79.1545 18.832 79.4047 19.0822 79.7129 19.0822H88.7734C89.0817 19.0822 89.3319 19.3324 89.3319 19.6406V22.2172C89.3319 22.5255 89.0817 22.7756 88.7734 22.7756H75.3153C75.007 22.7756 74.7568 22.5255 74.7568 22.2172V6.92513C74.7568 6.61688 75.007 6.3667 75.3153 6.3667H88.22C88.5283 6.3667 88.7785 6.61688 88.7785 6.92513V9.50173C88.7785 9.80998 88.5283 10.0602 88.22 10.0602H79.7129C79.4047 10.0602 79.1545 10.3103 79.1545 10.6186V12.0906C79.1545 12.3989 79.4047 12.649 79.7129 12.649H84.3758C84.6841 12.649 84.9342 12.8992 84.9342 13.2075V15.6339C84.9342 15.9421 84.6841 16.1923 84.3758 16.1923Z" fill="black"/>
<path d="M92.3452 22.2172V6.92513C92.3452 6.61688 92.5954 6.3667 92.9036 6.3667H101.492C103.829 6.3667 105.512 7.02006 106.644 8.2514C107.498 9.18119 108.001 10.3617 108.001 11.6941C108.001 13.1259 107.398 14.4075 106.393 15.3625C105.312 16.3928 103.779 16.9959 101.493 16.9959H97.3018C96.9936 16.9959 96.7434 17.2461 96.7434 17.5543V22.2172C96.7434 22.5255 96.4932 22.7756 96.185 22.7756H92.9042C92.5959 22.7756 92.3458 22.5255 92.3458 22.2172H92.3452ZM96.7429 10.4935V12.8696C96.7429 13.1779 96.993 13.4281 97.3013 13.4281H101.743C102.296 13.4281 102.749 13.2767 103.05 12.9757C103.377 12.649 103.603 12.1716 103.603 11.6941C103.603 11.2167 103.402 10.7392 103.075 10.4125C102.724 10.0602 102.246 9.93507 101.743 9.93507H97.3013C96.993 9.93507 96.7429 10.1853 96.7429 10.4935V10.4935Z" fill="black"/>
<path d="M9.32245 5.8645C14.5488 5.8645 18.7454 9.76012 18.7454 14.5336C18.7454 19.3836 14.5488 23.2786 9.32245 23.2786C4.09609 23.2786 0 19.3836 0 14.5336C0 9.75956 4.09609 5.8645 9.32245 5.8645ZM9.32245 19.6097C12.0364 19.6097 14.1724 17.2978 14.1724 14.5336C14.1724 11.8202 12.037 9.55852 9.32245 9.55852C6.63416 9.55852 4.54786 11.8202 4.54786 14.5336C4.54786 17.2978 6.6336 19.6097 9.32245 19.6097V19.6097Z" fill="black"/>
<path d="M10.7894 5.24061C12.6596 6.07156 18.8934 4.40967 20.1398 1.50024C20.1398 5.45449 18.4773 11.4738 10.7894 11.6821C3.10149 11.8899 10.7894 5.24061 10.7894 5.24061V5.24061Z" fill="#A72C29" stroke="white" stroke-width="0.542044" stroke-miterlimit="10"/>
</svg>
