<svg width="2380" height="228" viewBox="0 0 2380 228" fill="none" xmlns="http://www.w3.org/2000/svg">
<path d="M29.0215 27.5022L44.2761 0.713665L59.5306 27.5022L29.0215 27.5022Z" fill="#541615"/>
<path d="M202 111L186.463 149L166 111L202 111Z" fill="#541615"/>
<rect y="27.5022" width="2379.31" height="85.8208" fill="#FBF3F2"/>
<path d="M107.653 148.795L43.9033 0.713604L123.026 0.713608L186.775 148.795L107.653 148.795Z" fill="#A72C29"/>
<g clip-path="url(#clip0_1341_9297)">
<path d="M71.7855 222.4L61.6578 199.733C60.8304 197.881 58.7059 196.991 56.8055 197.7L33.0604 206.563L58.1527 146.038L96.8556 161.928L71.7855 222.4Z" fill="#FCF9F9" stroke="#A72C29" stroke-width="3.84285"/>
<path d="M119.552 199.733L109.425 222.4L84.3545 161.928L123.044 146.038L148.136 206.562L124.405 197.701C122.505 196.991 120.38 197.881 119.552 199.733Z" fill="#FCF9F9" stroke="#A72C29" stroke-width="3.84285"/>
<path d="M145.627 131.58L143.719 134.256C142.32 136.22 141.923 138.726 142.647 141.026L143.627 144.136C144.12 145.701 143.566 147.405 142.247 148.381L139.59 150.346C137.656 151.777 136.503 154.03 136.475 156.436L136.437 159.722C136.417 161.357 135.366 162.801 133.816 163.321L130.647 164.383C128.368 165.147 126.578 166.934 125.809 169.211L124.755 172.332C124.233 173.879 122.791 174.926 121.159 174.945L117.801 174.984C115.405 175.012 113.16 176.155 111.728 178.075L109.731 180.753C108.756 182.061 107.06 182.611 105.503 182.123L102.29 181.118C100.005 180.403 97.5182 180.793 95.5625 182.174L92.8153 184.113C91.4867 185.051 89.7116 185.051 88.383 184.113L85.6359 182.174C83.6802 180.793 81.1929 180.403 78.9083 181.118L75.6997 182.122C74.1408 182.61 72.4439 182.059 71.4689 180.748L69.4851 178.082C68.0534 176.157 65.8056 175.012 63.4073 174.984L60.0416 174.945C58.4088 174.926 56.9663 173.878 56.4445 172.331L55.3903 169.205C54.6208 166.923 52.8263 165.133 50.5422 164.371L47.3924 163.319C45.8381 162.8 44.784 161.352 44.7671 159.713L44.7332 156.446C44.7082 154.034 43.5531 151.775 41.6133 150.342L38.959 148.383C37.6373 147.407 37.0823 145.698 37.5779 144.132L38.5587 141.032C39.2871 138.73 38.8912 136.219 37.4897 134.253L35.5847 131.58C34.6339 130.246 34.6332 128.456 35.583 127.121L37.4938 124.436C38.8927 122.47 39.2873 119.962 38.5595 117.662L37.5779 114.559C37.0823 112.992 37.6373 111.284 38.959 110.308L41.6133 108.348C43.5531 106.916 44.7082 104.656 44.7332 102.245L44.7671 98.9773C44.784 97.3388 45.8381 95.8913 47.3924 95.3722L50.5422 94.3202C52.8263 93.5574 54.6208 91.7681 55.3903 89.4862L56.4445 86.3602C56.9663 84.813 58.4088 83.7644 60.0416 83.7456L63.4073 83.7068C65.8056 83.6792 68.0534 82.5335 69.4851 80.6092L71.4689 77.9427C72.4439 76.6321 74.1408 76.0812 75.6997 76.569L78.9083 77.573C81.1929 78.2879 83.6802 77.8975 85.6359 76.517L88.383 74.5778C89.7116 73.6399 91.4867 73.6399 92.8153 74.5778L95.5625 76.517C97.5182 77.8975 100.005 78.2879 102.29 77.573L105.503 76.5676C107.06 76.0803 108.756 76.6298 109.731 77.9381L111.728 80.6156C113.16 82.5362 115.405 83.6792 117.801 83.7068L121.157 83.7456C122.79 83.7644 124.232 84.813 124.754 86.3602L125.808 89.4862C126.578 91.7681 128.372 93.5574 130.656 94.3202L133.811 95.374C135.364 95.8925 136.418 97.3374 136.437 98.9741L136.475 102.255C136.503 104.661 137.656 106.914 139.59 108.345L142.247 110.31C143.566 111.285 144.12 112.99 143.627 114.554L142.647 117.667C141.923 119.965 142.318 122.47 143.715 124.433L145.629 127.121C146.578 128.456 146.578 130.246 145.627 131.58Z" fill="#FCF9F9" stroke="#A72C29" stroke-width="3.84285"/>
</g>
<defs>
<clipPath id="clip0_1341_9297">
<rect width="122.01" height="156.596" fill="white" transform="translate(29.5938 70.6615)"/>
</clipPath>
</defs>
</svg>
