<svg width="200" height="200" viewBox="0 0 200 200" fill="none" xmlns="http://www.w3.org/2000/svg">
<path d="M0.0214844 27.5022L15.2761 0.713665L30.5306 27.5022L0.0214844 27.5022Z" fill="#541615"/>
<path d="M78.6532 148.795L14.9033 0.713604L94.0256 0.713608L157.775 148.795L78.6532 148.795Z" fill="#A72C29"/>
<path d="M198.215 105.08L191.552 93.3971C190.207 91.067 189.157 86.8334 189.157 84.1095V70.6212C189.157 67.3066 186.827 63.434 183.971 61.7603L172.255 54.9997C169.925 53.6542 166.807 50.5364 165.462 48.2063L158.701 36.6215C157.06 33.7663 153.155 31.6331 149.84 31.6331H136.286C133.595 31.6331 129.362 30.386 126.999 29.0405L115.316 22.2471C113.937 21.4595 112.132 21 110.196 21C108.292 21 106.455 21.4266 105.076 22.2143L93.393 29.0733C91.0629 30.4188 86.7965 31.6659 84.1054 31.6659H70.6499C67.3353 31.6659 63.4627 33.7991 61.789 36.6543L55.0285 48.272C53.6829 50.6021 50.5652 53.687 48.2351 55.0325L36.6174 61.7603C33.7622 63.4012 31.5634 67.2737 31.5634 70.5884V84.0767C31.5634 86.7678 30.3819 91.0342 29.0364 93.3643L22.243 105.048C20.6021 107.903 20.5693 112.399 22.243 115.254L29.0364 126.937C30.3819 129.267 31.5634 133.501 31.5634 136.225V149.713C31.5634 153.028 33.7622 156.9 36.6174 158.574L48.2679 165.335C50.598 166.68 53.6829 169.798 55.0285 172.128L61.7562 183.779C63.3971 186.634 67.3025 188.865 70.5843 188.865H84.0726C86.7637 188.865 90.9973 190.047 93.3602 191.392L105.043 198.153C106.422 198.941 108.227 199.4 110.163 199.4C112.067 199.4 113.904 198.973 115.283 198.186L126.966 191.425C129.296 190.08 133.563 188.898 136.254 188.898H149.742C153.057 188.898 156.929 186.699 158.603 183.811L165.363 172.128C166.709 169.798 169.827 166.68 172.157 165.335L183.906 158.574C186.761 156.933 189.091 153.028 189.091 149.746V136.258C189.091 133.567 190.141 129.3 191.487 126.97L198.215 115.287C199.888 112.432 199.855 107.936 198.215 105.08Z" fill="#A72C29"/>
<path d="M110.229 40.4941C91.621 40.4941 74.096 47.7469 60.9359 60.907C47.7758 74.0672 40.5229 91.5593 40.5229 110.2C40.5229 128.808 47.7758 146.333 60.9359 159.493C74.096 172.653 91.5882 179.906 110.229 179.906C128.837 179.906 146.362 172.653 159.522 159.493C172.682 146.3 179.935 128.808 179.935 110.167C179.935 91.5593 172.682 74.0343 159.522 60.8742C146.362 47.7141 128.837 40.4941 110.229 40.4941ZM93.426 155.785C95.5263 156.047 97.5611 157.065 99.0379 158.804C100.515 160.576 101.171 162.742 101.04 164.842C98.9394 164.58 96.9047 163.563 95.4279 161.823C93.9839 160.084 93.3275 157.918 93.426 155.785ZM86.5013 152.601C88.5361 153.192 90.3739 154.505 91.5553 156.474C92.7368 158.443 93.0322 160.675 92.5727 162.742C90.538 162.151 88.7001 160.839 87.5187 158.87C86.3701 156.9 86.0419 154.669 86.5013 152.601ZM80.1674 148.335C82.1037 149.221 83.7118 150.829 84.565 152.929C85.4183 155.063 85.3855 157.327 84.5979 159.296C82.6616 158.41 81.0535 156.802 80.2002 154.702C79.3469 152.601 79.3798 150.337 80.1674 148.335ZM72.0285 65.797C73.8991 63.992 76.2948 63.1059 78.7234 63.073C78.5921 65.4688 77.6076 67.8317 75.7369 69.6367C73.8663 71.4417 71.4706 72.3278 69.042 72.3606C69.1405 69.9321 70.1578 67.602 72.0285 65.797ZM58.573 95.3006C60.3452 93.8237 62.5112 93.1674 64.6116 93.2986C64.349 95.399 63.3316 97.4338 61.5923 98.9106C59.8201 100.387 57.6541 101.044 55.5537 100.912C55.7834 98.8121 56.8008 96.7774 58.573 95.3006ZM57.6541 92.4782C58.2448 90.4435 59.5575 88.6056 61.5266 87.4242C63.4957 86.2427 65.7274 85.9474 67.7949 86.4068C67.2042 88.4415 65.8915 90.2794 63.9224 91.4608C61.9861 92.6095 59.7544 92.9048 57.6541 92.4782ZM56.8993 103.571C58.4089 101.831 60.4436 100.847 62.544 100.65C62.6424 102.783 61.9205 104.916 60.4436 106.656C58.934 108.395 56.8993 109.38 54.7989 109.577C54.7004 107.476 55.3896 105.31 56.8993 103.571ZM56.5054 112.005C57.7197 110.069 59.5904 108.789 61.6251 108.231C62.0517 110.299 61.6907 112.563 60.4764 114.499C59.2622 116.436 57.3915 117.715 55.3568 118.273C54.963 116.173 55.2912 113.941 56.5054 112.005ZM57.49 120.407C58.3761 118.306 60.017 116.731 61.9533 115.878C62.6753 117.88 62.7081 120.144 61.7892 122.244C60.9031 124.345 59.2622 125.92 57.2931 126.773C56.6039 124.771 56.5711 122.507 57.49 120.407ZM59.7216 128.513C60.2795 126.281 61.6579 124.476 63.4301 123.36C64.4803 125.198 64.8413 127.462 64.2834 129.661C63.7255 131.893 62.3471 133.698 60.5749 134.814C59.5247 132.976 59.1637 130.744 59.7216 128.513ZM63.2332 136.192C63.4301 133.895 64.5131 131.926 66.0884 130.515C67.4011 132.188 68.1231 134.321 67.8934 136.619C67.6965 138.883 66.6135 140.885 65.0382 142.296C63.7255 140.623 63.0363 138.489 63.2332 136.192ZM69.8297 137.177C71.3721 138.621 72.4223 140.623 72.5864 142.92C72.7505 145.217 71.9957 147.35 70.6501 148.991C69.1077 147.547 68.0575 145.545 67.8934 143.248C67.7293 140.951 68.4841 138.818 69.8297 137.177ZM71.9957 78.0382C69.764 78.5633 67.5324 78.1366 65.6945 77.0864C66.876 75.3142 68.7138 74.0015 70.9455 73.4764C73.1771 72.9513 75.4088 73.378 77.2466 74.4282C76.0651 76.2003 74.2273 77.5131 71.9957 78.0382ZM74.5555 143.182C76.3277 144.364 77.6732 146.202 78.1655 148.433C78.6906 150.665 78.2639 152.897 77.2138 154.734C75.4416 153.553 74.096 151.715 73.6038 149.484C73.0787 147.219 73.4725 144.987 74.5555 143.182ZM63.1347 70.1946C63.3645 67.9301 64.4803 65.9282 66.0884 64.5499C67.3683 66.2236 68.0575 68.3896 67.7949 70.6869C67.5652 72.9513 66.4494 74.9533 64.8413 76.3316C63.5614 74.6251 62.905 72.4591 63.1347 70.1946ZM65.6945 80.0729C67.8277 79.2196 70.0922 79.2524 72.0613 80.0401C71.1752 81.9764 69.5671 83.5844 67.4667 84.4377C65.3335 85.291 63.0691 85.2582 61.1 84.4705C61.9533 82.5343 63.5614 80.9262 65.6945 80.0729ZM59.4919 72.0324C61.0344 73.5092 62.0189 75.544 62.1502 77.8084C62.2815 80.1057 61.4938 82.2061 60.1154 83.847C58.573 82.3702 57.5884 80.3354 57.4572 78.071C57.3587 75.7737 58.1464 73.6405 59.4919 72.0324ZM54.1753 80.4339C55.9147 81.6482 57.2274 83.486 57.6869 85.7505C58.1464 87.9821 57.7197 90.2137 56.6039 92.0187C54.8645 90.8045 53.5518 88.9666 53.0923 86.735C52.6329 84.4705 53.0595 82.2389 54.1753 80.4339ZM50.2043 89.5902C52.1078 90.5091 53.6831 92.15 54.5035 94.2832C55.324 96.4164 55.2255 98.6809 54.4379 100.65C52.5344 99.731 50.9592 98.0901 50.1387 95.9569C49.3182 93.7909 49.4167 91.5265 50.2043 89.5902ZM47.743 99.2059C49.7777 99.8295 51.5827 101.175 52.7313 103.144C53.88 105.146 54.1425 107.378 53.6503 109.445C51.6155 108.822 49.8105 107.476 48.6619 105.507C47.5132 103.538 47.2507 101.273 47.743 99.2059ZM46.7912 109.15C48.8916 109.445 50.8935 110.495 52.3375 112.268C53.7815 114.04 54.4051 116.239 54.241 118.339C52.1406 118.044 50.1387 116.993 48.6947 115.221C47.2507 113.449 46.6271 111.25 46.7912 109.15ZM53.3877 121.293C55.0943 122.835 56.046 124.87 56.2101 127.003C54.0769 127.036 51.9437 126.314 50.2372 124.771C48.5306 123.229 47.5789 121.194 47.4148 119.061C49.548 119.028 51.6812 119.75 53.3877 121.293ZM49.6136 128.808C51.714 128.414 53.9456 128.808 55.8491 130.055C57.7854 131.302 59.0324 133.173 59.5247 135.24C57.4244 135.634 55.1927 135.24 53.2893 133.993C51.353 132.746 50.1059 130.876 49.6136 128.808ZM53.2564 138.063C55.2583 137.374 57.5228 137.406 59.6232 138.325C61.7235 139.244 63.2332 140.918 64.0536 142.887C62.0517 143.576 59.7873 143.543 57.6869 142.624C55.6193 141.673 54.0769 140.032 53.2564 138.063ZM58.3433 146.628C60.2139 145.611 62.4455 145.316 64.6772 145.906C66.876 146.497 68.681 147.908 69.764 149.713C67.8934 150.731 65.6617 151.026 63.4301 150.435C61.2313 149.845 59.4591 148.433 58.3433 146.628ZM70.3219 157.261C68.0575 157.032 66.0555 155.916 64.6772 154.308C66.3837 153.028 68.5169 152.339 70.8142 152.601C73.0787 152.831 75.0806 153.947 76.4589 155.555C74.7524 156.835 72.5864 157.491 70.3219 157.261ZM72.1597 160.904C73.6366 159.362 75.6713 158.377 77.9358 158.246C80.233 158.115 82.3334 158.902 83.9743 160.281C82.4975 161.823 80.4628 162.808 78.1983 162.939C75.901 163.07 73.7678 162.283 72.1597 160.904ZM80.5612 166.221C81.7755 164.481 83.6133 163.169 85.8778 162.709C88.1094 162.25 90.3411 162.676 92.1461 163.792C90.9318 165.532 89.094 166.844 86.8295 167.304C84.5979 167.796 82.3662 167.337 80.5612 166.221ZM96.0843 170.257C93.9511 171.078 91.6866 170.979 89.7175 170.192C90.6364 168.288 92.2773 166.713 94.4105 165.893C96.5437 165.072 98.8082 165.171 100.777 165.958C99.8255 167.862 98.2174 169.437 96.0843 170.257ZM105.634 171.734C103.665 172.883 101.401 173.145 99.3333 172.653C99.9568 170.618 101.302 168.813 103.271 167.665C105.241 166.516 107.505 166.254 109.573 166.746C108.982 168.781 107.636 170.586 105.634 171.734ZM103.698 163.497C101.959 161.987 100.974 159.953 100.777 157.852C102.91 157.754 105.044 158.476 106.783 159.953C108.522 161.462 109.507 163.497 109.704 165.597C107.603 165.696 105.437 165.007 103.698 163.497ZM143.244 74.4282C145.082 73.3452 147.314 72.9513 149.545 73.4764C151.777 74.0015 153.615 75.3142 154.796 77.0864C152.958 78.1694 150.727 78.5633 148.495 78.0382C146.231 77.5131 144.426 76.2003 143.244 74.4282ZM146.887 149.451C146.362 151.682 145.049 153.52 143.277 154.702C142.194 152.864 141.8 150.632 142.325 148.401C142.85 146.169 144.163 144.331 145.935 143.15C146.985 144.987 147.379 147.219 146.887 149.451ZM147.871 142.92C148.036 140.623 149.053 138.621 150.628 137.177C151.974 138.818 152.729 140.951 152.564 143.248C152.4 145.545 151.383 147.547 149.808 148.991C148.462 147.35 147.74 145.217 147.871 142.92ZM152.564 136.619C152.368 134.321 153.057 132.188 154.369 130.515C155.945 131.926 157.028 133.928 157.225 136.192C157.422 138.489 156.732 140.623 155.42 142.296C153.812 140.885 152.761 138.883 152.564 136.619ZM156.174 129.661C155.617 127.43 155.978 125.198 157.028 123.36C158.8 124.509 160.178 126.314 160.736 128.513C161.294 130.744 160.933 132.976 159.883 134.814C158.111 133.698 156.732 131.893 156.174 129.661ZM158.669 122.244C157.783 120.144 157.783 117.88 158.505 115.878C160.441 116.731 162.082 118.306 162.968 120.407C163.854 122.507 163.854 124.771 163.132 126.773C161.196 125.92 159.555 124.345 158.669 122.244ZM159.949 114.499C158.734 112.563 158.373 110.331 158.8 108.231C160.867 108.756 162.705 110.069 163.92 112.005C165.134 113.941 165.495 116.173 165.068 118.273C163.033 117.748 161.163 116.436 159.949 114.499ZM160.014 106.656C158.505 104.916 157.815 102.783 157.914 100.65C160.014 100.847 162.082 101.831 163.559 103.571C165.068 105.31 165.757 107.443 165.659 109.577C163.559 109.38 161.524 108.395 160.014 106.656ZM158.866 98.9106C157.093 97.4338 156.076 95.4318 155.846 93.2986C157.979 93.1674 160.145 93.8237 161.885 95.3006C163.657 96.7774 164.674 98.7793 164.904 100.912C162.804 101.044 160.638 100.387 158.866 98.9106ZM156.503 91.428C154.534 90.2466 153.221 88.4087 152.63 86.374C154.698 85.9146 156.962 86.2099 158.898 87.3914C160.867 88.5728 162.18 90.4107 162.771 92.4454C160.736 92.9048 158.472 92.6095 156.503 91.428ZM153.024 84.4377C150.891 83.5844 149.315 81.9764 148.429 80.0401C150.398 79.2853 152.663 79.2196 154.796 80.0729C156.929 80.9262 158.505 82.5343 159.391 84.4705C157.422 85.2254 155.157 85.291 153.024 84.4377ZM154.369 64.5499C155.978 65.9282 157.093 67.8973 157.323 70.1946C157.553 72.4591 156.896 74.6251 155.617 76.3316C154.008 74.9533 152.893 72.9842 152.663 70.6869C152.4 68.3896 153.09 66.2564 154.369 64.5499ZM148.429 65.797C150.3 67.602 151.317 69.9649 151.416 72.3606C149.02 72.3278 146.592 71.4417 144.721 69.6367C142.85 67.8317 141.833 65.4688 141.734 63.073C144.163 63.1059 146.559 63.992 148.429 65.797ZM135.926 152.962C136.779 150.829 138.387 149.254 140.323 148.368C141.111 150.337 141.144 152.601 140.29 154.734C139.437 156.868 137.829 158.443 135.893 159.329C135.105 157.36 135.072 155.095 135.926 152.962ZM128.903 156.441C130.084 154.472 131.922 153.159 133.957 152.568C134.416 154.636 134.121 156.9 132.939 158.837C131.758 160.806 129.92 162.119 127.885 162.709C127.426 160.675 127.721 158.41 128.903 156.441ZM127.032 155.785C127.163 157.918 126.507 160.084 125.03 161.823C123.553 163.595 121.551 164.613 119.418 164.842C119.287 162.709 119.943 160.543 121.42 158.804C122.897 157.065 124.899 156.047 127.032 155.785ZM113.675 159.953C115.414 158.443 117.547 157.754 119.681 157.852C119.484 159.953 118.499 162.02 116.76 163.497C115.02 165.007 112.887 165.696 110.754 165.597C110.951 163.497 111.935 161.462 113.675 159.953ZM114.823 171.734C112.854 170.586 111.476 168.781 110.885 166.746C112.953 166.254 115.184 166.516 117.186 167.665C119.188 168.813 120.534 170.618 121.157 172.653C119.057 173.145 116.793 172.883 114.823 171.734ZM124.406 170.257C122.273 169.437 120.632 167.862 119.713 165.958C121.682 165.138 123.947 165.072 126.08 165.893C128.213 166.713 129.854 168.288 130.773 170.192C128.804 170.979 126.54 171.078 124.406 170.257ZM133.628 167.304C131.397 166.844 129.526 165.532 128.312 163.792C130.117 162.676 132.348 162.25 134.58 162.709C136.812 163.169 138.682 164.481 139.897 166.221C138.092 167.337 135.86 167.796 133.628 167.304ZM142.292 162.939C139.995 162.808 137.96 161.823 136.516 160.281C138.124 158.902 140.258 158.115 142.555 158.246C144.852 158.377 146.887 159.362 148.331 160.904C146.69 162.283 144.557 163.07 142.292 162.939ZM150.136 157.261C147.871 157.491 145.705 156.835 143.999 155.555C145.377 153.947 147.346 152.831 149.644 152.601C151.908 152.372 154.074 153.028 155.781 154.308C154.402 155.916 152.433 157.032 150.136 157.261ZM157.028 150.435C154.829 151.026 152.564 150.698 150.694 149.713C151.81 147.908 153.582 146.497 155.813 145.906C158.012 145.316 160.277 145.644 162.147 146.628C160.999 148.433 159.227 149.845 157.028 150.435ZM162.738 142.624C160.638 143.543 158.373 143.576 156.371 142.887C157.192 140.918 158.734 139.277 160.802 138.325C162.902 137.406 165.167 137.374 167.169 138.063C166.381 140.032 164.838 141.673 162.738 142.624ZM167.201 133.993C165.265 135.24 163.066 135.634 160.966 135.24C161.458 133.173 162.738 131.302 164.642 130.055C166.545 128.808 168.777 128.414 170.877 128.808C170.352 130.876 169.105 132.746 167.201 133.993ZM170.221 124.771C168.514 126.314 166.381 127.036 164.248 127.003C164.412 124.903 165.364 122.835 167.07 121.293C168.777 119.75 170.91 119.028 173.043 119.061C172.879 121.194 171.927 123.262 170.221 124.771ZM171.763 115.221C170.319 116.993 168.317 118.044 166.217 118.339C166.053 116.206 166.676 114.04 168.12 112.268C169.564 110.495 171.566 109.445 173.667 109.15C173.831 111.25 173.207 113.449 171.763 115.221ZM171.796 105.507C170.647 107.476 168.842 108.855 166.808 109.445C166.315 107.378 166.578 105.146 167.726 103.144C168.875 101.175 170.68 99.7967 172.715 99.2059C173.207 101.273 172.945 103.538 171.796 105.507ZM170.254 89.5902C171.074 91.5593 171.14 93.8237 170.319 95.9569C169.499 98.0901 167.923 99.731 166.02 100.65C165.199 98.6809 165.134 96.4164 165.954 94.2832C166.742 92.1172 168.35 90.5091 170.254 89.5902ZM166.283 80.4339C167.398 82.2389 167.825 84.4705 167.366 86.7022C166.906 88.9338 165.593 90.8045 163.854 91.9859C162.738 90.1809 162.311 87.9493 162.771 85.7176C163.23 83.486 164.543 81.6482 166.283 80.4339ZM163.001 78.0382C162.869 80.3354 161.885 82.3702 160.342 83.8142C158.964 82.2061 158.176 80.0729 158.308 77.7756C158.439 75.4783 159.423 73.4436 160.966 71.9996C162.344 73.6405 163.099 75.7737 163.001 78.0382Z" fill="white"/>
<path d="M97.7577 70.4243L99.7597 69.4069L101.729 70.4243L101.335 68.2255L102.943 66.683L100.744 66.3548L99.7597 64.3529L98.7751 66.3548L96.5435 66.683L98.1515 68.2255L97.7577 70.4243Z" fill="white"/>
<path d="M108.785 70.4243L110.754 69.4069L112.723 70.4243L112.329 68.2255L113.937 66.683L111.738 66.3548L110.754 64.3529L109.769 66.3548L107.538 66.683L109.146 68.2255L108.785 70.4243Z" fill="white"/>
<path d="M119.779 70.4243L121.748 69.4069L123.717 70.4243L123.356 68.2255L124.931 66.683L122.732 66.3548L121.748 64.3529L120.763 66.3548L118.532 66.683L120.14 68.2255L119.779 70.4243Z" fill="white"/>
</svg>
